%TF.GenerationSoftware,KiCad,Pcbnew,7.0.8*%
%TF.CreationDate,2024-02-17T17:12:52+11:00*%
%TF.ProjectId,JNTUB,4a4e5455-422e-46b6-9963-61645f706362,rev?*%
%TF.SameCoordinates,Original*%
%TF.FileFunction,Copper,L1,Top*%
%TF.FilePolarity,Positive*%
%FSLAX46Y46*%
G04 Gerber Fmt 4.6, Leading zero omitted, Abs format (unit mm)*
G04 Created by KiCad (PCBNEW 7.0.8) date 2024-02-17 17:12:52*
%MOMM*%
%LPD*%
G01*
G04 APERTURE LIST*
G04 Aperture macros list*
%AMRoundRect*
0 Rectangle with rounded corners*
0 $1 Rounding radius*
0 $2 $3 $4 $5 $6 $7 $8 $9 X,Y pos of 4 corners*
0 Add a 4 corners polygon primitive as box body*
4,1,4,$2,$3,$4,$5,$6,$7,$8,$9,$2,$3,0*
0 Add four circle primitives for the rounded corners*
1,1,$1+$1,$2,$3*
1,1,$1+$1,$4,$5*
1,1,$1+$1,$6,$7*
1,1,$1+$1,$8,$9*
0 Add four rect primitives between the rounded corners*
20,1,$1+$1,$2,$3,$4,$5,0*
20,1,$1+$1,$4,$5,$6,$7,0*
20,1,$1+$1,$6,$7,$8,$9,0*
20,1,$1+$1,$8,$9,$2,$3,0*%
%AMFreePoly0*
4,1,9,5.362500,-0.866500,1.237500,-0.866500,1.237500,-0.450000,-1.237500,-0.450000,-1.237500,0.450000,1.237500,0.450000,1.237500,0.866500,5.362500,0.866500,5.362500,-0.866500,5.362500,-0.866500,$1*%
G04 Aperture macros list end*
%TA.AperFunction,SMDPad,CuDef*%
%ADD10RoundRect,0.250000X-0.475000X0.337500X-0.475000X-0.337500X0.475000X-0.337500X0.475000X0.337500X0*%
%TD*%
%TA.AperFunction,SMDPad,CuDef*%
%ADD11RoundRect,0.250000X-0.250000X-0.250000X0.250000X-0.250000X0.250000X0.250000X-0.250000X0.250000X0*%
%TD*%
%TA.AperFunction,SMDPad,CuDef*%
%ADD12RoundRect,0.250000X-0.350000X-0.450000X0.350000X-0.450000X0.350000X0.450000X-0.350000X0.450000X0*%
%TD*%
%TA.AperFunction,SMDPad,CuDef*%
%ADD13RoundRect,0.250000X0.350000X0.450000X-0.350000X0.450000X-0.350000X-0.450000X0.350000X-0.450000X0*%
%TD*%
%TA.AperFunction,ComponentPad*%
%ADD14R,1.700000X1.700000*%
%TD*%
%TA.AperFunction,ComponentPad*%
%ADD15O,1.700000X1.700000*%
%TD*%
%TA.AperFunction,ComponentPad*%
%ADD16C,1.400000*%
%TD*%
%TA.AperFunction,ComponentPad*%
%ADD17O,1.400000X1.400000*%
%TD*%
%TA.AperFunction,SMDPad,CuDef*%
%ADD18RoundRect,0.250000X-0.337500X-0.475000X0.337500X-0.475000X0.337500X0.475000X-0.337500X0.475000X0*%
%TD*%
%TA.AperFunction,SMDPad,CuDef*%
%ADD19R,0.900000X2.300000*%
%TD*%
%TA.AperFunction,SMDPad,CuDef*%
%ADD20FreePoly0,270.000000*%
%TD*%
%TA.AperFunction,SMDPad,CuDef*%
%ADD21RoundRect,0.250000X0.337500X0.475000X-0.337500X0.475000X-0.337500X-0.475000X0.337500X-0.475000X0*%
%TD*%
%TA.AperFunction,SMDPad,CuDef*%
%ADD22R,1.700000X0.650000*%
%TD*%
%TA.AperFunction,SMDPad,CuDef*%
%ADD23R,2.300000X0.900000*%
%TD*%
%TA.AperFunction,SMDPad,CuDef*%
%ADD24FreePoly0,180.000000*%
%TD*%
%TA.AperFunction,SMDPad,CuDef*%
%ADD25RoundRect,0.100000X-0.637500X-0.100000X0.637500X-0.100000X0.637500X0.100000X-0.637500X0.100000X0*%
%TD*%
%TA.AperFunction,SMDPad,CuDef*%
%ADD26RoundRect,0.150000X0.587500X0.150000X-0.587500X0.150000X-0.587500X-0.150000X0.587500X-0.150000X0*%
%TD*%
%TA.AperFunction,SMDPad,CuDef*%
%ADD27RoundRect,0.250000X0.450000X-0.350000X0.450000X0.350000X-0.450000X0.350000X-0.450000X-0.350000X0*%
%TD*%
%TA.AperFunction,SMDPad,CuDef*%
%ADD28RoundRect,0.150000X-0.587500X-0.150000X0.587500X-0.150000X0.587500X0.150000X-0.587500X0.150000X0*%
%TD*%
%TA.AperFunction,SMDPad,CuDef*%
%ADD29RoundRect,0.250000X0.250000X0.250000X-0.250000X0.250000X-0.250000X-0.250000X0.250000X-0.250000X0*%
%TD*%
%TA.AperFunction,SMDPad,CuDef*%
%ADD30RoundRect,0.250000X0.475000X-0.337500X0.475000X0.337500X-0.475000X0.337500X-0.475000X-0.337500X0*%
%TD*%
%TA.AperFunction,ComponentPad*%
%ADD31R,1.600000X1.600000*%
%TD*%
%TA.AperFunction,ViaPad*%
%ADD32C,0.762000*%
%TD*%
%TA.AperFunction,ViaPad*%
%ADD33C,1.016000*%
%TD*%
%TA.AperFunction,ViaPad*%
%ADD34C,0.914400*%
%TD*%
%TA.AperFunction,ViaPad*%
%ADD35C,1.000000*%
%TD*%
%TA.AperFunction,Conductor*%
%ADD36C,1.016000*%
%TD*%
%TA.AperFunction,Conductor*%
%ADD37C,0.406400*%
%TD*%
%TA.AperFunction,Conductor*%
%ADD38C,0.609600*%
%TD*%
%TA.AperFunction,Conductor*%
%ADD39C,1.270000*%
%TD*%
%TA.AperFunction,Conductor*%
%ADD40C,1.524000*%
%TD*%
%TA.AperFunction,Conductor*%
%ADD41C,0.762000*%
%TD*%
%TA.AperFunction,Conductor*%
%ADD42C,0.254000*%
%TD*%
%TA.AperFunction,Conductor*%
%ADD43C,0.203200*%
%TD*%
%TA.AperFunction,Conductor*%
%ADD44C,0.304800*%
%TD*%
G04 APERTURE END LIST*
D10*
%TO.P,C2,1*%
%TO.N,GNDREF*%
X205900000Y-61987500D03*
%TO.P,C2,2*%
%TO.N,-12V*%
X205900000Y-64062500D03*
%TD*%
D11*
%TO.P,D11,1,K*%
%TO.N,Net-(D11-K)*%
X204625000Y-66425000D03*
%TO.P,D11,2,A*%
%TO.N,-12V*%
X207125000Y-66425000D03*
%TD*%
%TO.P,D1,1,K*%
%TO.N,+5V*%
X203720000Y-128420000D03*
%TO.P,D1,2,A*%
%TO.N,/MainBoard/MCU_ADC1*%
X206220000Y-128420000D03*
%TD*%
D12*
%TO.P,R4,1*%
%TO.N,Net-(R4-Pad1)*%
X203970000Y-121580000D03*
%TO.P,R4,2*%
%TO.N,/MainBoard/MCU_ADC1*%
X205970000Y-121580000D03*
%TD*%
%TO.P,R13,1*%
%TO.N,Net-(Q1-C)*%
X210740000Y-144150000D03*
%TO.P,R13,2*%
%TO.N,+5V*%
X212740000Y-144150000D03*
%TD*%
D13*
%TO.P,R26,1*%
%TO.N,+5V*%
X201480000Y-135160000D03*
%TO.P,R26,2*%
%TO.N,/MainBoard/MCU_RESET*%
X199480000Y-135160000D03*
%TD*%
D14*
%TO.P,J11,1,Pin_1*%
%TO.N,/MainBoard/OUT*%
X213487000Y-89662000D03*
D15*
%TO.P,J11,2,Pin_2*%
%TO.N,GNDREF*%
X213487000Y-92202000D03*
%TO.P,J11,3,Pin_3*%
X213487000Y-94742000D03*
%TO.P,J11,4,Pin_4*%
X213487000Y-97282000D03*
%TO.P,J11,5,Pin_5*%
%TO.N,/MainBoard/CLK_LED*%
X213487000Y-99822000D03*
%TO.P,J11,6,Pin_6*%
%TO.N,/MainBoard/CLK_TRG*%
X213487000Y-102362000D03*
%TO.P,J11,7,Pin_7*%
%TO.N,/MainBoard/P1_AVG*%
X213487000Y-104902000D03*
%TD*%
D14*
%TO.P,J10,1,Pin_1*%
%TO.N,+5V*%
X197993000Y-89662000D03*
D15*
%TO.P,J10,2,Pin_2*%
%TO.N,-5V*%
X197993000Y-92202000D03*
%TO.P,J10,3,Pin_3*%
%TO.N,unconnected-(J10-Pin_3-Pad3)*%
X197993000Y-94742000D03*
%TO.P,J10,4,Pin_4*%
%TO.N,/MainBoard/LED_NEG*%
X197993000Y-97282000D03*
%TO.P,J10,5,Pin_5*%
%TO.N,/MainBoard/LED_POS*%
X197993000Y-99822000D03*
%TO.P,J10,6,Pin_6*%
%TO.N,/MainBoard/MCU_ADC2*%
X197993000Y-102362000D03*
%TO.P,J10,7,Pin_7*%
%TO.N,/MainBoard/P2_AVG*%
X197993000Y-104902000D03*
%TD*%
D10*
%TO.P,C8,1*%
%TO.N,+12V*%
X198060000Y-108432500D03*
%TO.P,C8,2*%
%TO.N,GNDREF*%
X198060000Y-110507500D03*
%TD*%
D16*
%TO.P,R23,1*%
%TO.N,/MainBoard/LED_POS*%
X199840000Y-86100000D03*
D17*
%TO.P,R23,2*%
%TO.N,/MainBoard/OUT*%
X202380000Y-86100000D03*
%TD*%
D12*
%TO.P,R25,1*%
%TO.N,Net-(U2D--)*%
X202200000Y-83875000D03*
%TO.P,R25,2*%
%TO.N,/MainBoard/OUT*%
X204200000Y-83875000D03*
%TD*%
D11*
%TO.P,D4,1,K*%
%TO.N,/MainBoard/MCU_ADC3*%
X197800000Y-131830000D03*
%TO.P,D4,2,A*%
%TO.N,GNDREF*%
X200300000Y-131830000D03*
%TD*%
D18*
%TO.P,C6,1*%
%TO.N,GNDREF*%
X205487500Y-77625000D03*
%TO.P,C6,2*%
%TO.N,-5V*%
X207562500Y-77625000D03*
%TD*%
D12*
%TO.P,R24,1*%
%TO.N,+5V*%
X198000000Y-83825000D03*
%TO.P,R24,2*%
%TO.N,Net-(U2D--)*%
X200000000Y-83825000D03*
%TD*%
D19*
%TO.P,U4,1,GND*%
%TO.N,GNDREF*%
X211725000Y-69475000D03*
D20*
%TO.P,U4,2,VI*%
%TO.N,-12V*%
X210225000Y-69562500D03*
D19*
%TO.P,U4,3,VO*%
%TO.N,-5V*%
X208725000Y-69475000D03*
%TD*%
D10*
%TO.P,C1,1*%
%TO.N,+12V*%
X209550000Y-59712500D03*
%TO.P,C1,2*%
%TO.N,GNDREF*%
X209550000Y-61787500D03*
%TD*%
D21*
%TO.P,C10,1*%
%TO.N,+5V*%
X205977500Y-135150000D03*
%TO.P,C10,2*%
%TO.N,GNDREF*%
X203902500Y-135150000D03*
%TD*%
D12*
%TO.P,R2,1*%
%TO.N,+5V*%
X203950000Y-125450000D03*
%TO.P,R2,2*%
%TO.N,/MainBoard/MCU_ADC1*%
X205950000Y-125450000D03*
%TD*%
D22*
%TO.P,U1,1,~{RESET}/PB5*%
%TO.N,/MainBoard/MCU_RESET*%
X198780000Y-139745000D03*
%TO.P,U1,2,XTAL1/PB3*%
%TO.N,/MainBoard/MCU_ADC3*%
X198780000Y-141015000D03*
%TO.P,U1,3,XTAL2/PB4*%
%TO.N,/MainBoard/MCU_ADC2*%
X198780000Y-142285000D03*
%TO.P,U1,4,GND*%
%TO.N,GNDREF*%
X198780000Y-143555000D03*
%TO.P,U1,5,AREF/PB0*%
%TO.N,/MainBoard/MCU_PB0*%
X206080000Y-143555000D03*
%TO.P,U1,6,PB1*%
%TO.N,/MainBoard/MCU_PWM*%
X206080000Y-142285000D03*
%TO.P,U1,7,PB2*%
%TO.N,/MainBoard/MCU_ADC1*%
X206080000Y-141015000D03*
%TO.P,U1,8,VCC*%
%TO.N,+5V*%
X206080000Y-139745000D03*
%TD*%
D23*
%TO.P,U3,1,VO*%
%TO.N,+5V*%
X202450000Y-76300000D03*
D24*
%TO.P,U3,2,GND*%
%TO.N,GNDREF*%
X202362500Y-74800000D03*
D23*
%TO.P,U3,3,VI*%
%TO.N,+12V*%
X202450000Y-73300000D03*
%TD*%
D25*
%TO.P,U2,1*%
%TO.N,/MainBoard/LED_NEG*%
X202877500Y-96440000D03*
%TO.P,U2,2,-*%
%TO.N,/MainBoard/LED_POS*%
X202877500Y-97090000D03*
%TO.P,U2,3,+*%
%TO.N,GNDREF*%
X202877500Y-97740000D03*
%TO.P,U2,4,V+*%
%TO.N,+12V*%
X202877500Y-98390000D03*
%TO.P,U2,5,+*%
%TO.N,/MainBoard/P2_AVG*%
X202877500Y-99040000D03*
%TO.P,U2,6,-*%
%TO.N,Net-(U2B--)*%
X202877500Y-99690000D03*
%TO.P,U2,7*%
%TO.N,Net-(R10-Pad1)*%
X202877500Y-100340000D03*
%TO.P,U2,8*%
%TO.N,Net-(R4-Pad1)*%
X208602500Y-100340000D03*
%TO.P,U2,9,-*%
%TO.N,Net-(U2C--)*%
X208602500Y-99690000D03*
%TO.P,U2,10,+*%
%TO.N,/MainBoard/P1_AVG*%
X208602500Y-99040000D03*
%TO.P,U2,11,V-*%
%TO.N,-12V*%
X208602500Y-98390000D03*
%TO.P,U2,12,+*%
%TO.N,Net-(U2D-+)*%
X208602500Y-97740000D03*
%TO.P,U2,13,-*%
%TO.N,Net-(U2D--)*%
X208602500Y-97090000D03*
%TO.P,U2,14*%
%TO.N,/MainBoard/OUT*%
X208602500Y-96440000D03*
%TD*%
D12*
%TO.P,R18,1*%
%TO.N,GNDREF*%
X210740000Y-146830000D03*
%TO.P,R18,2*%
%TO.N,Net-(Q1-E)*%
X212740000Y-146830000D03*
%TD*%
D26*
%TO.P,Q1,1,B*%
%TO.N,Net-(D5-K)*%
X211567500Y-151760000D03*
%TO.P,Q1,2,E*%
%TO.N,Net-(Q1-E)*%
X211567500Y-149860000D03*
%TO.P,Q1,3,C*%
%TO.N,Net-(Q1-C)*%
X209692500Y-150810000D03*
%TD*%
%TO.P,Q2,1,B*%
%TO.N,Net-(Q1-C)*%
X211597500Y-155410000D03*
%TO.P,Q2,2,E*%
%TO.N,Net-(Q1-E)*%
X211597500Y-153510000D03*
%TO.P,Q2,3,C*%
%TO.N,/MainBoard/MCU_PB0*%
X209722500Y-154460000D03*
%TD*%
D27*
%TO.P,R28,1*%
%TO.N,/MainBoard/MCU_PWM*%
X198060000Y-154310000D03*
%TO.P,R28,2*%
%TO.N,GNDREF*%
X198060000Y-152310000D03*
%TD*%
D12*
%TO.P,R27,1*%
%TO.N,Net-(JP2-Pad1)*%
X204180000Y-154480000D03*
%TO.P,R27,2*%
%TO.N,Net-(U2D-+)*%
X206180000Y-154480000D03*
%TD*%
%TO.P,R22,1*%
%TO.N,/MainBoard/MCU_PWM*%
X204160000Y-152110000D03*
%TO.P,R22,2*%
%TO.N,Net-(U2D-+)*%
X206160000Y-152110000D03*
%TD*%
%TO.P,R20,1*%
%TO.N,Net-(Q3-B)*%
X210740000Y-132690000D03*
%TO.P,R20,2*%
%TO.N,/MainBoard/MCU_PB0*%
X212740000Y-132690000D03*
%TD*%
D16*
%TO.P,R19,1*%
%TO.N,+5V*%
X210780000Y-125390000D03*
D17*
%TO.P,R19,2*%
%TO.N,Net-(Q3-C)*%
X213320000Y-125390000D03*
%TD*%
D28*
%TO.P,Q3,1,B*%
%TO.N,Net-(Q3-B)*%
X210802500Y-120650000D03*
%TO.P,Q3,2,E*%
%TO.N,/MainBoard/CLK_LED*%
X210802500Y-122550000D03*
%TO.P,Q3,3,C*%
%TO.N,Net-(Q3-C)*%
X212677500Y-121600000D03*
%TD*%
D12*
%TO.P,R16,1*%
%TO.N,Net-(D5-K)*%
X211600000Y-118425000D03*
%TO.P,R16,2*%
%TO.N,/MainBoard/CLK_TRG*%
X213600000Y-118425000D03*
%TD*%
D29*
%TO.P,D5,1,K*%
%TO.N,Net-(D5-K)*%
X213850000Y-116175000D03*
%TO.P,D5,2,A*%
%TO.N,GNDREF*%
X211350000Y-116175000D03*
%TD*%
D30*
%TO.P,C9,1*%
%TO.N,GNDREF*%
X213490000Y-110477500D03*
%TO.P,C9,2*%
%TO.N,-12V*%
X213490000Y-108402500D03*
%TD*%
D12*
%TO.P,R5,1*%
%TO.N,GNDREF*%
X203680000Y-115060000D03*
%TO.P,R5,2*%
%TO.N,Net-(U2C--)*%
X205680000Y-115060000D03*
%TD*%
%TO.P,R6,1*%
%TO.N,Net-(U2C--)*%
X205670000Y-117510000D03*
%TO.P,R6,2*%
%TO.N,Net-(R4-Pad1)*%
X207670000Y-117510000D03*
%TD*%
D13*
%TO.P,R11,1*%
%TO.N,GNDREF*%
X200110000Y-115920000D03*
%TO.P,R11,2*%
%TO.N,Net-(U2B--)*%
X198110000Y-115920000D03*
%TD*%
%TO.P,R12,1*%
%TO.N,Net-(R10-Pad1)*%
X200100000Y-118270000D03*
%TO.P,R12,2*%
%TO.N,Net-(U2B--)*%
X198100000Y-118270000D03*
%TD*%
%TO.P,R10,1*%
%TO.N,Net-(R10-Pad1)*%
X200050000Y-121530000D03*
%TO.P,R10,2*%
%TO.N,/MainBoard/MCU_ADC3*%
X198050000Y-121530000D03*
%TD*%
%TO.P,R8,1*%
%TO.N,+5V*%
X200030000Y-125440000D03*
%TO.P,R8,2*%
%TO.N,/MainBoard/MCU_ADC3*%
X198030000Y-125440000D03*
%TD*%
D29*
%TO.P,D3,1,K*%
%TO.N,+5V*%
X200300000Y-128470000D03*
%TO.P,D3,2,A*%
%TO.N,/MainBoard/MCU_ADC3*%
X197800000Y-128470000D03*
%TD*%
%TO.P,D2,1,K*%
%TO.N,/MainBoard/MCU_ADC1*%
X206210000Y-131810000D03*
%TO.P,D2,2,A*%
%TO.N,GNDREF*%
X203710000Y-131810000D03*
%TD*%
D12*
%TO.P,R14,1*%
%TO.N,+5V*%
X210750000Y-129350000D03*
%TO.P,R14,2*%
%TO.N,/MainBoard/MCU_PB0*%
X212750000Y-129350000D03*
%TD*%
D29*
%TO.P,D10,1,K*%
%TO.N,+12V*%
X207125000Y-59700000D03*
%TO.P,D10,2,A*%
%TO.N,Net-(D10-A)*%
X204625000Y-59700000D03*
%TD*%
D30*
%TO.P,C4,1*%
%TO.N,+5V*%
X202850000Y-80687500D03*
%TO.P,C4,2*%
%TO.N,GNDREF*%
X202850000Y-78612500D03*
%TD*%
D21*
%TO.P,C12,1*%
%TO.N,Net-(U2D-+)*%
X206207500Y-149270000D03*
%TO.P,C12,2*%
%TO.N,GNDREF*%
X204132500Y-149270000D03*
%TD*%
%TO.P,C5,1*%
%TO.N,GNDREF*%
X211812500Y-66475000D03*
%TO.P,C5,2*%
%TO.N,-12V*%
X209737500Y-66475000D03*
%TD*%
D10*
%TO.P,C3,1*%
%TO.N,+12V*%
X205625000Y-72937500D03*
%TO.P,C3,2*%
%TO.N,GNDREF*%
X205625000Y-75012500D03*
%TD*%
D14*
%TO.P,J9,1,P1*%
%TO.N,Net-(D10-A)*%
X200914000Y-59690000D03*
D15*
%TO.P,J9,2,P2*%
X198374000Y-59690000D03*
%TO.P,J9,3,P3*%
%TO.N,GNDREF*%
X200914000Y-62230000D03*
%TO.P,J9,4,P4*%
X198374000Y-62230000D03*
%TO.P,J9,5,P5*%
X200914000Y-64770000D03*
%TO.P,J9,6,P6*%
X198374000Y-64770000D03*
%TO.P,J9,7,P7*%
X200914000Y-67310000D03*
%TO.P,J9,8,P8*%
X198374000Y-67310000D03*
%TO.P,J9,9,P9*%
%TO.N,Net-(D11-K)*%
X200914000Y-69850000D03*
%TO.P,J9,10,P10*%
X198374000Y-69850000D03*
%TD*%
D14*
%TO.P,JP1,1,1*%
%TO.N,Net-(U2D--)*%
X210312000Y-81534000D03*
D15*
%TO.P,JP1,2,2*%
%TO.N,/MainBoard/OUT*%
X210312000Y-84074000D03*
%TD*%
D31*
%TO.P,J12,1,MISO*%
%TO.N,/MainBoard/MCU_PWM*%
X210439000Y-140970000D03*
D15*
%TO.P,J12,2,VCC*%
%TO.N,+5V*%
X212979000Y-140970000D03*
%TO.P,J12,3,SCK*%
%TO.N,/MainBoard/MCU_ADC1*%
X210439000Y-138430000D03*
%TO.P,J12,4,MOSI*%
%TO.N,/MainBoard/MCU_PB0*%
X212979000Y-138430000D03*
%TO.P,J12,5,~{RST}*%
%TO.N,/MainBoard/MCU_RESET*%
X210439000Y-135890000D03*
%TO.P,J12,6,GND*%
%TO.N,GNDREF*%
X212979000Y-135890000D03*
%TD*%
D14*
%TO.P,JP2,1,1*%
%TO.N,Net-(JP2-Pad1)*%
X201200000Y-154840000D03*
D15*
%TO.P,JP2,2,2*%
%TO.N,/MainBoard/MCU_PWM*%
X201200000Y-152300000D03*
%TD*%
D32*
%TO.N,+12V*%
X211575000Y-59725000D03*
X206725000Y-70925000D03*
X200162523Y-99780000D03*
X200162523Y-95140000D03*
X212625000Y-78975000D03*
X200162523Y-106887477D03*
D33*
%TO.N,GNDREF*%
X213360000Y-113740000D03*
D32*
X204970000Y-97760000D03*
D34*
X205675000Y-79500000D03*
X204978000Y-130167038D03*
D32*
X201491601Y-97682645D03*
D34*
X203708000Y-116649500D03*
X209600000Y-148717000D03*
X203962000Y-147574000D03*
D32*
%TO.N,+5V*%
X201803000Y-132461000D03*
X203073000Y-94107000D03*
X203708000Y-126873000D03*
X210820000Y-127762000D03*
X201803000Y-113665000D03*
X211709000Y-131064000D03*
X199898000Y-123698000D03*
X203708000Y-123698000D03*
X205810000Y-133515001D03*
%TO.N,-12V*%
X211709000Y-98310000D03*
X209550000Y-94107000D03*
%TO.N,-5V*%
X200620000Y-88190000D03*
X205475000Y-69450000D03*
%TO.N,/MainBoard/MCU_ADC2*%
X201570000Y-137010000D03*
X198628000Y-122936000D03*
%TO.N,/MainBoard/MCU_ADC1*%
X207772000Y-138430000D03*
%TO.N,Net-(U2D-+)*%
X208280000Y-125222000D03*
X207391000Y-115660000D03*
D35*
%TO.N,Net-(D11-K)*%
X203700000Y-68125000D03*
D32*
%TO.N,/MainBoard/MCU_PB0*%
X205410000Y-146040000D03*
X207788000Y-143536000D03*
X207772000Y-153162000D03*
%TO.N,Net-(R4-Pad1)*%
X208600000Y-102160000D03*
X209510000Y-109170000D03*
%TO.N,Net-(R10-Pad1)*%
X199898000Y-120269000D03*
X202870000Y-104010000D03*
%TO.N,/MainBoard/MCU_PWM*%
X207790000Y-142370000D03*
%TO.N,/MainBoard/P1_AVG*%
X210550000Y-101670000D03*
%TO.N,/MainBoard/MCU_RESET*%
X199915000Y-138025000D03*
%TO.N,/MainBoard/LED_POS*%
X203920000Y-95380000D03*
%TO.N,/MainBoard/CLK_LED*%
X211455000Y-106807000D03*
%TO.N,Net-(U2D--)*%
X208153000Y-89535000D03*
X206025000Y-83850000D03*
%TO.N,Net-(U2C--)*%
X208630000Y-104690000D03*
X207470000Y-109150000D03*
%TO.N,Net-(U2B--)*%
X202870000Y-102160000D03*
X197358000Y-113919000D03*
%TD*%
D36*
%TO.N,+12V*%
X204503000Y-87757000D02*
X209804000Y-87757000D01*
X202450000Y-73300000D02*
X205262500Y-73300000D01*
X202540000Y-89720000D02*
X204503000Y-87757000D01*
X211575000Y-59725000D02*
X209562500Y-59725000D01*
X209562500Y-59725000D02*
X209550000Y-59712500D01*
X206725000Y-71837500D02*
X205625000Y-72937500D01*
X209804000Y-87757000D02*
X212625000Y-84936000D01*
D37*
X201290894Y-99100000D02*
X202000894Y-98390000D01*
X200162523Y-99780000D02*
X200842523Y-99100000D01*
D36*
X202540000Y-91385000D02*
X202540000Y-89720000D01*
X200162523Y-107307477D02*
X199037500Y-108432500D01*
X200162523Y-95140000D02*
X200162523Y-93762477D01*
X200162523Y-93762477D02*
X202540000Y-91385000D01*
X199037500Y-108432500D02*
X198060000Y-108432500D01*
X212625000Y-84936000D02*
X212625000Y-78975000D01*
D37*
X202000894Y-98390000D02*
X202877500Y-98390000D01*
D36*
X206725000Y-70925000D02*
X206725000Y-71837500D01*
D37*
X200842523Y-99100000D02*
X201290894Y-99100000D01*
D36*
X209537500Y-59700000D02*
X207125000Y-59700000D01*
X200162523Y-106887477D02*
X200162523Y-107307477D01*
X209550000Y-59712500D02*
X209537500Y-59700000D01*
D38*
%TO.N,GNDREF*%
X204454958Y-130556000D02*
X203708000Y-130556000D01*
D39*
X200300000Y-131830000D02*
X200300000Y-130916000D01*
X203708000Y-116649500D02*
X203708000Y-115316000D01*
X213360000Y-113740000D02*
X212560000Y-113740000D01*
X213360000Y-113740000D02*
X213360000Y-110607500D01*
D36*
X201341948Y-74800000D02*
X202362500Y-74800000D01*
D37*
X202887500Y-97750000D02*
X203580000Y-97750000D01*
D36*
X200587200Y-72554748D02*
X200587200Y-74045252D01*
D39*
X212560000Y-113740000D02*
X211350000Y-114950000D01*
D36*
X202653000Y-70568670D02*
X201271670Y-71950000D01*
X205650000Y-75387500D02*
X205625000Y-75362500D01*
X211725000Y-66562500D02*
X211725000Y-69475000D01*
X201271670Y-71950000D02*
X201191948Y-71950000D01*
X202653000Y-69049000D02*
X202653000Y-70568670D01*
D39*
X199936209Y-113395223D02*
X198060000Y-111519014D01*
D36*
X198780000Y-143555000D02*
X201795000Y-143555000D01*
X202362500Y-74800000D02*
X205412500Y-74800000D01*
D37*
X202877500Y-97740000D02*
X202887500Y-97750000D01*
D39*
X199923410Y-113893590D02*
X199936209Y-113880791D01*
D36*
X205412500Y-74800000D02*
X205625000Y-75012500D01*
D39*
X198060000Y-111519014D02*
X198060000Y-110507500D01*
X200660000Y-130556000D02*
X201803000Y-130556000D01*
D36*
X198090000Y-152280000D02*
X198090000Y-144245000D01*
X210740000Y-147577000D02*
X210740000Y-146830000D01*
D39*
X205600000Y-79425000D02*
X205600000Y-75037500D01*
D36*
X211812500Y-66475000D02*
X211725000Y-66562500D01*
X205625000Y-75362500D02*
X205625000Y-75012500D01*
D37*
X202877500Y-97740000D02*
X201548956Y-97740000D01*
D40*
X203696500Y-61987500D02*
X205900000Y-61987500D01*
D36*
X203962000Y-149099500D02*
X204132500Y-149270000D01*
D39*
X203710000Y-134957500D02*
X203902500Y-135150000D01*
X213360000Y-110607500D02*
X213490000Y-110477500D01*
X203710000Y-130558000D02*
X203710000Y-134957500D01*
D40*
X200914000Y-64770000D02*
X203696500Y-61987500D01*
D36*
X205625000Y-77487500D02*
X204500000Y-78612500D01*
D39*
X200300000Y-130916000D02*
X200660000Y-130556000D01*
D36*
X198060000Y-152310000D02*
X198090000Y-152280000D01*
X209400000Y-61937500D02*
X209550000Y-61787500D01*
X200587200Y-74045252D02*
X201341948Y-74800000D01*
D38*
X204843920Y-130167038D02*
X204454958Y-130556000D01*
D36*
X203909169Y-147521169D02*
X203909169Y-147621000D01*
D39*
X199923410Y-115341410D02*
X199923410Y-113893590D01*
X211350000Y-114950000D02*
X211350000Y-116175000D01*
X203708000Y-130556000D02*
X202946000Y-130556000D01*
D36*
X202790000Y-146402000D02*
X202790000Y-142560000D01*
D37*
X204960000Y-97750000D02*
X204970000Y-97760000D01*
D36*
X203962000Y-147574000D02*
X202790000Y-146402000D01*
D40*
X211812500Y-64200000D02*
X209550000Y-61937500D01*
D36*
X204500000Y-78612500D02*
X202850000Y-78612500D01*
X205900000Y-61987500D02*
X205950000Y-61937500D01*
D39*
X199936209Y-113880791D02*
X199936209Y-113395223D01*
X201803000Y-130556000D02*
X202946000Y-130556000D01*
D40*
X211812500Y-66475000D02*
X211812500Y-64200000D01*
D36*
X198090000Y-144245000D02*
X198780000Y-143555000D01*
D39*
X205600000Y-75037500D02*
X205625000Y-75012500D01*
D36*
X203962000Y-147574000D02*
X203962000Y-149099500D01*
D40*
X209550000Y-61937500D02*
X209550000Y-61787500D01*
D39*
X200723500Y-116649500D02*
X199923410Y-115849410D01*
X199923410Y-115849410D02*
X199923410Y-115316000D01*
D36*
X202790000Y-142560000D02*
X202790000Y-137824000D01*
X202790000Y-137824000D02*
X203902500Y-136711500D01*
X200914000Y-67310000D02*
X202653000Y-69049000D01*
D38*
X204978000Y-130167038D02*
X204843920Y-130167038D01*
D36*
X201795000Y-143555000D02*
X202790000Y-142560000D01*
X209600000Y-148717000D02*
X210740000Y-147577000D01*
X201191948Y-71950000D02*
X200587200Y-72554748D01*
D37*
X201548956Y-97740000D02*
X201491601Y-97682645D01*
D36*
X203902500Y-136711500D02*
X203902500Y-135150000D01*
D39*
X203708000Y-130556000D02*
X203710000Y-130558000D01*
D40*
X205950000Y-61937500D02*
X209400000Y-61937500D01*
D39*
X201803000Y-116649500D02*
X200723500Y-116649500D01*
X203708000Y-116649500D02*
X201803000Y-116649500D01*
D37*
X203580000Y-97750000D02*
X204960000Y-97750000D01*
D36*
X201803000Y-116649500D02*
X201803000Y-130556000D01*
D39*
X205675000Y-79500000D02*
X205600000Y-79425000D01*
D41*
%TO.N,+5V*%
X201803000Y-133917000D02*
X201480000Y-134240000D01*
D36*
X202125000Y-80687500D02*
X201109000Y-79671500D01*
D41*
X203708000Y-126873000D02*
X203708000Y-128408000D01*
D38*
X212979000Y-140970000D02*
X212979000Y-143911000D01*
X212979000Y-143911000D02*
X212740000Y-144150000D01*
D41*
X203950000Y-125450000D02*
X203708000Y-125692000D01*
X210820000Y-125540000D02*
X210820000Y-127762000D01*
X203708000Y-128408000D02*
X203720000Y-128420000D01*
D38*
X210750000Y-129350000D02*
X210750000Y-130105000D01*
D36*
X206170000Y-95934000D02*
X204343000Y-94107000D01*
X201109000Y-79671500D02*
X201109000Y-77641000D01*
D41*
X200030000Y-125440000D02*
X200310000Y-125720000D01*
D36*
X198000000Y-83825000D02*
X198000000Y-83378288D01*
X201109000Y-77641000D02*
X202450000Y-76300000D01*
D41*
X200310000Y-125720000D02*
X200310000Y-128460000D01*
D36*
X202850000Y-80687500D02*
X202125000Y-80687500D01*
D41*
X200310000Y-128460000D02*
X200300000Y-128470000D01*
X201480000Y-134240000D02*
X201480000Y-135160000D01*
D36*
X202450000Y-76300000D02*
X203250000Y-76300000D01*
X198000000Y-83378288D02*
X200690788Y-80687500D01*
D41*
X205810000Y-133515001D02*
X205977500Y-133682501D01*
X199898000Y-125308000D02*
X200030000Y-125440000D01*
X210820000Y-129280000D02*
X210750000Y-129350000D01*
D36*
X197993000Y-83832000D02*
X198000000Y-83825000D01*
D41*
X205977500Y-133682501D02*
X205977500Y-139642500D01*
X199898000Y-123698000D02*
X199898000Y-125308000D01*
X210820000Y-127762000D02*
X210820000Y-129280000D01*
D38*
X210750000Y-130105000D02*
X211709000Y-131064000D01*
D36*
X206170000Y-105790000D02*
X206170000Y-95934000D01*
X201803000Y-112767000D02*
X204150000Y-110420000D01*
X197993000Y-89662000D02*
X197993000Y-83832000D01*
X201803000Y-113665000D02*
X201803000Y-112767000D01*
D41*
X203708000Y-123698000D02*
X203708000Y-125208000D01*
X205977500Y-139642500D02*
X206080000Y-139745000D01*
D36*
X204150000Y-110420000D02*
X204150000Y-107810000D01*
X200690788Y-80687500D02*
X202850000Y-80687500D01*
X198120000Y-89535000D02*
X197993000Y-89662000D01*
D41*
X203708000Y-125208000D02*
X203950000Y-125450000D01*
X201803000Y-132461000D02*
X201803000Y-133917000D01*
D36*
X204150000Y-107810000D02*
X206170000Y-105790000D01*
D41*
X203708000Y-125692000D02*
X203708000Y-126873000D01*
D36*
X204343000Y-94107000D02*
X203073000Y-94107000D01*
%TO.N,-12V*%
X205900000Y-64062500D02*
X205900000Y-65200000D01*
D37*
X208602500Y-98390000D02*
X209659868Y-98390000D01*
D36*
X207150000Y-66450000D02*
X209712500Y-66450000D01*
D41*
X211120000Y-98390000D02*
X209659868Y-98390000D01*
X211200000Y-98310000D02*
X211120000Y-98390000D01*
X211709000Y-98310000D02*
X211200000Y-98310000D01*
D38*
X213490000Y-107191000D02*
X213490000Y-108402500D01*
D36*
X205900000Y-65200000D02*
X207125000Y-66425000D01*
D41*
X211709000Y-104140000D02*
X211709000Y-105410000D01*
D36*
X210201000Y-67688500D02*
X210201000Y-70987842D01*
X209712500Y-66450000D02*
X209737500Y-66475000D01*
X207125000Y-66425000D02*
X207150000Y-66450000D01*
X210854158Y-71641000D02*
X214057000Y-71641000D01*
X214249000Y-85725000D02*
X209550000Y-90424000D01*
X214057000Y-71641000D02*
X214249000Y-71833000D01*
X214249000Y-71833000D02*
X214249000Y-85725000D01*
X210201000Y-70987842D02*
X210854158Y-71641000D01*
X209550000Y-90424000D02*
X209550000Y-94107000D01*
X209737500Y-66475000D02*
X209737500Y-67225000D01*
D38*
X211709000Y-105410000D02*
X213490000Y-107191000D01*
D36*
X209737500Y-67225000D02*
X210201000Y-67688500D01*
D41*
X211709000Y-98310000D02*
X211709000Y-104140000D01*
D36*
%TO.N,-5V*%
X207562500Y-77625000D02*
X208375000Y-76812500D01*
X208375000Y-73025000D02*
X208375000Y-69825000D01*
X208375000Y-76812500D02*
X208375000Y-73025000D01*
X200620000Y-90330000D02*
X198748000Y-92202000D01*
X205475000Y-69450000D02*
X208700000Y-69450000D01*
X198748000Y-92202000D02*
X197993000Y-92202000D01*
X208375000Y-69825000D02*
X208725000Y-69475000D01*
X208700000Y-69450000D02*
X208725000Y-69475000D01*
X200620000Y-88190000D02*
X200620000Y-90330000D01*
D42*
%TO.N,/MainBoard/MCU_ADC2*%
X198628000Y-122936000D02*
X199050000Y-122514000D01*
X201570000Y-137010000D02*
X201570000Y-141645000D01*
X200930000Y-142285000D02*
X198780000Y-142285000D01*
X199050000Y-120871288D02*
X198651512Y-120472800D01*
X199050000Y-122514000D02*
X199050000Y-120871288D01*
X196619800Y-103735200D02*
X197993000Y-102362000D01*
X198644088Y-120472800D02*
X196619800Y-118448512D01*
X196619800Y-118448512D02*
X196619800Y-103735200D01*
X198651512Y-120472800D02*
X198644088Y-120472800D01*
X201570000Y-141645000D02*
X200930000Y-142285000D01*
%TO.N,/MainBoard/MCU_ADC1*%
X207772000Y-140048042D02*
X207772000Y-138430000D01*
X207772000Y-133372000D02*
X206210000Y-131810000D01*
X205970000Y-121580000D02*
X205970000Y-125430000D01*
X206080000Y-141015000D02*
X206805042Y-141015000D01*
X207772000Y-138430000D02*
X207772000Y-133372000D01*
X205970000Y-125430000D02*
X205950000Y-125450000D01*
X206248000Y-125748000D02*
X206248000Y-131772000D01*
X206248000Y-131772000D02*
X206210000Y-131810000D01*
X206805042Y-141015000D02*
X207772000Y-140048042D01*
X205950000Y-125450000D02*
X206248000Y-125748000D01*
%TO.N,Net-(U2D-+)*%
X206160000Y-152110000D02*
X206160000Y-149129238D01*
X208762601Y-144637399D02*
X208762601Y-131419601D01*
X208690000Y-106700000D02*
X207320000Y-105330000D01*
X207330000Y-147959238D02*
X207330000Y-146070000D01*
X208280000Y-130937000D02*
X208280000Y-125222000D01*
X206180000Y-152130000D02*
X206160000Y-152110000D01*
X207320000Y-97870000D02*
X207450000Y-97740000D01*
X206160000Y-149129238D02*
X207330000Y-147959238D01*
X207330000Y-146070000D02*
X208762601Y-144637399D01*
X207391000Y-114070632D02*
X208690000Y-112771632D01*
X207450000Y-97740000D02*
X208602500Y-97740000D01*
X208690000Y-112771632D02*
X208690000Y-106700000D01*
X207320000Y-105330000D02*
X207320000Y-97870000D01*
X206180000Y-154480000D02*
X206180000Y-152130000D01*
X208762601Y-131419601D02*
X208280000Y-130937000D01*
X207391000Y-115660000D02*
X207391000Y-114070632D01*
D43*
%TO.N,Net-(D5-K)*%
X214410000Y-144719190D02*
X213709190Y-145420000D01*
X210180000Y-149870000D02*
X211567500Y-151257500D01*
X211567500Y-151257500D02*
X211567500Y-151760000D01*
X213709190Y-145420000D02*
X212527210Y-145420000D01*
X212527210Y-145420000D02*
X211646400Y-146300810D01*
X214410000Y-121235000D02*
X214410000Y-144719190D01*
X211646400Y-148363600D02*
X210180000Y-149830000D01*
X210180000Y-149830000D02*
X210180000Y-149870000D01*
X214410000Y-121235000D02*
X211600000Y-118425000D01*
D42*
X213850000Y-116175000D02*
X211600000Y-118425000D01*
D43*
X211646400Y-146300810D02*
X211646400Y-148363600D01*
D36*
%TO.N,Net-(D10-A)*%
X201475000Y-59700000D02*
X204625000Y-59700000D01*
X198374000Y-59690000D02*
X200914000Y-59690000D01*
X200914000Y-59690000D02*
X201465000Y-59690000D01*
X201465000Y-59690000D02*
X201475000Y-59700000D01*
%TO.N,Net-(D11-K)*%
X204625000Y-67200000D02*
X204625000Y-66425000D01*
X203700000Y-68125000D02*
X204625000Y-67200000D01*
D42*
%TO.N,/MainBoard/MCU_PB0*%
X212740000Y-133830000D02*
X211670000Y-134900000D01*
X211670000Y-137150000D02*
X212950000Y-138430000D01*
X209722500Y-154460000D02*
X209070000Y-154460000D01*
X207788000Y-143536000D02*
X207788000Y-143662000D01*
X207788000Y-143536000D02*
X207769000Y-143555000D01*
X213360000Y-132070000D02*
X212740000Y-132690000D01*
X212950000Y-138430000D02*
X212979000Y-138430000D01*
X212750000Y-129350000D02*
X213360000Y-129960000D01*
X212740000Y-132690000D02*
X212740000Y-133830000D01*
X207788000Y-143662000D02*
X205410000Y-146040000D01*
X211670000Y-134900000D02*
X211670000Y-137150000D01*
X209070000Y-154460000D02*
X207772000Y-153162000D01*
X207769000Y-143555000D02*
X206080000Y-143555000D01*
X213360000Y-129960000D02*
X213360000Y-132070000D01*
%TO.N,Net-(R4-Pad1)*%
X209510000Y-112988000D02*
X208370000Y-114128000D01*
X207051000Y-120269000D02*
X204089000Y-120269000D01*
X208370000Y-114128000D02*
X208370000Y-116810000D01*
X203970000Y-120388000D02*
X203970000Y-121580000D01*
X204089000Y-120269000D02*
X203970000Y-120388000D01*
X208370000Y-116810000D02*
X207780000Y-117400000D01*
X208602500Y-102157500D02*
X208600000Y-102160000D01*
X208602500Y-100340000D02*
X208602500Y-102157500D01*
X207780000Y-117400000D02*
X207780000Y-119540000D01*
X209510000Y-109170000D02*
X209510000Y-112988000D01*
X207780000Y-119540000D02*
X207051000Y-120269000D01*
D44*
%TO.N,Net-(R10-Pad1)*%
X199898000Y-121378000D02*
X200050000Y-121530000D01*
X202870000Y-104010000D02*
X202870000Y-103960000D01*
X202090000Y-103180000D02*
X202090000Y-101127500D01*
X202870000Y-103960000D02*
X202090000Y-103180000D01*
X199898000Y-118472000D02*
X200100000Y-118270000D01*
X199898000Y-120269000D02*
X199898000Y-118472000D01*
X199898000Y-120269000D02*
X199898000Y-121378000D01*
X202090000Y-101127500D02*
X202877500Y-100340000D01*
D42*
%TO.N,/MainBoard/MCU_PWM*%
X201200000Y-152300000D02*
X200633000Y-152300000D01*
X200633000Y-152300000D02*
X198623000Y-154310000D01*
X207790000Y-142370000D02*
X207780000Y-142380000D01*
X198623000Y-154310000D02*
X198060000Y-154310000D01*
X203997000Y-152273000D02*
X204160000Y-152110000D01*
X201227000Y-152273000D02*
X203997000Y-152273000D01*
X201200000Y-152300000D02*
X201227000Y-152273000D01*
X207780000Y-142380000D02*
X206175000Y-142380000D01*
X206175000Y-142380000D02*
X206080000Y-142285000D01*
%TO.N,/MainBoard/MCU_ADC3*%
X197810000Y-125660000D02*
X197810000Y-131820000D01*
D44*
X197572800Y-132057200D02*
X197800000Y-131830000D01*
D42*
X198050000Y-121530000D02*
X197690000Y-121890000D01*
X197810000Y-131820000D02*
X197800000Y-131830000D01*
X197690000Y-125100000D02*
X198030000Y-125440000D01*
D44*
X197572800Y-140217958D02*
X197572800Y-132057200D01*
X198780000Y-141015000D02*
X198369842Y-141015000D01*
D42*
X197690000Y-121890000D02*
X197690000Y-125100000D01*
X198030000Y-125440000D02*
X197810000Y-125660000D01*
D44*
X198369842Y-141015000D02*
X197572800Y-140217958D01*
D42*
%TO.N,/MainBoard/OUT*%
X210312000Y-84074000D02*
X207916000Y-84074000D01*
X209630000Y-96440000D02*
X208602500Y-96440000D01*
X207060000Y-84930000D02*
X205255000Y-84930000D01*
X211824199Y-91324801D02*
X211824199Y-94245801D01*
X205255000Y-84930000D02*
X204200000Y-83875000D01*
X211824199Y-94245801D02*
X209630000Y-96440000D01*
X213487000Y-89662000D02*
X211824199Y-91324801D01*
X207916000Y-84074000D02*
X207060000Y-84930000D01*
X202380000Y-85695000D02*
X202380000Y-86100000D01*
X204200000Y-83875000D02*
X202380000Y-85695000D01*
%TO.N,/MainBoard/CLK_TRG*%
X214884000Y-103759000D02*
X214884000Y-117141000D01*
X214884000Y-117141000D02*
X213600000Y-118425000D01*
X213487000Y-102362000D02*
X214884000Y-103759000D01*
D44*
%TO.N,/MainBoard/P2_AVG*%
X201782800Y-99807200D02*
X201782800Y-99400620D01*
X197993000Y-104902000D02*
X201200000Y-101695000D01*
X201782800Y-99400620D02*
X202143420Y-99040000D01*
X201200000Y-100390000D02*
X201782800Y-99807200D01*
X202143420Y-99040000D02*
X202877500Y-99040000D01*
X201200000Y-101695000D02*
X201200000Y-100390000D01*
D42*
%TO.N,/MainBoard/P1_AVG*%
X208665300Y-99102800D02*
X208602500Y-99040000D01*
X209542800Y-99102800D02*
X208665300Y-99102800D01*
X210550000Y-100110000D02*
X209542800Y-99102800D01*
X210550000Y-101670000D02*
X210550000Y-100110000D01*
%TO.N,Net-(JP2-Pad1)*%
X203820000Y-154840000D02*
X204180000Y-154480000D01*
X201200000Y-154840000D02*
X203820000Y-154840000D01*
%TO.N,/MainBoard/MCU_RESET*%
X199915000Y-138025000D02*
X199915000Y-138610000D01*
X199480000Y-137590000D02*
X199480000Y-135160000D01*
X199915000Y-138610000D02*
X198780000Y-139745000D01*
X199915000Y-138025000D02*
X199480000Y-137590000D01*
%TO.N,/MainBoard/LED_POS*%
X201790000Y-96860000D02*
X200780000Y-96860000D01*
X203920000Y-95380000D02*
X204350000Y-95810000D01*
X204350000Y-96480000D02*
X203740000Y-97090000D01*
X202020000Y-97090000D02*
X201790000Y-96860000D01*
X204350000Y-95810000D02*
X204350000Y-96480000D01*
X203740000Y-97090000D02*
X202020000Y-97090000D01*
X197993000Y-99647000D02*
X197993000Y-99822000D01*
X200780000Y-96860000D02*
X197993000Y-99647000D01*
D44*
%TO.N,/MainBoard/LED_NEG*%
X197993000Y-97282000D02*
X199128000Y-97282000D01*
X202287500Y-95850000D02*
X202877500Y-96440000D01*
X199128000Y-97282000D02*
X200404800Y-96005200D01*
X200404800Y-96005200D02*
X200520901Y-96005200D01*
X200676101Y-95850000D02*
X202287500Y-95850000D01*
X200520901Y-96005200D02*
X200676101Y-95850000D01*
D37*
%TO.N,/MainBoard/CLK_LED*%
X210802500Y-122550000D02*
X209380000Y-121127500D01*
X209380000Y-114724000D02*
X211455000Y-112649000D01*
X209380000Y-121127500D02*
X209380000Y-114724000D01*
X211455000Y-112649000D02*
X211455000Y-106807000D01*
D42*
%TO.N,Net-(U2D--)*%
X200000000Y-83825000D02*
X202150000Y-83825000D01*
D44*
X207267800Y-96880800D02*
X207494200Y-97107200D01*
D42*
X206025000Y-83850000D02*
X206025000Y-82900000D01*
D44*
X207270000Y-96158420D02*
X207267800Y-96160620D01*
D42*
X203325000Y-82000000D02*
X202200000Y-83125000D01*
D44*
X207267800Y-96160620D02*
X207267800Y-96880800D01*
X208362500Y-97100000D02*
X207501400Y-97100000D01*
X207501400Y-97100000D02*
X207494200Y-97107200D01*
D42*
X205125000Y-82000000D02*
X203325000Y-82000000D01*
X210196000Y-81650000D02*
X210312000Y-81534000D01*
X206875000Y-83850000D02*
X209075000Y-81650000D01*
X206025000Y-82900000D02*
X205125000Y-82000000D01*
D37*
X202150000Y-83825000D02*
X202200000Y-83875000D01*
D44*
X207270000Y-93974000D02*
X207270000Y-96158420D01*
X208153000Y-93091000D02*
X207270000Y-93974000D01*
D42*
X209075000Y-81650000D02*
X210196000Y-81650000D01*
X206025000Y-83850000D02*
X206875000Y-83850000D01*
X202200000Y-83125000D02*
X202200000Y-83875000D01*
D44*
X208153000Y-89535000D02*
X208153000Y-93091000D01*
D43*
%TO.N,Net-(Q1-C)*%
X209692500Y-153042500D02*
X211597500Y-154947500D01*
X211597500Y-154947500D02*
X211597500Y-155410000D01*
X210740000Y-144150000D02*
X210740000Y-144550000D01*
X210740000Y-144550000D02*
X208480000Y-146810000D01*
X208480000Y-146810000D02*
X208480000Y-149460000D01*
X208480000Y-149460000D02*
X209692500Y-150672500D01*
X209692500Y-150672500D02*
X209692500Y-153042500D01*
D42*
%TO.N,Net-(Q1-E)*%
X213100000Y-148327500D02*
X213100000Y-147190000D01*
X212380000Y-153510000D02*
X211597500Y-153510000D01*
X213100000Y-147190000D02*
X212740000Y-146830000D01*
X211567500Y-149860000D02*
X212400000Y-149860000D01*
X211567500Y-149860000D02*
X213100000Y-148327500D01*
X213170000Y-152720000D02*
X212380000Y-153510000D01*
X213170000Y-150630000D02*
X213170000Y-152720000D01*
X212400000Y-149860000D02*
X213170000Y-150630000D01*
D43*
%TO.N,Net-(Q3-B)*%
X209410000Y-124560000D02*
X210080000Y-123890000D01*
X210740000Y-132690000D02*
X210740000Y-132050000D01*
X212090000Y-122390000D02*
X211906400Y-122206400D01*
X210080000Y-123890000D02*
X211410000Y-123890000D01*
X211410000Y-123890000D02*
X212090000Y-123210000D01*
X211906400Y-122206400D02*
X211900952Y-122206400D01*
X211900952Y-122206400D02*
X210802500Y-121107948D01*
X210740000Y-132050000D02*
X209410000Y-130720000D01*
X210802500Y-121107948D02*
X210802500Y-120650000D01*
X209410000Y-130720000D02*
X209410000Y-124560000D01*
X212090000Y-123210000D02*
X212090000Y-122390000D01*
D42*
%TO.N,Net-(Q3-C)*%
X213330000Y-125380000D02*
X213320000Y-125390000D01*
X213330000Y-122252500D02*
X213330000Y-125380000D01*
X212677500Y-121600000D02*
X213330000Y-122252500D01*
%TO.N,Net-(U2C--)*%
X209410000Y-104790000D02*
X208680000Y-104790000D01*
X208630000Y-104740000D02*
X208630000Y-104690000D01*
X207470000Y-109150000D02*
X207470000Y-111280000D01*
X209690000Y-100040000D02*
X209690000Y-104510000D01*
X205680000Y-113070000D02*
X205680000Y-115060000D01*
X209690000Y-104510000D02*
X209410000Y-104790000D01*
X205680000Y-117500000D02*
X205670000Y-117510000D01*
X208580000Y-104690000D02*
X208620000Y-104730000D01*
X209340000Y-99690000D02*
X209690000Y-100040000D01*
X208602500Y-99690000D02*
X209340000Y-99690000D01*
X205680000Y-115060000D02*
X205680000Y-117500000D01*
X208680000Y-104790000D02*
X208630000Y-104740000D01*
X208630000Y-104690000D02*
X208580000Y-104690000D01*
X207470000Y-111280000D02*
X205680000Y-113070000D01*
%TO.N,Net-(U2B--)*%
X197358000Y-113919000D02*
X197358000Y-115168000D01*
X197358000Y-115168000D02*
X198110000Y-115920000D01*
X198100000Y-118270000D02*
X198100000Y-115930000D01*
X202870000Y-102160000D02*
X204310000Y-100720000D01*
X198100000Y-115930000D02*
X198110000Y-115920000D01*
X204310000Y-99950000D02*
X204050000Y-99690000D01*
X204310000Y-100720000D02*
X204310000Y-99950000D01*
X204050000Y-99690000D02*
X202877500Y-99690000D01*
%TD*%
M02*
