M48
INCH
T1C0.0157
T2C0.0160
T3C0.0240
T4C0.0276
T5C0.0394
%
G90
G05
T1
X8.0197Y-2.6821
T2
X7.77Y-4.485
X7.82Y-4.84
X7.87Y-4.735
X7.87Y-4.87
X7.8707Y-5.4341
X7.8804Y-3.7457
X7.8804Y-3.9283
X7.8804Y-4.2082
X7.8984Y-3.472
X7.9327Y-3.8458
X7.9358Y-5.3941
X7.945Y-4.475
X7.945Y-5.215
X7.987Y-4.022
X7.987Y-4.0949
X7.995Y-3.705
X8.02Y-4.87
X8.02Y-4.995
X8.0283Y-3.7551
X8.0697Y-3.8488
X8.087Y-5.7496
X8.0896Y-2.7343
X8.1028Y-5.2565
X8.1112Y-3.3012
X8.1315Y-5.6512
X8.1388Y-2.7923
X8.165Y-4.5535
X8.1681Y-4.2972
X8.18Y-5.45
X8.18Y-6.03
X8.1807Y-5.6051
X8.195Y-3.525
X8.2Y-4.93
X8.2126Y-4.022
X8.2138Y-4.1217
X8.2484Y-4.298
X8.25Y-3.705
X8.2894Y-4.0028
X8.3Y-5.03
X8.325Y-4.205
X8.3297Y-2.3514
X8.335Y-3.8705
X8.335Y-5.16
X8.3711Y-3.1093
T3
X8.02Y-4.5925
X8.03Y-5.81
X8.07Y-5.1247
X8.0974Y-3.1299
X8.252Y-5.855
X8.4Y-4.478
T4
X7.8677Y-3.3898
X7.9677Y-3.3898
X8.2984Y-4.9366
X8.3984Y-4.9366
T5
X7.795Y-3.53
X7.795Y-3.63
X7.795Y-3.73
X7.795Y-3.83
X7.795Y-3.93
X7.795Y-4.03
X7.795Y-4.13
X7.81Y-2.35
X7.81Y-2.45
X7.81Y-2.55
X7.81Y-2.65
X7.81Y-2.75
X7.91Y-2.35
X7.91Y-2.45
X7.91Y-2.55
X7.91Y-2.65
X7.91Y-2.75
X7.9213Y-5.9961
X7.9213Y-6.0961
X8.28Y-3.21
X8.28Y-3.31
X8.285Y-5.35
X8.285Y-5.45
X8.285Y-5.55
X8.385Y-5.35
X8.385Y-5.45
X8.385Y-5.55
X8.405Y-3.53
X8.405Y-3.63
X8.405Y-3.73
X8.405Y-3.83
X8.405Y-3.93
X8.405Y-4.03
X8.405Y-4.13
T0
M30
