%TF.GenerationSoftware,KiCad,Pcbnew,7.0.8*%
%TF.CreationDate,2024-02-10T19:52:59+11:00*%
%TF.ProjectId,JNTUB,4a4e5455-422e-46b6-9963-61645f706362,rev?*%
%TF.SameCoordinates,Original*%
%TF.FileFunction,Paste,Top*%
%TF.FilePolarity,Positive*%
%FSLAX46Y46*%
G04 Gerber Fmt 4.6, Leading zero omitted, Abs format (unit mm)*
G04 Created by KiCad (PCBNEW 7.0.8) date 2024-02-10 19:52:59*
%MOMM*%
%LPD*%
G01*
G04 APERTURE LIST*
G04 Aperture macros list*
%AMRoundRect*
0 Rectangle with rounded corners*
0 $1 Rounding radius*
0 $2 $3 $4 $5 $6 $7 $8 $9 X,Y pos of 4 corners*
0 Add a 4 corners polygon primitive as box body*
4,1,4,$2,$3,$4,$5,$6,$7,$8,$9,$2,$3,0*
0 Add four circle primitives for the rounded corners*
1,1,$1+$1,$2,$3*
1,1,$1+$1,$4,$5*
1,1,$1+$1,$6,$7*
1,1,$1+$1,$8,$9*
0 Add four rect primitives between the rounded corners*
20,1,$1+$1,$2,$3,$4,$5,0*
20,1,$1+$1,$4,$5,$6,$7,0*
20,1,$1+$1,$6,$7,$8,$9,0*
20,1,$1+$1,$8,$9,$2,$3,0*%
%AMFreePoly0*
4,1,9,5.362500,-0.866500,1.237500,-0.866500,1.237500,-0.450000,-1.237500,-0.450000,-1.237500,0.450000,1.237500,0.450000,1.237500,0.866500,5.362500,0.866500,5.362500,-0.866500,5.362500,-0.866500,$1*%
G04 Aperture macros list end*
%ADD10RoundRect,0.250000X-0.475000X0.337500X-0.475000X-0.337500X0.475000X-0.337500X0.475000X0.337500X0*%
%ADD11RoundRect,0.250000X-0.250000X-0.250000X0.250000X-0.250000X0.250000X0.250000X-0.250000X0.250000X0*%
%ADD12RoundRect,0.250000X-0.350000X-0.450000X0.350000X-0.450000X0.350000X0.450000X-0.350000X0.450000X0*%
%ADD13RoundRect,0.250000X0.350000X0.450000X-0.350000X0.450000X-0.350000X-0.450000X0.350000X-0.450000X0*%
%ADD14RoundRect,0.250000X-0.337500X-0.475000X0.337500X-0.475000X0.337500X0.475000X-0.337500X0.475000X0*%
%ADD15R,0.900000X2.300000*%
%ADD16FreePoly0,270.000000*%
%ADD17RoundRect,0.250000X0.337500X0.475000X-0.337500X0.475000X-0.337500X-0.475000X0.337500X-0.475000X0*%
%ADD18RoundRect,0.150000X-0.825000X-0.150000X0.825000X-0.150000X0.825000X0.150000X-0.825000X0.150000X0*%
%ADD19R,2.300000X0.900000*%
%ADD20FreePoly0,180.000000*%
%ADD21RoundRect,0.100000X-0.637500X-0.100000X0.637500X-0.100000X0.637500X0.100000X-0.637500X0.100000X0*%
%ADD22RoundRect,0.150000X0.587500X0.150000X-0.587500X0.150000X-0.587500X-0.150000X0.587500X-0.150000X0*%
%ADD23RoundRect,0.250000X0.450000X-0.350000X0.450000X0.350000X-0.450000X0.350000X-0.450000X-0.350000X0*%
%ADD24RoundRect,0.150000X-0.587500X-0.150000X0.587500X-0.150000X0.587500X0.150000X-0.587500X0.150000X0*%
%ADD25RoundRect,0.250000X0.250000X0.250000X-0.250000X0.250000X-0.250000X-0.250000X0.250000X-0.250000X0*%
%ADD26RoundRect,0.250000X0.475000X-0.337500X0.475000X0.337500X-0.475000X0.337500X-0.475000X-0.337500X0*%
G04 APERTURE END LIST*
D10*
%TO.C,C2*%
X205900000Y-61987500D03*
X205900000Y-64062500D03*
%TD*%
D11*
%TO.C,D11*%
X204625000Y-66425000D03*
X207125000Y-66425000D03*
%TD*%
%TO.C,D1*%
X203720000Y-128420000D03*
X206220000Y-128420000D03*
%TD*%
D12*
%TO.C,R4*%
X203970000Y-121580000D03*
X205970000Y-121580000D03*
%TD*%
%TO.C,R13*%
X210740000Y-144150000D03*
X212740000Y-144150000D03*
%TD*%
D13*
%TO.C,R26*%
X201480000Y-135160000D03*
X199480000Y-135160000D03*
%TD*%
D10*
%TO.C,C8*%
X198060000Y-108432500D03*
X198060000Y-110507500D03*
%TD*%
D12*
%TO.C,R25*%
X202200000Y-83875000D03*
X204200000Y-83875000D03*
%TD*%
D11*
%TO.C,D4*%
X197800000Y-131830000D03*
X200300000Y-131830000D03*
%TD*%
D14*
%TO.C,C6*%
X205487500Y-77625000D03*
X207562500Y-77625000D03*
%TD*%
D12*
%TO.C,R24*%
X198000000Y-83825000D03*
X200000000Y-83825000D03*
%TD*%
D15*
%TO.C,U4*%
X211725000Y-69475000D03*
D16*
X210225000Y-69562500D03*
D15*
X208725000Y-69475000D03*
%TD*%
D10*
%TO.C,C1*%
X209550000Y-59712500D03*
X209550000Y-61787500D03*
%TD*%
D17*
%TO.C,C10*%
X205977500Y-135150000D03*
X203902500Y-135150000D03*
%TD*%
D12*
%TO.C,R2*%
X203950000Y-125450000D03*
X205950000Y-125450000D03*
%TD*%
D18*
%TO.C,U1*%
X199955000Y-139745000D03*
X199955000Y-141015000D03*
X199955000Y-142285000D03*
X199955000Y-143555000D03*
X204905000Y-143555000D03*
X204905000Y-142285000D03*
X204905000Y-141015000D03*
X204905000Y-139745000D03*
%TD*%
D19*
%TO.C,U3*%
X202450000Y-76300000D03*
D20*
X202362500Y-74800000D03*
D19*
X202450000Y-73300000D03*
%TD*%
D21*
%TO.C,U2*%
X202877500Y-96440000D03*
X202877500Y-97090000D03*
X202877500Y-97740000D03*
X202877500Y-98390000D03*
X202877500Y-99040000D03*
X202877500Y-99690000D03*
X202877500Y-100340000D03*
X208602500Y-100340000D03*
X208602500Y-99690000D03*
X208602500Y-99040000D03*
X208602500Y-98390000D03*
X208602500Y-97740000D03*
X208602500Y-97090000D03*
X208602500Y-96440000D03*
%TD*%
D12*
%TO.C,R18*%
X210740000Y-146830000D03*
X212740000Y-146830000D03*
%TD*%
D22*
%TO.C,Q1*%
X211567500Y-151760000D03*
X211567500Y-149860000D03*
X209692500Y-150810000D03*
%TD*%
%TO.C,Q2*%
X211597500Y-155410000D03*
X211597500Y-153510000D03*
X209722500Y-154460000D03*
%TD*%
D23*
%TO.C,R28*%
X198060000Y-154310000D03*
X198060000Y-152310000D03*
%TD*%
D12*
%TO.C,R27*%
X204180000Y-154480000D03*
X206180000Y-154480000D03*
%TD*%
%TO.C,R22*%
X204160000Y-152110000D03*
X206160000Y-152110000D03*
%TD*%
%TO.C,R20*%
X210740000Y-132690000D03*
X212740000Y-132690000D03*
%TD*%
D24*
%TO.C,Q3*%
X210802500Y-120650000D03*
X210802500Y-122550000D03*
X212677500Y-121600000D03*
%TD*%
D12*
%TO.C,R16*%
X211600000Y-118425000D03*
X213600000Y-118425000D03*
%TD*%
D25*
%TO.C,D5*%
X213850000Y-116175000D03*
X211350000Y-116175000D03*
%TD*%
D26*
%TO.C,C9*%
X213490000Y-110477500D03*
X213490000Y-108402500D03*
%TD*%
D12*
%TO.C,R5*%
X203680000Y-115060000D03*
X205680000Y-115060000D03*
%TD*%
%TO.C,R6*%
X205670000Y-117510000D03*
X207670000Y-117510000D03*
%TD*%
D13*
%TO.C,R11*%
X200110000Y-115920000D03*
X198110000Y-115920000D03*
%TD*%
%TO.C,R12*%
X200100000Y-118270000D03*
X198100000Y-118270000D03*
%TD*%
%TO.C,R10*%
X200050000Y-121530000D03*
X198050000Y-121530000D03*
%TD*%
%TO.C,R8*%
X200030000Y-125440000D03*
X198030000Y-125440000D03*
%TD*%
D25*
%TO.C,D3*%
X200300000Y-128470000D03*
X197800000Y-128470000D03*
%TD*%
%TO.C,D2*%
X206210000Y-131810000D03*
X203710000Y-131810000D03*
%TD*%
D12*
%TO.C,R14*%
X210750000Y-129350000D03*
X212750000Y-129350000D03*
%TD*%
D25*
%TO.C,D10*%
X207125000Y-59700000D03*
X204625000Y-59700000D03*
%TD*%
D26*
%TO.C,C4*%
X202850000Y-80687500D03*
X202850000Y-78612500D03*
%TD*%
D17*
%TO.C,C12*%
X206207500Y-149270000D03*
X204132500Y-149270000D03*
%TD*%
%TO.C,C5*%
X211812500Y-66475000D03*
X209737500Y-66475000D03*
%TD*%
D10*
%TO.C,C3*%
X205625000Y-72937500D03*
X205625000Y-75012500D03*
%TD*%
M02*
