%TF.GenerationSoftware,KiCad,Pcbnew,7.0.8*%
%TF.CreationDate,2024-02-10T19:54:04+11:00*%
%TF.ProjectId,JNTUB,4a4e5455-422e-46b6-9963-61645f706362,rev?*%
%TF.SameCoordinates,Original*%
%TF.FileFunction,Soldermask,Bot*%
%TF.FilePolarity,Negative*%
%FSLAX46Y46*%
G04 Gerber Fmt 4.6, Leading zero omitted, Abs format (unit mm)*
G04 Created by KiCad (PCBNEW 7.0.8) date 2024-02-10 19:54:04*
%MOMM*%
%LPD*%
G01*
G04 APERTURE LIST*
%ADD10R,1.800000X1.800000*%
%ADD11C,1.800000*%
%ADD12R,1.700000X1.700000*%
%ADD13O,1.700000X1.700000*%
%ADD14O,1.400000X1.400000*%
%ADD15C,1.400000*%
%ADD16C,3.000000*%
%ADD17C,2.000000*%
%ADD18C,2.100000*%
%ADD19O,2.500000X2.800000*%
%ADD20C,3.200000*%
G04 APERTURE END LIST*
D10*
%TO.C,D6*%
X226314000Y-126238000D03*
D11*
X228854000Y-126238000D03*
%TD*%
D12*
%TO.C,J7*%
X219837000Y-91694000D03*
D13*
X219837000Y-94234000D03*
X219837000Y-96774000D03*
X219837000Y-99314000D03*
X219837000Y-101854000D03*
X219837000Y-104394000D03*
X219837000Y-106934000D03*
%TD*%
D14*
%TO.C,R7*%
X222450000Y-64390000D03*
D15*
X222450000Y-72010000D03*
%TD*%
%TO.C,R29*%
X230320000Y-111720000D03*
D14*
X222700000Y-111720000D03*
%TD*%
D16*
%TO.C,J3*%
X222504000Y-132588000D03*
D17*
X222504000Y-129208000D03*
X222504000Y-137508000D03*
%TD*%
D16*
%TO.C,J1*%
X222504000Y-119888000D03*
D17*
X222504000Y-126368000D03*
X222504000Y-123268000D03*
X222504000Y-114968000D03*
%TD*%
D18*
%TO.C,RV1*%
X225084000Y-108592000D03*
X227584000Y-108592000D03*
X230084000Y-108592000D03*
D19*
X222384000Y-101092000D03*
X232784000Y-101092000D03*
%TD*%
D11*
%TO.C,D8*%
X226314000Y-155448000D03*
D10*
X228854000Y-155448000D03*
%TD*%
D16*
%TO.C,J5*%
X222504000Y-145288000D03*
D17*
X222504000Y-151768000D03*
X222504000Y-148668000D03*
X222504000Y-140368000D03*
%TD*%
D16*
%TO.C,J2*%
X232664000Y-119888000D03*
D17*
X232664000Y-126368000D03*
X232664000Y-123268000D03*
X232664000Y-114968000D03*
%TD*%
D16*
%TO.C,J6*%
X232664000Y-145288000D03*
D17*
X232664000Y-151768000D03*
X232664000Y-148668000D03*
X232664000Y-140368000D03*
%TD*%
D20*
%TO.C,H1*%
X227605001Y-92756001D03*
%TD*%
D16*
%TO.C,J4*%
X232664000Y-132588000D03*
D17*
X232664000Y-129208000D03*
X232664000Y-137508000D03*
%TD*%
D18*
%TO.C,RV2*%
X225084000Y-88272000D03*
X227584000Y-88272000D03*
X230084000Y-88272000D03*
D19*
X222384000Y-80772000D03*
X232784000Y-80772000D03*
%TD*%
D12*
%TO.C,J8*%
X235331000Y-91694000D03*
D13*
X235331000Y-94234000D03*
X235331000Y-96774000D03*
X235331000Y-99314000D03*
X235331000Y-101854000D03*
X235331000Y-104394000D03*
X235331000Y-106934000D03*
%TD*%
D10*
%TO.C,D7*%
X226314000Y-151638000D03*
D11*
X228854000Y-151638000D03*
%TD*%
D18*
%TO.C,RV3*%
X225084000Y-67952000D03*
X227584000Y-67952000D03*
X230084000Y-67952000D03*
D19*
X222384000Y-60452000D03*
X232784000Y-60452000D03*
%TD*%
D14*
%TO.C,R3*%
X234490000Y-71990000D03*
D15*
X226870000Y-71990000D03*
%TD*%
%TO.C,R1*%
X220090000Y-74510000D03*
D14*
X227710000Y-74510000D03*
%TD*%
%TO.C,R9*%
X219980000Y-64390000D03*
D15*
X219980000Y-72010000D03*
%TD*%
D14*
%TO.C,R15*%
X235280000Y-151720000D03*
D15*
X235280000Y-154260000D03*
%TD*%
%TO.C,R17*%
X220180000Y-151740000D03*
D14*
X220180000Y-154280000D03*
%TD*%
D15*
%TO.C,R21*%
X232540000Y-112480000D03*
D14*
X232540000Y-109940000D03*
%TD*%
M02*
