%TF.GenerationSoftware,KiCad,Pcbnew,7.0.8*%
%TF.CreationDate,2024-02-10T19:54:04+11:00*%
%TF.ProjectId,JNTUB,4a4e5455-422e-46b6-9963-61645f706362,rev?*%
%TF.SameCoordinates,Original*%
%TF.FileFunction,Legend,Top*%
%TF.FilePolarity,Positive*%
%FSLAX46Y46*%
G04 Gerber Fmt 4.6, Leading zero omitted, Abs format (unit mm)*
G04 Created by KiCad (PCBNEW 7.0.8) date 2024-02-10 19:54:04*
%MOMM*%
%LPD*%
G01*
G04 APERTURE LIST*
%ADD10C,0.150000*%
%ADD11C,0.200000*%
%ADD12C,0.120000*%
%ADD13R,1.800000X1.800000*%
%ADD14C,1.800000*%
%ADD15R,1.700000X1.700000*%
%ADD16O,1.700000X1.700000*%
%ADD17O,1.400000X1.400000*%
%ADD18C,1.400000*%
%ADD19C,3.000000*%
%ADD20C,2.000000*%
%ADD21C,2.100000*%
%ADD22O,2.500000X2.800000*%
%ADD23C,3.200000*%
G04 APERTURE END LIST*
D10*
X235489810Y-103410104D02*
X235451714Y-103448200D01*
X235451714Y-103448200D02*
X235337429Y-103486295D01*
X235337429Y-103486295D02*
X235261238Y-103486295D01*
X235261238Y-103486295D02*
X235146952Y-103448200D01*
X235146952Y-103448200D02*
X235070762Y-103372009D01*
X235070762Y-103372009D02*
X235032667Y-103295819D01*
X235032667Y-103295819D02*
X234994571Y-103143438D01*
X234994571Y-103143438D02*
X234994571Y-103029152D01*
X234994571Y-103029152D02*
X235032667Y-102876771D01*
X235032667Y-102876771D02*
X235070762Y-102800580D01*
X235070762Y-102800580D02*
X235146952Y-102724390D01*
X235146952Y-102724390D02*
X235261238Y-102686295D01*
X235261238Y-102686295D02*
X235337429Y-102686295D01*
X235337429Y-102686295D02*
X235451714Y-102724390D01*
X235451714Y-102724390D02*
X235489810Y-102762485D01*
X236213619Y-103486295D02*
X235832667Y-103486295D01*
X235832667Y-103486295D02*
X235832667Y-102686295D01*
X236480286Y-103486295D02*
X236480286Y-102686295D01*
X236937429Y-103486295D02*
X236594571Y-103029152D01*
X236937429Y-102686295D02*
X236480286Y-103143438D01*
X235756524Y-106026295D02*
X235756524Y-105226295D01*
X235756524Y-105226295D02*
X236061286Y-105226295D01*
X236061286Y-105226295D02*
X236137476Y-105264390D01*
X236137476Y-105264390D02*
X236175571Y-105302485D01*
X236175571Y-105302485D02*
X236213667Y-105378676D01*
X236213667Y-105378676D02*
X236213667Y-105492961D01*
X236213667Y-105492961D02*
X236175571Y-105569152D01*
X236175571Y-105569152D02*
X236137476Y-105607247D01*
X236137476Y-105607247D02*
X236061286Y-105645342D01*
X236061286Y-105645342D02*
X235756524Y-105645342D01*
X236975571Y-106026295D02*
X236518428Y-106026295D01*
X236747000Y-106026295D02*
X236747000Y-105226295D01*
X236747000Y-105226295D02*
X236670809Y-105340580D01*
X236670809Y-105340580D02*
X236594619Y-105416771D01*
X236594619Y-105416771D02*
X236518428Y-105454866D01*
X236194619Y-100946295D02*
X235813667Y-100946295D01*
X235813667Y-100946295D02*
X235813667Y-100146295D01*
X236918429Y-100870104D02*
X236880333Y-100908200D01*
X236880333Y-100908200D02*
X236766048Y-100946295D01*
X236766048Y-100946295D02*
X236689857Y-100946295D01*
X236689857Y-100946295D02*
X236575571Y-100908200D01*
X236575571Y-100908200D02*
X236499381Y-100832009D01*
X236499381Y-100832009D02*
X236461286Y-100755819D01*
X236461286Y-100755819D02*
X236423190Y-100603438D01*
X236423190Y-100603438D02*
X236423190Y-100489152D01*
X236423190Y-100489152D02*
X236461286Y-100336771D01*
X236461286Y-100336771D02*
X236499381Y-100260580D01*
X236499381Y-100260580D02*
X236575571Y-100184390D01*
X236575571Y-100184390D02*
X236689857Y-100146295D01*
X236689857Y-100146295D02*
X236766048Y-100146295D01*
X236766048Y-100146295D02*
X236880333Y-100184390D01*
X236880333Y-100184390D02*
X236918429Y-100222485D01*
X235166000Y-89859295D02*
X235318381Y-89859295D01*
X235318381Y-89859295D02*
X235394571Y-89897390D01*
X235394571Y-89897390D02*
X235470762Y-89973580D01*
X235470762Y-89973580D02*
X235508857Y-90125961D01*
X235508857Y-90125961D02*
X235508857Y-90392628D01*
X235508857Y-90392628D02*
X235470762Y-90545009D01*
X235470762Y-90545009D02*
X235394571Y-90621200D01*
X235394571Y-90621200D02*
X235318381Y-90659295D01*
X235318381Y-90659295D02*
X235166000Y-90659295D01*
X235166000Y-90659295D02*
X235089809Y-90621200D01*
X235089809Y-90621200D02*
X235013619Y-90545009D01*
X235013619Y-90545009D02*
X234975523Y-90392628D01*
X234975523Y-90392628D02*
X234975523Y-90125961D01*
X234975523Y-90125961D02*
X235013619Y-89973580D01*
X235013619Y-89973580D02*
X235089809Y-89897390D01*
X235089809Y-89897390D02*
X235166000Y-89859295D01*
X235851714Y-89859295D02*
X235851714Y-90506914D01*
X235851714Y-90506914D02*
X235889809Y-90583104D01*
X235889809Y-90583104D02*
X235927904Y-90621200D01*
X235927904Y-90621200D02*
X236004095Y-90659295D01*
X236004095Y-90659295D02*
X236156476Y-90659295D01*
X236156476Y-90659295D02*
X236232666Y-90621200D01*
X236232666Y-90621200D02*
X236270761Y-90583104D01*
X236270761Y-90583104D02*
X236308857Y-90506914D01*
X236308857Y-90506914D02*
X236308857Y-89859295D01*
X236575523Y-89859295D02*
X237032666Y-89859295D01*
X236804094Y-90659295D02*
X236804094Y-89859295D01*
X235356476Y-97644390D02*
X235280286Y-97606295D01*
X235280286Y-97606295D02*
X235166000Y-97606295D01*
X235166000Y-97606295D02*
X235051714Y-97644390D01*
X235051714Y-97644390D02*
X234975524Y-97720580D01*
X234975524Y-97720580D02*
X234937429Y-97796771D01*
X234937429Y-97796771D02*
X234899333Y-97949152D01*
X234899333Y-97949152D02*
X234899333Y-98063438D01*
X234899333Y-98063438D02*
X234937429Y-98215819D01*
X234937429Y-98215819D02*
X234975524Y-98292009D01*
X234975524Y-98292009D02*
X235051714Y-98368200D01*
X235051714Y-98368200D02*
X235166000Y-98406295D01*
X235166000Y-98406295D02*
X235242191Y-98406295D01*
X235242191Y-98406295D02*
X235356476Y-98368200D01*
X235356476Y-98368200D02*
X235394572Y-98330104D01*
X235394572Y-98330104D02*
X235394572Y-98063438D01*
X235394572Y-98063438D02*
X235242191Y-98063438D01*
X235737429Y-98406295D02*
X235737429Y-97606295D01*
X235737429Y-97606295D02*
X236194572Y-98406295D01*
X236194572Y-98406295D02*
X236194572Y-97606295D01*
X236575524Y-98406295D02*
X236575524Y-97606295D01*
X236575524Y-97606295D02*
X236766000Y-97606295D01*
X236766000Y-97606295D02*
X236880286Y-97644390D01*
X236880286Y-97644390D02*
X236956476Y-97720580D01*
X236956476Y-97720580D02*
X236994571Y-97796771D01*
X236994571Y-97796771D02*
X237032667Y-97949152D01*
X237032667Y-97949152D02*
X237032667Y-98063438D01*
X237032667Y-98063438D02*
X236994571Y-98215819D01*
X236994571Y-98215819D02*
X236956476Y-98292009D01*
X236956476Y-98292009D02*
X236880286Y-98368200D01*
X236880286Y-98368200D02*
X236766000Y-98406295D01*
X236766000Y-98406295D02*
X236575524Y-98406295D01*
X235356476Y-92691390D02*
X235280286Y-92653295D01*
X235280286Y-92653295D02*
X235166000Y-92653295D01*
X235166000Y-92653295D02*
X235051714Y-92691390D01*
X235051714Y-92691390D02*
X234975524Y-92767580D01*
X234975524Y-92767580D02*
X234937429Y-92843771D01*
X234937429Y-92843771D02*
X234899333Y-92996152D01*
X234899333Y-92996152D02*
X234899333Y-93110438D01*
X234899333Y-93110438D02*
X234937429Y-93262819D01*
X234937429Y-93262819D02*
X234975524Y-93339009D01*
X234975524Y-93339009D02*
X235051714Y-93415200D01*
X235051714Y-93415200D02*
X235166000Y-93453295D01*
X235166000Y-93453295D02*
X235242191Y-93453295D01*
X235242191Y-93453295D02*
X235356476Y-93415200D01*
X235356476Y-93415200D02*
X235394572Y-93377104D01*
X235394572Y-93377104D02*
X235394572Y-93110438D01*
X235394572Y-93110438D02*
X235242191Y-93110438D01*
X235737429Y-93453295D02*
X235737429Y-92653295D01*
X235737429Y-92653295D02*
X236194572Y-93453295D01*
X236194572Y-93453295D02*
X236194572Y-92653295D01*
X236575524Y-93453295D02*
X236575524Y-92653295D01*
X236575524Y-92653295D02*
X236766000Y-92653295D01*
X236766000Y-92653295D02*
X236880286Y-92691390D01*
X236880286Y-92691390D02*
X236956476Y-92767580D01*
X236956476Y-92767580D02*
X236994571Y-92843771D01*
X236994571Y-92843771D02*
X237032667Y-92996152D01*
X237032667Y-92996152D02*
X237032667Y-93110438D01*
X237032667Y-93110438D02*
X236994571Y-93262819D01*
X236994571Y-93262819D02*
X236956476Y-93339009D01*
X236956476Y-93339009D02*
X236880286Y-93415200D01*
X236880286Y-93415200D02*
X236766000Y-93453295D01*
X236766000Y-93453295D02*
X236575524Y-93453295D01*
X235356476Y-95104390D02*
X235280286Y-95066295D01*
X235280286Y-95066295D02*
X235166000Y-95066295D01*
X235166000Y-95066295D02*
X235051714Y-95104390D01*
X235051714Y-95104390D02*
X234975524Y-95180580D01*
X234975524Y-95180580D02*
X234937429Y-95256771D01*
X234937429Y-95256771D02*
X234899333Y-95409152D01*
X234899333Y-95409152D02*
X234899333Y-95523438D01*
X234899333Y-95523438D02*
X234937429Y-95675819D01*
X234937429Y-95675819D02*
X234975524Y-95752009D01*
X234975524Y-95752009D02*
X235051714Y-95828200D01*
X235051714Y-95828200D02*
X235166000Y-95866295D01*
X235166000Y-95866295D02*
X235242191Y-95866295D01*
X235242191Y-95866295D02*
X235356476Y-95828200D01*
X235356476Y-95828200D02*
X235394572Y-95790104D01*
X235394572Y-95790104D02*
X235394572Y-95523438D01*
X235394572Y-95523438D02*
X235242191Y-95523438D01*
X235737429Y-95866295D02*
X235737429Y-95066295D01*
X235737429Y-95066295D02*
X236194572Y-95866295D01*
X236194572Y-95866295D02*
X236194572Y-95066295D01*
X236575524Y-95866295D02*
X236575524Y-95066295D01*
X236575524Y-95066295D02*
X236766000Y-95066295D01*
X236766000Y-95066295D02*
X236880286Y-95104390D01*
X236880286Y-95104390D02*
X236956476Y-95180580D01*
X236956476Y-95180580D02*
X236994571Y-95256771D01*
X236994571Y-95256771D02*
X237032667Y-95409152D01*
X237032667Y-95409152D02*
X237032667Y-95523438D01*
X237032667Y-95523438D02*
X236994571Y-95675819D01*
X236994571Y-95675819D02*
X236956476Y-95752009D01*
X236956476Y-95752009D02*
X236880286Y-95828200D01*
X236880286Y-95828200D02*
X236766000Y-95866295D01*
X236766000Y-95866295D02*
X236575524Y-95866295D01*
X218573381Y-98406295D02*
X218192429Y-98406295D01*
X218192429Y-98406295D02*
X218192429Y-97606295D01*
X218840048Y-98101533D02*
X219449572Y-98101533D01*
X218230524Y-106026295D02*
X218230524Y-105226295D01*
X218230524Y-105226295D02*
X218535286Y-105226295D01*
X218535286Y-105226295D02*
X218611476Y-105264390D01*
X218611476Y-105264390D02*
X218649571Y-105302485D01*
X218649571Y-105302485D02*
X218687667Y-105378676D01*
X218687667Y-105378676D02*
X218687667Y-105492961D01*
X218687667Y-105492961D02*
X218649571Y-105569152D01*
X218649571Y-105569152D02*
X218611476Y-105607247D01*
X218611476Y-105607247D02*
X218535286Y-105645342D01*
X218535286Y-105645342D02*
X218230524Y-105645342D01*
X218992428Y-105302485D02*
X219030524Y-105264390D01*
X219030524Y-105264390D02*
X219106714Y-105226295D01*
X219106714Y-105226295D02*
X219297190Y-105226295D01*
X219297190Y-105226295D02*
X219373381Y-105264390D01*
X219373381Y-105264390D02*
X219411476Y-105302485D01*
X219411476Y-105302485D02*
X219449571Y-105378676D01*
X219449571Y-105378676D02*
X219449571Y-105454866D01*
X219449571Y-105454866D02*
X219411476Y-105569152D01*
X219411476Y-105569152D02*
X218954333Y-106026295D01*
X218954333Y-106026295D02*
X219449571Y-106026295D01*
X218573381Y-100946295D02*
X218192429Y-100946295D01*
X218192429Y-100946295D02*
X218192429Y-100146295D01*
X218840048Y-100641533D02*
X219449572Y-100641533D01*
X219144810Y-100946295D02*
X219144810Y-100336771D01*
X218230524Y-103613295D02*
X218230524Y-102813295D01*
X218230524Y-102813295D02*
X218535286Y-102813295D01*
X218535286Y-102813295D02*
X218611476Y-102851390D01*
X218611476Y-102851390D02*
X218649571Y-102889485D01*
X218649571Y-102889485D02*
X218687667Y-102965676D01*
X218687667Y-102965676D02*
X218687667Y-103079961D01*
X218687667Y-103079961D02*
X218649571Y-103156152D01*
X218649571Y-103156152D02*
X218611476Y-103194247D01*
X218611476Y-103194247D02*
X218535286Y-103232342D01*
X218535286Y-103232342D02*
X218230524Y-103232342D01*
X218954333Y-102813295D02*
X219449571Y-102813295D01*
X219449571Y-102813295D02*
X219182905Y-103118057D01*
X219182905Y-103118057D02*
X219297190Y-103118057D01*
X219297190Y-103118057D02*
X219373381Y-103156152D01*
X219373381Y-103156152D02*
X219411476Y-103194247D01*
X219411476Y-103194247D02*
X219449571Y-103270438D01*
X219449571Y-103270438D02*
X219449571Y-103460914D01*
X219449571Y-103460914D02*
X219411476Y-103537104D01*
X219411476Y-103537104D02*
X219373381Y-103575200D01*
X219373381Y-103575200D02*
X219297190Y-103613295D01*
X219297190Y-103613295D02*
X219068619Y-103613295D01*
X219068619Y-103613295D02*
X218992428Y-103575200D01*
X218992428Y-103575200D02*
X218954333Y-103537104D01*
X218173429Y-90354533D02*
X218782953Y-90354533D01*
X218478191Y-90659295D02*
X218478191Y-90049771D01*
X219544857Y-89859295D02*
X219163905Y-89859295D01*
X219163905Y-89859295D02*
X219125809Y-90240247D01*
X219125809Y-90240247D02*
X219163905Y-90202152D01*
X219163905Y-90202152D02*
X219240095Y-90164057D01*
X219240095Y-90164057D02*
X219430571Y-90164057D01*
X219430571Y-90164057D02*
X219506762Y-90202152D01*
X219506762Y-90202152D02*
X219544857Y-90240247D01*
X219544857Y-90240247D02*
X219582952Y-90316438D01*
X219582952Y-90316438D02*
X219582952Y-90506914D01*
X219582952Y-90506914D02*
X219544857Y-90583104D01*
X219544857Y-90583104D02*
X219506762Y-90621200D01*
X219506762Y-90621200D02*
X219430571Y-90659295D01*
X219430571Y-90659295D02*
X219240095Y-90659295D01*
X219240095Y-90659295D02*
X219163905Y-90621200D01*
X219163905Y-90621200D02*
X219125809Y-90583104D01*
X219811524Y-89859295D02*
X220078191Y-90659295D01*
X220078191Y-90659295D02*
X220344857Y-89859295D01*
X218192429Y-95866295D02*
X218192429Y-95066295D01*
X218192429Y-95066295D02*
X218649572Y-95866295D01*
X218649572Y-95866295D02*
X218649572Y-95066295D01*
X219487667Y-95790104D02*
X219449571Y-95828200D01*
X219449571Y-95828200D02*
X219335286Y-95866295D01*
X219335286Y-95866295D02*
X219259095Y-95866295D01*
X219259095Y-95866295D02*
X219144809Y-95828200D01*
X219144809Y-95828200D02*
X219068619Y-95752009D01*
X219068619Y-95752009D02*
X219030524Y-95675819D01*
X219030524Y-95675819D02*
X218992428Y-95523438D01*
X218992428Y-95523438D02*
X218992428Y-95409152D01*
X218992428Y-95409152D02*
X219030524Y-95256771D01*
X219030524Y-95256771D02*
X219068619Y-95180580D01*
X219068619Y-95180580D02*
X219144809Y-95104390D01*
X219144809Y-95104390D02*
X219259095Y-95066295D01*
X219259095Y-95066295D02*
X219335286Y-95066295D01*
X219335286Y-95066295D02*
X219449571Y-95104390D01*
X219449571Y-95104390D02*
X219487667Y-95142485D01*
X218173429Y-93148533D02*
X218782953Y-93148533D01*
X219544857Y-92653295D02*
X219163905Y-92653295D01*
X219163905Y-92653295D02*
X219125809Y-93034247D01*
X219125809Y-93034247D02*
X219163905Y-92996152D01*
X219163905Y-92996152D02*
X219240095Y-92958057D01*
X219240095Y-92958057D02*
X219430571Y-92958057D01*
X219430571Y-92958057D02*
X219506762Y-92996152D01*
X219506762Y-92996152D02*
X219544857Y-93034247D01*
X219544857Y-93034247D02*
X219582952Y-93110438D01*
X219582952Y-93110438D02*
X219582952Y-93300914D01*
X219582952Y-93300914D02*
X219544857Y-93377104D01*
X219544857Y-93377104D02*
X219506762Y-93415200D01*
X219506762Y-93415200D02*
X219430571Y-93453295D01*
X219430571Y-93453295D02*
X219240095Y-93453295D01*
X219240095Y-93453295D02*
X219163905Y-93415200D01*
X219163905Y-93415200D02*
X219125809Y-93377104D01*
X219811524Y-92653295D02*
X220078191Y-93453295D01*
X220078191Y-93453295D02*
X220344857Y-92653295D01*
D11*
X228433219Y-149304190D02*
X228433219Y-149113714D01*
X228433219Y-149113714D02*
X228480838Y-149018476D01*
X228480838Y-149018476D02*
X228576076Y-148923238D01*
X228576076Y-148923238D02*
X228766552Y-148875619D01*
X228766552Y-148875619D02*
X229099885Y-148875619D01*
X229099885Y-148875619D02*
X229290361Y-148923238D01*
X229290361Y-148923238D02*
X229385600Y-149018476D01*
X229385600Y-149018476D02*
X229433219Y-149113714D01*
X229433219Y-149113714D02*
X229433219Y-149304190D01*
X229433219Y-149304190D02*
X229385600Y-149399428D01*
X229385600Y-149399428D02*
X229290361Y-149494666D01*
X229290361Y-149494666D02*
X229099885Y-149542285D01*
X229099885Y-149542285D02*
X228766552Y-149542285D01*
X228766552Y-149542285D02*
X228576076Y-149494666D01*
X228576076Y-149494666D02*
X228480838Y-149399428D01*
X228480838Y-149399428D02*
X228433219Y-149304190D01*
X228433219Y-148447047D02*
X229242742Y-148447047D01*
X229242742Y-148447047D02*
X229337980Y-148399428D01*
X229337980Y-148399428D02*
X229385600Y-148351809D01*
X229385600Y-148351809D02*
X229433219Y-148256571D01*
X229433219Y-148256571D02*
X229433219Y-148066095D01*
X229433219Y-148066095D02*
X229385600Y-147970857D01*
X229385600Y-147970857D02*
X229337980Y-147923238D01*
X229337980Y-147923238D02*
X229242742Y-147875619D01*
X229242742Y-147875619D02*
X228433219Y-147875619D01*
X228433219Y-147542285D02*
X228433219Y-146970857D01*
X229433219Y-147256571D02*
X228433219Y-147256571D01*
X228528457Y-146685142D02*
X228480838Y-146637523D01*
X228480838Y-146637523D02*
X228433219Y-146542285D01*
X228433219Y-146542285D02*
X228433219Y-146304190D01*
X228433219Y-146304190D02*
X228480838Y-146208952D01*
X228480838Y-146208952D02*
X228528457Y-146161333D01*
X228528457Y-146161333D02*
X228623695Y-146113714D01*
X228623695Y-146113714D02*
X228718933Y-146113714D01*
X228718933Y-146113714D02*
X228861790Y-146161333D01*
X228861790Y-146161333D02*
X229433219Y-146732761D01*
X229433219Y-146732761D02*
X229433219Y-146113714D01*
X219304980Y-137628000D02*
X219352600Y-137675619D01*
X219352600Y-137675619D02*
X219400219Y-137818476D01*
X219400219Y-137818476D02*
X219400219Y-137913714D01*
X219400219Y-137913714D02*
X219352600Y-138056571D01*
X219352600Y-138056571D02*
X219257361Y-138151809D01*
X219257361Y-138151809D02*
X219162123Y-138199428D01*
X219162123Y-138199428D02*
X218971647Y-138247047D01*
X218971647Y-138247047D02*
X218828790Y-138247047D01*
X218828790Y-138247047D02*
X218638314Y-138199428D01*
X218638314Y-138199428D02*
X218543076Y-138151809D01*
X218543076Y-138151809D02*
X218447838Y-138056571D01*
X218447838Y-138056571D02*
X218400219Y-137913714D01*
X218400219Y-137913714D02*
X218400219Y-137818476D01*
X218400219Y-137818476D02*
X218447838Y-137675619D01*
X218447838Y-137675619D02*
X218495457Y-137628000D01*
X219400219Y-136723238D02*
X219400219Y-137199428D01*
X219400219Y-137199428D02*
X218400219Y-137199428D01*
X219400219Y-136389904D02*
X218400219Y-136389904D01*
X219400219Y-135818476D02*
X218828790Y-136247047D01*
X218400219Y-135818476D02*
X218971647Y-136389904D01*
X218352600Y-134675619D02*
X219638314Y-135532761D01*
X218400219Y-134485142D02*
X218400219Y-133913714D01*
X219400219Y-134199428D02*
X218400219Y-134199428D01*
X219400219Y-133008952D02*
X218924028Y-133342285D01*
X219400219Y-133580380D02*
X218400219Y-133580380D01*
X218400219Y-133580380D02*
X218400219Y-133199428D01*
X218400219Y-133199428D02*
X218447838Y-133104190D01*
X218447838Y-133104190D02*
X218495457Y-133056571D01*
X218495457Y-133056571D02*
X218590695Y-133008952D01*
X218590695Y-133008952D02*
X218733552Y-133008952D01*
X218733552Y-133008952D02*
X218828790Y-133056571D01*
X218828790Y-133056571D02*
X218876409Y-133104190D01*
X218876409Y-133104190D02*
X218924028Y-133199428D01*
X218924028Y-133199428D02*
X218924028Y-133580380D01*
X218447838Y-132056571D02*
X218400219Y-132151809D01*
X218400219Y-132151809D02*
X218400219Y-132294666D01*
X218400219Y-132294666D02*
X218447838Y-132437523D01*
X218447838Y-132437523D02*
X218543076Y-132532761D01*
X218543076Y-132532761D02*
X218638314Y-132580380D01*
X218638314Y-132580380D02*
X218828790Y-132627999D01*
X218828790Y-132627999D02*
X218971647Y-132627999D01*
X218971647Y-132627999D02*
X219162123Y-132580380D01*
X219162123Y-132580380D02*
X219257361Y-132532761D01*
X219257361Y-132532761D02*
X219352600Y-132437523D01*
X219352600Y-132437523D02*
X219400219Y-132294666D01*
X219400219Y-132294666D02*
X219400219Y-132199428D01*
X219400219Y-132199428D02*
X219352600Y-132056571D01*
X219352600Y-132056571D02*
X219304980Y-132008952D01*
X219304980Y-132008952D02*
X218971647Y-132008952D01*
X218971647Y-132008952D02*
X218971647Y-132199428D01*
X229433219Y-138183713D02*
X228433219Y-138183713D01*
X228433219Y-138183713D02*
X228433219Y-137945618D01*
X228433219Y-137945618D02*
X228480838Y-137802761D01*
X228480838Y-137802761D02*
X228576076Y-137707523D01*
X228576076Y-137707523D02*
X228671314Y-137659904D01*
X228671314Y-137659904D02*
X228861790Y-137612285D01*
X228861790Y-137612285D02*
X229004647Y-137612285D01*
X229004647Y-137612285D02*
X229195123Y-137659904D01*
X229195123Y-137659904D02*
X229290361Y-137707523D01*
X229290361Y-137707523D02*
X229385600Y-137802761D01*
X229385600Y-137802761D02*
X229433219Y-137945618D01*
X229433219Y-137945618D02*
X229433219Y-138183713D01*
X229433219Y-137183713D02*
X228433219Y-137183713D01*
X228433219Y-136850380D02*
X228433219Y-136278952D01*
X229433219Y-136564666D02*
X228433219Y-136564666D01*
X228433219Y-136088475D02*
X228433219Y-135517047D01*
X229433219Y-135802761D02*
X228433219Y-135802761D01*
X228433219Y-134993237D02*
X228433219Y-134802761D01*
X228433219Y-134802761D02*
X228480838Y-134707523D01*
X228480838Y-134707523D02*
X228576076Y-134612285D01*
X228576076Y-134612285D02*
X228766552Y-134564666D01*
X228766552Y-134564666D02*
X229099885Y-134564666D01*
X229099885Y-134564666D02*
X229290361Y-134612285D01*
X229290361Y-134612285D02*
X229385600Y-134707523D01*
X229385600Y-134707523D02*
X229433219Y-134802761D01*
X229433219Y-134802761D02*
X229433219Y-134993237D01*
X229433219Y-134993237D02*
X229385600Y-135088475D01*
X229385600Y-135088475D02*
X229290361Y-135183713D01*
X229290361Y-135183713D02*
X229099885Y-135231332D01*
X229099885Y-135231332D02*
X228766552Y-135231332D01*
X228766552Y-135231332D02*
X228576076Y-135183713D01*
X228576076Y-135183713D02*
X228480838Y-135088475D01*
X228480838Y-135088475D02*
X228433219Y-134993237D01*
X229560219Y-123991190D02*
X228560219Y-123991190D01*
X228560219Y-123991190D02*
X228560219Y-123610238D01*
X228560219Y-123610238D02*
X228607838Y-123515000D01*
X228607838Y-123515000D02*
X228655457Y-123467381D01*
X228655457Y-123467381D02*
X228750695Y-123419762D01*
X228750695Y-123419762D02*
X228893552Y-123419762D01*
X228893552Y-123419762D02*
X228988790Y-123467381D01*
X228988790Y-123467381D02*
X229036409Y-123515000D01*
X229036409Y-123515000D02*
X229084028Y-123610238D01*
X229084028Y-123610238D02*
X229084028Y-123991190D01*
X229274504Y-123038809D02*
X229274504Y-122562619D01*
X229560219Y-123134047D02*
X228560219Y-122800714D01*
X228560219Y-122800714D02*
X229560219Y-122467381D01*
X229560219Y-121562619D02*
X229084028Y-121895952D01*
X229560219Y-122134047D02*
X228560219Y-122134047D01*
X228560219Y-122134047D02*
X228560219Y-121753095D01*
X228560219Y-121753095D02*
X228607838Y-121657857D01*
X228607838Y-121657857D02*
X228655457Y-121610238D01*
X228655457Y-121610238D02*
X228750695Y-121562619D01*
X228750695Y-121562619D02*
X228893552Y-121562619D01*
X228893552Y-121562619D02*
X228988790Y-121610238D01*
X228988790Y-121610238D02*
X229036409Y-121657857D01*
X229036409Y-121657857D02*
X229084028Y-121753095D01*
X229084028Y-121753095D02*
X229084028Y-122134047D01*
X229274504Y-121181666D02*
X229274504Y-120705476D01*
X229560219Y-121276904D02*
X228560219Y-120943571D01*
X228560219Y-120943571D02*
X229560219Y-120610238D01*
X229560219Y-120276904D02*
X228560219Y-120276904D01*
X228560219Y-120276904D02*
X229274504Y-119943571D01*
X229274504Y-119943571D02*
X228560219Y-119610238D01*
X228560219Y-119610238D02*
X229560219Y-119610238D01*
X228655457Y-119181666D02*
X228607838Y-119134047D01*
X228607838Y-119134047D02*
X228560219Y-119038809D01*
X228560219Y-119038809D02*
X228560219Y-118800714D01*
X228560219Y-118800714D02*
X228607838Y-118705476D01*
X228607838Y-118705476D02*
X228655457Y-118657857D01*
X228655457Y-118657857D02*
X228750695Y-118610238D01*
X228750695Y-118610238D02*
X228845933Y-118610238D01*
X228845933Y-118610238D02*
X228988790Y-118657857D01*
X228988790Y-118657857D02*
X229560219Y-119229285D01*
X229560219Y-119229285D02*
X229560219Y-118610238D01*
X229655457Y-118419762D02*
X229655457Y-117657857D01*
X229464980Y-116848333D02*
X229512600Y-116895952D01*
X229512600Y-116895952D02*
X229560219Y-117038809D01*
X229560219Y-117038809D02*
X229560219Y-117134047D01*
X229560219Y-117134047D02*
X229512600Y-117276904D01*
X229512600Y-117276904D02*
X229417361Y-117372142D01*
X229417361Y-117372142D02*
X229322123Y-117419761D01*
X229322123Y-117419761D02*
X229131647Y-117467380D01*
X229131647Y-117467380D02*
X228988790Y-117467380D01*
X228988790Y-117467380D02*
X228798314Y-117419761D01*
X228798314Y-117419761D02*
X228703076Y-117372142D01*
X228703076Y-117372142D02*
X228607838Y-117276904D01*
X228607838Y-117276904D02*
X228560219Y-117134047D01*
X228560219Y-117134047D02*
X228560219Y-117038809D01*
X228560219Y-117038809D02*
X228607838Y-116895952D01*
X228607838Y-116895952D02*
X228655457Y-116848333D01*
X228560219Y-116562618D02*
X229560219Y-116229285D01*
X229560219Y-116229285D02*
X228560219Y-115895952D01*
X219400219Y-124118190D02*
X218400219Y-124118190D01*
X218400219Y-124118190D02*
X218400219Y-123737238D01*
X218400219Y-123737238D02*
X218447838Y-123642000D01*
X218447838Y-123642000D02*
X218495457Y-123594381D01*
X218495457Y-123594381D02*
X218590695Y-123546762D01*
X218590695Y-123546762D02*
X218733552Y-123546762D01*
X218733552Y-123546762D02*
X218828790Y-123594381D01*
X218828790Y-123594381D02*
X218876409Y-123642000D01*
X218876409Y-123642000D02*
X218924028Y-123737238D01*
X218924028Y-123737238D02*
X218924028Y-124118190D01*
X219114504Y-123165809D02*
X219114504Y-122689619D01*
X219400219Y-123261047D02*
X218400219Y-122927714D01*
X218400219Y-122927714D02*
X219400219Y-122594381D01*
X219400219Y-121689619D02*
X218924028Y-122022952D01*
X219400219Y-122261047D02*
X218400219Y-122261047D01*
X218400219Y-122261047D02*
X218400219Y-121880095D01*
X218400219Y-121880095D02*
X218447838Y-121784857D01*
X218447838Y-121784857D02*
X218495457Y-121737238D01*
X218495457Y-121737238D02*
X218590695Y-121689619D01*
X218590695Y-121689619D02*
X218733552Y-121689619D01*
X218733552Y-121689619D02*
X218828790Y-121737238D01*
X218828790Y-121737238D02*
X218876409Y-121784857D01*
X218876409Y-121784857D02*
X218924028Y-121880095D01*
X218924028Y-121880095D02*
X218924028Y-122261047D01*
X219114504Y-121308666D02*
X219114504Y-120832476D01*
X219400219Y-121403904D02*
X218400219Y-121070571D01*
X218400219Y-121070571D02*
X219400219Y-120737238D01*
X219400219Y-120403904D02*
X218400219Y-120403904D01*
X218400219Y-120403904D02*
X219114504Y-120070571D01*
X219114504Y-120070571D02*
X218400219Y-119737238D01*
X218400219Y-119737238D02*
X219400219Y-119737238D01*
X219400219Y-118737238D02*
X219400219Y-119308666D01*
X219400219Y-119022952D02*
X218400219Y-119022952D01*
X218400219Y-119022952D02*
X218543076Y-119118190D01*
X218543076Y-119118190D02*
X218638314Y-119213428D01*
X218638314Y-119213428D02*
X218685933Y-119308666D01*
X219495457Y-118546762D02*
X219495457Y-117784857D01*
X219304980Y-116975333D02*
X219352600Y-117022952D01*
X219352600Y-117022952D02*
X219400219Y-117165809D01*
X219400219Y-117165809D02*
X219400219Y-117261047D01*
X219400219Y-117261047D02*
X219352600Y-117403904D01*
X219352600Y-117403904D02*
X219257361Y-117499142D01*
X219257361Y-117499142D02*
X219162123Y-117546761D01*
X219162123Y-117546761D02*
X218971647Y-117594380D01*
X218971647Y-117594380D02*
X218828790Y-117594380D01*
X218828790Y-117594380D02*
X218638314Y-117546761D01*
X218638314Y-117546761D02*
X218543076Y-117499142D01*
X218543076Y-117499142D02*
X218447838Y-117403904D01*
X218447838Y-117403904D02*
X218400219Y-117261047D01*
X218400219Y-117261047D02*
X218400219Y-117165809D01*
X218400219Y-117165809D02*
X218447838Y-117022952D01*
X218447838Y-117022952D02*
X218495457Y-116975333D01*
X218400219Y-116689618D02*
X219400219Y-116356285D01*
X219400219Y-116356285D02*
X218400219Y-116022952D01*
X218400219Y-149304190D02*
X218400219Y-149113714D01*
X218400219Y-149113714D02*
X218447838Y-149018476D01*
X218447838Y-149018476D02*
X218543076Y-148923238D01*
X218543076Y-148923238D02*
X218733552Y-148875619D01*
X218733552Y-148875619D02*
X219066885Y-148875619D01*
X219066885Y-148875619D02*
X219257361Y-148923238D01*
X219257361Y-148923238D02*
X219352600Y-149018476D01*
X219352600Y-149018476D02*
X219400219Y-149113714D01*
X219400219Y-149113714D02*
X219400219Y-149304190D01*
X219400219Y-149304190D02*
X219352600Y-149399428D01*
X219352600Y-149399428D02*
X219257361Y-149494666D01*
X219257361Y-149494666D02*
X219066885Y-149542285D01*
X219066885Y-149542285D02*
X218733552Y-149542285D01*
X218733552Y-149542285D02*
X218543076Y-149494666D01*
X218543076Y-149494666D02*
X218447838Y-149399428D01*
X218447838Y-149399428D02*
X218400219Y-149304190D01*
X218400219Y-148447047D02*
X219209742Y-148447047D01*
X219209742Y-148447047D02*
X219304980Y-148399428D01*
X219304980Y-148399428D02*
X219352600Y-148351809D01*
X219352600Y-148351809D02*
X219400219Y-148256571D01*
X219400219Y-148256571D02*
X219400219Y-148066095D01*
X219400219Y-148066095D02*
X219352600Y-147970857D01*
X219352600Y-147970857D02*
X219304980Y-147923238D01*
X219304980Y-147923238D02*
X219209742Y-147875619D01*
X219209742Y-147875619D02*
X218400219Y-147875619D01*
X218400219Y-147542285D02*
X218400219Y-146970857D01*
X219400219Y-147256571D02*
X218400219Y-147256571D01*
X219400219Y-146113714D02*
X219400219Y-146685142D01*
X219400219Y-146399428D02*
X218400219Y-146399428D01*
X218400219Y-146399428D02*
X218543076Y-146494666D01*
X218543076Y-146494666D02*
X218638314Y-146589904D01*
X218638314Y-146589904D02*
X218685933Y-146685142D01*
D10*
X229639905Y-127708819D02*
X229639905Y-126708819D01*
X229639905Y-126708819D02*
X229878000Y-126708819D01*
X229878000Y-126708819D02*
X230020857Y-126756438D01*
X230020857Y-126756438D02*
X230116095Y-126851676D01*
X230116095Y-126851676D02*
X230163714Y-126946914D01*
X230163714Y-126946914D02*
X230211333Y-127137390D01*
X230211333Y-127137390D02*
X230211333Y-127280247D01*
X230211333Y-127280247D02*
X230163714Y-127470723D01*
X230163714Y-127470723D02*
X230116095Y-127565961D01*
X230116095Y-127565961D02*
X230020857Y-127661200D01*
X230020857Y-127661200D02*
X229878000Y-127708819D01*
X229878000Y-127708819D02*
X229639905Y-127708819D01*
X231068476Y-126708819D02*
X230878000Y-126708819D01*
X230878000Y-126708819D02*
X230782762Y-126756438D01*
X230782762Y-126756438D02*
X230735143Y-126804057D01*
X230735143Y-126804057D02*
X230639905Y-126946914D01*
X230639905Y-126946914D02*
X230592286Y-127137390D01*
X230592286Y-127137390D02*
X230592286Y-127518342D01*
X230592286Y-127518342D02*
X230639905Y-127613580D01*
X230639905Y-127613580D02*
X230687524Y-127661200D01*
X230687524Y-127661200D02*
X230782762Y-127708819D01*
X230782762Y-127708819D02*
X230973238Y-127708819D01*
X230973238Y-127708819D02*
X231068476Y-127661200D01*
X231068476Y-127661200D02*
X231116095Y-127613580D01*
X231116095Y-127613580D02*
X231163714Y-127518342D01*
X231163714Y-127518342D02*
X231163714Y-127280247D01*
X231163714Y-127280247D02*
X231116095Y-127185009D01*
X231116095Y-127185009D02*
X231068476Y-127137390D01*
X231068476Y-127137390D02*
X230973238Y-127089771D01*
X230973238Y-127089771D02*
X230782762Y-127089771D01*
X230782762Y-127089771D02*
X230687524Y-127137390D01*
X230687524Y-127137390D02*
X230639905Y-127185009D01*
X230639905Y-127185009D02*
X230592286Y-127280247D01*
X225726666Y-128486819D02*
X225726666Y-129201104D01*
X225726666Y-129201104D02*
X225679047Y-129343961D01*
X225679047Y-129343961D02*
X225583809Y-129439200D01*
X225583809Y-129439200D02*
X225440952Y-129486819D01*
X225440952Y-129486819D02*
X225345714Y-129486819D01*
X226107619Y-128486819D02*
X226726666Y-128486819D01*
X226726666Y-128486819D02*
X226393333Y-128867771D01*
X226393333Y-128867771D02*
X226536190Y-128867771D01*
X226536190Y-128867771D02*
X226631428Y-128915390D01*
X226631428Y-128915390D02*
X226679047Y-128963009D01*
X226679047Y-128963009D02*
X226726666Y-129058247D01*
X226726666Y-129058247D02*
X226726666Y-129296342D01*
X226726666Y-129296342D02*
X226679047Y-129391580D01*
X226679047Y-129391580D02*
X226631428Y-129439200D01*
X226631428Y-129439200D02*
X226536190Y-129486819D01*
X226536190Y-129486819D02*
X226250476Y-129486819D01*
X226250476Y-129486819D02*
X226155238Y-129439200D01*
X226155238Y-129439200D02*
X226107619Y-129391580D01*
X225726666Y-114262819D02*
X225726666Y-114977104D01*
X225726666Y-114977104D02*
X225679047Y-115119961D01*
X225679047Y-115119961D02*
X225583809Y-115215200D01*
X225583809Y-115215200D02*
X225440952Y-115262819D01*
X225440952Y-115262819D02*
X225345714Y-115262819D01*
X226726666Y-115262819D02*
X226155238Y-115262819D01*
X226440952Y-115262819D02*
X226440952Y-114262819D01*
X226440952Y-114262819D02*
X226345714Y-114405676D01*
X226345714Y-114405676D02*
X226250476Y-114500914D01*
X226250476Y-114500914D02*
X226155238Y-114548533D01*
X233753819Y-106259238D02*
X233277628Y-106592571D01*
X233753819Y-106830666D02*
X232753819Y-106830666D01*
X232753819Y-106830666D02*
X232753819Y-106449714D01*
X232753819Y-106449714D02*
X232801438Y-106354476D01*
X232801438Y-106354476D02*
X232849057Y-106306857D01*
X232849057Y-106306857D02*
X232944295Y-106259238D01*
X232944295Y-106259238D02*
X233087152Y-106259238D01*
X233087152Y-106259238D02*
X233182390Y-106306857D01*
X233182390Y-106306857D02*
X233230009Y-106354476D01*
X233230009Y-106354476D02*
X233277628Y-106449714D01*
X233277628Y-106449714D02*
X233277628Y-106830666D01*
X232753819Y-105973523D02*
X233753819Y-105640190D01*
X233753819Y-105640190D02*
X232753819Y-105306857D01*
X233753819Y-104449714D02*
X233753819Y-105021142D01*
X233753819Y-104735428D02*
X232753819Y-104735428D01*
X232753819Y-104735428D02*
X232896676Y-104830666D01*
X232896676Y-104830666D02*
X232991914Y-104925904D01*
X232991914Y-104925904D02*
X233039533Y-105021142D01*
D11*
X225566857Y-106100409D02*
X225709714Y-106148028D01*
X225709714Y-106148028D02*
X225757333Y-106195647D01*
X225757333Y-106195647D02*
X225804952Y-106290885D01*
X225804952Y-106290885D02*
X225804952Y-106433742D01*
X225804952Y-106433742D02*
X225757333Y-106528980D01*
X225757333Y-106528980D02*
X225709714Y-106576600D01*
X225709714Y-106576600D02*
X225614476Y-106624219D01*
X225614476Y-106624219D02*
X225233524Y-106624219D01*
X225233524Y-106624219D02*
X225233524Y-105624219D01*
X225233524Y-105624219D02*
X225566857Y-105624219D01*
X225566857Y-105624219D02*
X225662095Y-105671838D01*
X225662095Y-105671838D02*
X225709714Y-105719457D01*
X225709714Y-105719457D02*
X225757333Y-105814695D01*
X225757333Y-105814695D02*
X225757333Y-105909933D01*
X225757333Y-105909933D02*
X225709714Y-106005171D01*
X225709714Y-106005171D02*
X225662095Y-106052790D01*
X225662095Y-106052790D02*
X225566857Y-106100409D01*
X225566857Y-106100409D02*
X225233524Y-106100409D01*
X226757333Y-106624219D02*
X226185905Y-106624219D01*
X226471619Y-106624219D02*
X226471619Y-105624219D01*
X226471619Y-105624219D02*
X226376381Y-105767076D01*
X226376381Y-105767076D02*
X226281143Y-105862314D01*
X226281143Y-105862314D02*
X226185905Y-105909933D01*
X227376381Y-105624219D02*
X227471619Y-105624219D01*
X227471619Y-105624219D02*
X227566857Y-105671838D01*
X227566857Y-105671838D02*
X227614476Y-105719457D01*
X227614476Y-105719457D02*
X227662095Y-105814695D01*
X227662095Y-105814695D02*
X227709714Y-106005171D01*
X227709714Y-106005171D02*
X227709714Y-106243266D01*
X227709714Y-106243266D02*
X227662095Y-106433742D01*
X227662095Y-106433742D02*
X227614476Y-106528980D01*
X227614476Y-106528980D02*
X227566857Y-106576600D01*
X227566857Y-106576600D02*
X227471619Y-106624219D01*
X227471619Y-106624219D02*
X227376381Y-106624219D01*
X227376381Y-106624219D02*
X227281143Y-106576600D01*
X227281143Y-106576600D02*
X227233524Y-106528980D01*
X227233524Y-106528980D02*
X227185905Y-106433742D01*
X227185905Y-106433742D02*
X227138286Y-106243266D01*
X227138286Y-106243266D02*
X227138286Y-106005171D01*
X227138286Y-106005171D02*
X227185905Y-105814695D01*
X227185905Y-105814695D02*
X227233524Y-105719457D01*
X227233524Y-105719457D02*
X227281143Y-105671838D01*
X227281143Y-105671838D02*
X227376381Y-105624219D01*
X228328762Y-105624219D02*
X228424000Y-105624219D01*
X228424000Y-105624219D02*
X228519238Y-105671838D01*
X228519238Y-105671838D02*
X228566857Y-105719457D01*
X228566857Y-105719457D02*
X228614476Y-105814695D01*
X228614476Y-105814695D02*
X228662095Y-106005171D01*
X228662095Y-106005171D02*
X228662095Y-106243266D01*
X228662095Y-106243266D02*
X228614476Y-106433742D01*
X228614476Y-106433742D02*
X228566857Y-106528980D01*
X228566857Y-106528980D02*
X228519238Y-106576600D01*
X228519238Y-106576600D02*
X228424000Y-106624219D01*
X228424000Y-106624219D02*
X228328762Y-106624219D01*
X228328762Y-106624219D02*
X228233524Y-106576600D01*
X228233524Y-106576600D02*
X228185905Y-106528980D01*
X228185905Y-106528980D02*
X228138286Y-106433742D01*
X228138286Y-106433742D02*
X228090667Y-106243266D01*
X228090667Y-106243266D02*
X228090667Y-106005171D01*
X228090667Y-106005171D02*
X228138286Y-105814695D01*
X228138286Y-105814695D02*
X228185905Y-105719457D01*
X228185905Y-105719457D02*
X228233524Y-105671838D01*
X228233524Y-105671838D02*
X228328762Y-105624219D01*
X229090667Y-106624219D02*
X229090667Y-105624219D01*
X229662095Y-106624219D02*
X229233524Y-106052790D01*
X229662095Y-105624219D02*
X229090667Y-106195647D01*
D10*
X229639905Y-154378819D02*
X229639905Y-153378819D01*
X229639905Y-153378819D02*
X229878000Y-153378819D01*
X229878000Y-153378819D02*
X230020857Y-153426438D01*
X230020857Y-153426438D02*
X230116095Y-153521676D01*
X230116095Y-153521676D02*
X230163714Y-153616914D01*
X230163714Y-153616914D02*
X230211333Y-153807390D01*
X230211333Y-153807390D02*
X230211333Y-153950247D01*
X230211333Y-153950247D02*
X230163714Y-154140723D01*
X230163714Y-154140723D02*
X230116095Y-154235961D01*
X230116095Y-154235961D02*
X230020857Y-154331200D01*
X230020857Y-154331200D02*
X229878000Y-154378819D01*
X229878000Y-154378819D02*
X229639905Y-154378819D01*
X230782762Y-153807390D02*
X230687524Y-153759771D01*
X230687524Y-153759771D02*
X230639905Y-153712152D01*
X230639905Y-153712152D02*
X230592286Y-153616914D01*
X230592286Y-153616914D02*
X230592286Y-153569295D01*
X230592286Y-153569295D02*
X230639905Y-153474057D01*
X230639905Y-153474057D02*
X230687524Y-153426438D01*
X230687524Y-153426438D02*
X230782762Y-153378819D01*
X230782762Y-153378819D02*
X230973238Y-153378819D01*
X230973238Y-153378819D02*
X231068476Y-153426438D01*
X231068476Y-153426438D02*
X231116095Y-153474057D01*
X231116095Y-153474057D02*
X231163714Y-153569295D01*
X231163714Y-153569295D02*
X231163714Y-153616914D01*
X231163714Y-153616914D02*
X231116095Y-153712152D01*
X231116095Y-153712152D02*
X231068476Y-153759771D01*
X231068476Y-153759771D02*
X230973238Y-153807390D01*
X230973238Y-153807390D02*
X230782762Y-153807390D01*
X230782762Y-153807390D02*
X230687524Y-153855009D01*
X230687524Y-153855009D02*
X230639905Y-153902628D01*
X230639905Y-153902628D02*
X230592286Y-153997866D01*
X230592286Y-153997866D02*
X230592286Y-154188342D01*
X230592286Y-154188342D02*
X230639905Y-154283580D01*
X230639905Y-154283580D02*
X230687524Y-154331200D01*
X230687524Y-154331200D02*
X230782762Y-154378819D01*
X230782762Y-154378819D02*
X230973238Y-154378819D01*
X230973238Y-154378819D02*
X231068476Y-154331200D01*
X231068476Y-154331200D02*
X231116095Y-154283580D01*
X231116095Y-154283580D02*
X231163714Y-154188342D01*
X231163714Y-154188342D02*
X231163714Y-153997866D01*
X231163714Y-153997866D02*
X231116095Y-153902628D01*
X231116095Y-153902628D02*
X231068476Y-153855009D01*
X231068476Y-153855009D02*
X230973238Y-153807390D01*
X225726666Y-139662819D02*
X225726666Y-140377104D01*
X225726666Y-140377104D02*
X225679047Y-140519961D01*
X225679047Y-140519961D02*
X225583809Y-140615200D01*
X225583809Y-140615200D02*
X225440952Y-140662819D01*
X225440952Y-140662819D02*
X225345714Y-140662819D01*
X226679047Y-139662819D02*
X226202857Y-139662819D01*
X226202857Y-139662819D02*
X226155238Y-140139009D01*
X226155238Y-140139009D02*
X226202857Y-140091390D01*
X226202857Y-140091390D02*
X226298095Y-140043771D01*
X226298095Y-140043771D02*
X226536190Y-140043771D01*
X226536190Y-140043771D02*
X226631428Y-140091390D01*
X226631428Y-140091390D02*
X226679047Y-140139009D01*
X226679047Y-140139009D02*
X226726666Y-140234247D01*
X226726666Y-140234247D02*
X226726666Y-140472342D01*
X226726666Y-140472342D02*
X226679047Y-140567580D01*
X226679047Y-140567580D02*
X226631428Y-140615200D01*
X226631428Y-140615200D02*
X226536190Y-140662819D01*
X226536190Y-140662819D02*
X226298095Y-140662819D01*
X226298095Y-140662819D02*
X226202857Y-140615200D01*
X226202857Y-140615200D02*
X226155238Y-140567580D01*
X235632666Y-114262819D02*
X235632666Y-114977104D01*
X235632666Y-114977104D02*
X235585047Y-115119961D01*
X235585047Y-115119961D02*
X235489809Y-115215200D01*
X235489809Y-115215200D02*
X235346952Y-115262819D01*
X235346952Y-115262819D02*
X235251714Y-115262819D01*
X236061238Y-114358057D02*
X236108857Y-114310438D01*
X236108857Y-114310438D02*
X236204095Y-114262819D01*
X236204095Y-114262819D02*
X236442190Y-114262819D01*
X236442190Y-114262819D02*
X236537428Y-114310438D01*
X236537428Y-114310438D02*
X236585047Y-114358057D01*
X236585047Y-114358057D02*
X236632666Y-114453295D01*
X236632666Y-114453295D02*
X236632666Y-114548533D01*
X236632666Y-114548533D02*
X236585047Y-114691390D01*
X236585047Y-114691390D02*
X236013619Y-115262819D01*
X236013619Y-115262819D02*
X236632666Y-115262819D01*
X235886666Y-139662819D02*
X235886666Y-140377104D01*
X235886666Y-140377104D02*
X235839047Y-140519961D01*
X235839047Y-140519961D02*
X235743809Y-140615200D01*
X235743809Y-140615200D02*
X235600952Y-140662819D01*
X235600952Y-140662819D02*
X235505714Y-140662819D01*
X236791428Y-139662819D02*
X236600952Y-139662819D01*
X236600952Y-139662819D02*
X236505714Y-139710438D01*
X236505714Y-139710438D02*
X236458095Y-139758057D01*
X236458095Y-139758057D02*
X236362857Y-139900914D01*
X236362857Y-139900914D02*
X236315238Y-140091390D01*
X236315238Y-140091390D02*
X236315238Y-140472342D01*
X236315238Y-140472342D02*
X236362857Y-140567580D01*
X236362857Y-140567580D02*
X236410476Y-140615200D01*
X236410476Y-140615200D02*
X236505714Y-140662819D01*
X236505714Y-140662819D02*
X236696190Y-140662819D01*
X236696190Y-140662819D02*
X236791428Y-140615200D01*
X236791428Y-140615200D02*
X236839047Y-140567580D01*
X236839047Y-140567580D02*
X236886666Y-140472342D01*
X236886666Y-140472342D02*
X236886666Y-140234247D01*
X236886666Y-140234247D02*
X236839047Y-140139009D01*
X236839047Y-140139009D02*
X236791428Y-140091390D01*
X236791428Y-140091390D02*
X236696190Y-140043771D01*
X236696190Y-140043771D02*
X236505714Y-140043771D01*
X236505714Y-140043771D02*
X236410476Y-140091390D01*
X236410476Y-140091390D02*
X236362857Y-140139009D01*
X236362857Y-140139009D02*
X236315238Y-140234247D01*
X235886666Y-128486819D02*
X235886666Y-129201104D01*
X235886666Y-129201104D02*
X235839047Y-129343961D01*
X235839047Y-129343961D02*
X235743809Y-129439200D01*
X235743809Y-129439200D02*
X235600952Y-129486819D01*
X235600952Y-129486819D02*
X235505714Y-129486819D01*
X236791428Y-128820152D02*
X236791428Y-129486819D01*
X236553333Y-128439200D02*
X236315238Y-129153485D01*
X236315238Y-129153485D02*
X236934285Y-129153485D01*
X233753819Y-85939238D02*
X233277628Y-86272571D01*
X233753819Y-86510666D02*
X232753819Y-86510666D01*
X232753819Y-86510666D02*
X232753819Y-86129714D01*
X232753819Y-86129714D02*
X232801438Y-86034476D01*
X232801438Y-86034476D02*
X232849057Y-85986857D01*
X232849057Y-85986857D02*
X232944295Y-85939238D01*
X232944295Y-85939238D02*
X233087152Y-85939238D01*
X233087152Y-85939238D02*
X233182390Y-85986857D01*
X233182390Y-85986857D02*
X233230009Y-86034476D01*
X233230009Y-86034476D02*
X233277628Y-86129714D01*
X233277628Y-86129714D02*
X233277628Y-86510666D01*
X232753819Y-85653523D02*
X233753819Y-85320190D01*
X233753819Y-85320190D02*
X232753819Y-84986857D01*
X232849057Y-84701142D02*
X232801438Y-84653523D01*
X232801438Y-84653523D02*
X232753819Y-84558285D01*
X232753819Y-84558285D02*
X232753819Y-84320190D01*
X232753819Y-84320190D02*
X232801438Y-84224952D01*
X232801438Y-84224952D02*
X232849057Y-84177333D01*
X232849057Y-84177333D02*
X232944295Y-84129714D01*
X232944295Y-84129714D02*
X233039533Y-84129714D01*
X233039533Y-84129714D02*
X233182390Y-84177333D01*
X233182390Y-84177333D02*
X233753819Y-84748761D01*
X233753819Y-84748761D02*
X233753819Y-84129714D01*
X225566857Y-85529009D02*
X225709714Y-85576628D01*
X225709714Y-85576628D02*
X225757333Y-85624247D01*
X225757333Y-85624247D02*
X225804952Y-85719485D01*
X225804952Y-85719485D02*
X225804952Y-85862342D01*
X225804952Y-85862342D02*
X225757333Y-85957580D01*
X225757333Y-85957580D02*
X225709714Y-86005200D01*
X225709714Y-86005200D02*
X225614476Y-86052819D01*
X225614476Y-86052819D02*
X225233524Y-86052819D01*
X225233524Y-86052819D02*
X225233524Y-85052819D01*
X225233524Y-85052819D02*
X225566857Y-85052819D01*
X225566857Y-85052819D02*
X225662095Y-85100438D01*
X225662095Y-85100438D02*
X225709714Y-85148057D01*
X225709714Y-85148057D02*
X225757333Y-85243295D01*
X225757333Y-85243295D02*
X225757333Y-85338533D01*
X225757333Y-85338533D02*
X225709714Y-85433771D01*
X225709714Y-85433771D02*
X225662095Y-85481390D01*
X225662095Y-85481390D02*
X225566857Y-85529009D01*
X225566857Y-85529009D02*
X225233524Y-85529009D01*
X226757333Y-86052819D02*
X226185905Y-86052819D01*
X226471619Y-86052819D02*
X226471619Y-85052819D01*
X226471619Y-85052819D02*
X226376381Y-85195676D01*
X226376381Y-85195676D02*
X226281143Y-85290914D01*
X226281143Y-85290914D02*
X226185905Y-85338533D01*
X227376381Y-85052819D02*
X227471619Y-85052819D01*
X227471619Y-85052819D02*
X227566857Y-85100438D01*
X227566857Y-85100438D02*
X227614476Y-85148057D01*
X227614476Y-85148057D02*
X227662095Y-85243295D01*
X227662095Y-85243295D02*
X227709714Y-85433771D01*
X227709714Y-85433771D02*
X227709714Y-85671866D01*
X227709714Y-85671866D02*
X227662095Y-85862342D01*
X227662095Y-85862342D02*
X227614476Y-85957580D01*
X227614476Y-85957580D02*
X227566857Y-86005200D01*
X227566857Y-86005200D02*
X227471619Y-86052819D01*
X227471619Y-86052819D02*
X227376381Y-86052819D01*
X227376381Y-86052819D02*
X227281143Y-86005200D01*
X227281143Y-86005200D02*
X227233524Y-85957580D01*
X227233524Y-85957580D02*
X227185905Y-85862342D01*
X227185905Y-85862342D02*
X227138286Y-85671866D01*
X227138286Y-85671866D02*
X227138286Y-85433771D01*
X227138286Y-85433771D02*
X227185905Y-85243295D01*
X227185905Y-85243295D02*
X227233524Y-85148057D01*
X227233524Y-85148057D02*
X227281143Y-85100438D01*
X227281143Y-85100438D02*
X227376381Y-85052819D01*
X228328762Y-85052819D02*
X228424000Y-85052819D01*
X228424000Y-85052819D02*
X228519238Y-85100438D01*
X228519238Y-85100438D02*
X228566857Y-85148057D01*
X228566857Y-85148057D02*
X228614476Y-85243295D01*
X228614476Y-85243295D02*
X228662095Y-85433771D01*
X228662095Y-85433771D02*
X228662095Y-85671866D01*
X228662095Y-85671866D02*
X228614476Y-85862342D01*
X228614476Y-85862342D02*
X228566857Y-85957580D01*
X228566857Y-85957580D02*
X228519238Y-86005200D01*
X228519238Y-86005200D02*
X228424000Y-86052819D01*
X228424000Y-86052819D02*
X228328762Y-86052819D01*
X228328762Y-86052819D02*
X228233524Y-86005200D01*
X228233524Y-86005200D02*
X228185905Y-85957580D01*
X228185905Y-85957580D02*
X228138286Y-85862342D01*
X228138286Y-85862342D02*
X228090667Y-85671866D01*
X228090667Y-85671866D02*
X228090667Y-85433771D01*
X228090667Y-85433771D02*
X228138286Y-85243295D01*
X228138286Y-85243295D02*
X228185905Y-85148057D01*
X228185905Y-85148057D02*
X228233524Y-85100438D01*
X228233524Y-85100438D02*
X228328762Y-85052819D01*
X229090667Y-86052819D02*
X229090667Y-85052819D01*
X229662095Y-86052819D02*
X229233524Y-85481390D01*
X229662095Y-85052819D02*
X229090667Y-85624247D01*
X229766905Y-151076819D02*
X229766905Y-150076819D01*
X229766905Y-150076819D02*
X230005000Y-150076819D01*
X230005000Y-150076819D02*
X230147857Y-150124438D01*
X230147857Y-150124438D02*
X230243095Y-150219676D01*
X230243095Y-150219676D02*
X230290714Y-150314914D01*
X230290714Y-150314914D02*
X230338333Y-150505390D01*
X230338333Y-150505390D02*
X230338333Y-150648247D01*
X230338333Y-150648247D02*
X230290714Y-150838723D01*
X230290714Y-150838723D02*
X230243095Y-150933961D01*
X230243095Y-150933961D02*
X230147857Y-151029200D01*
X230147857Y-151029200D02*
X230005000Y-151076819D01*
X230005000Y-151076819D02*
X229766905Y-151076819D01*
X230671667Y-150076819D02*
X231338333Y-150076819D01*
X231338333Y-150076819D02*
X230909762Y-151076819D01*
X233753819Y-65619238D02*
X233277628Y-65952571D01*
X233753819Y-66190666D02*
X232753819Y-66190666D01*
X232753819Y-66190666D02*
X232753819Y-65809714D01*
X232753819Y-65809714D02*
X232801438Y-65714476D01*
X232801438Y-65714476D02*
X232849057Y-65666857D01*
X232849057Y-65666857D02*
X232944295Y-65619238D01*
X232944295Y-65619238D02*
X233087152Y-65619238D01*
X233087152Y-65619238D02*
X233182390Y-65666857D01*
X233182390Y-65666857D02*
X233230009Y-65714476D01*
X233230009Y-65714476D02*
X233277628Y-65809714D01*
X233277628Y-65809714D02*
X233277628Y-66190666D01*
X232753819Y-65333523D02*
X233753819Y-65000190D01*
X233753819Y-65000190D02*
X232753819Y-64666857D01*
X232753819Y-64428761D02*
X232753819Y-63809714D01*
X232753819Y-63809714D02*
X233134771Y-64143047D01*
X233134771Y-64143047D02*
X233134771Y-64000190D01*
X233134771Y-64000190D02*
X233182390Y-63904952D01*
X233182390Y-63904952D02*
X233230009Y-63857333D01*
X233230009Y-63857333D02*
X233325247Y-63809714D01*
X233325247Y-63809714D02*
X233563342Y-63809714D01*
X233563342Y-63809714D02*
X233658580Y-63857333D01*
X233658580Y-63857333D02*
X233706200Y-63904952D01*
X233706200Y-63904952D02*
X233753819Y-64000190D01*
X233753819Y-64000190D02*
X233753819Y-64285904D01*
X233753819Y-64285904D02*
X233706200Y-64381142D01*
X233706200Y-64381142D02*
X233658580Y-64428761D01*
X225726857Y-65209009D02*
X225869714Y-65256628D01*
X225869714Y-65256628D02*
X225917333Y-65304247D01*
X225917333Y-65304247D02*
X225964952Y-65399485D01*
X225964952Y-65399485D02*
X225964952Y-65542342D01*
X225964952Y-65542342D02*
X225917333Y-65637580D01*
X225917333Y-65637580D02*
X225869714Y-65685200D01*
X225869714Y-65685200D02*
X225774476Y-65732819D01*
X225774476Y-65732819D02*
X225393524Y-65732819D01*
X225393524Y-65732819D02*
X225393524Y-64732819D01*
X225393524Y-64732819D02*
X225726857Y-64732819D01*
X225726857Y-64732819D02*
X225822095Y-64780438D01*
X225822095Y-64780438D02*
X225869714Y-64828057D01*
X225869714Y-64828057D02*
X225917333Y-64923295D01*
X225917333Y-64923295D02*
X225917333Y-65018533D01*
X225917333Y-65018533D02*
X225869714Y-65113771D01*
X225869714Y-65113771D02*
X225822095Y-65161390D01*
X225822095Y-65161390D02*
X225726857Y-65209009D01*
X225726857Y-65209009D02*
X225393524Y-65209009D01*
X226917333Y-65732819D02*
X226345905Y-65732819D01*
X226631619Y-65732819D02*
X226631619Y-64732819D01*
X226631619Y-64732819D02*
X226536381Y-64875676D01*
X226536381Y-64875676D02*
X226441143Y-64970914D01*
X226441143Y-64970914D02*
X226345905Y-65018533D01*
X227536381Y-64732819D02*
X227631619Y-64732819D01*
X227631619Y-64732819D02*
X227726857Y-64780438D01*
X227726857Y-64780438D02*
X227774476Y-64828057D01*
X227774476Y-64828057D02*
X227822095Y-64923295D01*
X227822095Y-64923295D02*
X227869714Y-65113771D01*
X227869714Y-65113771D02*
X227869714Y-65351866D01*
X227869714Y-65351866D02*
X227822095Y-65542342D01*
X227822095Y-65542342D02*
X227774476Y-65637580D01*
X227774476Y-65637580D02*
X227726857Y-65685200D01*
X227726857Y-65685200D02*
X227631619Y-65732819D01*
X227631619Y-65732819D02*
X227536381Y-65732819D01*
X227536381Y-65732819D02*
X227441143Y-65685200D01*
X227441143Y-65685200D02*
X227393524Y-65637580D01*
X227393524Y-65637580D02*
X227345905Y-65542342D01*
X227345905Y-65542342D02*
X227298286Y-65351866D01*
X227298286Y-65351866D02*
X227298286Y-65113771D01*
X227298286Y-65113771D02*
X227345905Y-64923295D01*
X227345905Y-64923295D02*
X227393524Y-64828057D01*
X227393524Y-64828057D02*
X227441143Y-64780438D01*
X227441143Y-64780438D02*
X227536381Y-64732819D01*
X228488762Y-64732819D02*
X228584000Y-64732819D01*
X228584000Y-64732819D02*
X228679238Y-64780438D01*
X228679238Y-64780438D02*
X228726857Y-64828057D01*
X228726857Y-64828057D02*
X228774476Y-64923295D01*
X228774476Y-64923295D02*
X228822095Y-65113771D01*
X228822095Y-65113771D02*
X228822095Y-65351866D01*
X228822095Y-65351866D02*
X228774476Y-65542342D01*
X228774476Y-65542342D02*
X228726857Y-65637580D01*
X228726857Y-65637580D02*
X228679238Y-65685200D01*
X228679238Y-65685200D02*
X228584000Y-65732819D01*
X228584000Y-65732819D02*
X228488762Y-65732819D01*
X228488762Y-65732819D02*
X228393524Y-65685200D01*
X228393524Y-65685200D02*
X228345905Y-65637580D01*
X228345905Y-65637580D02*
X228298286Y-65542342D01*
X228298286Y-65542342D02*
X228250667Y-65351866D01*
X228250667Y-65351866D02*
X228250667Y-65113771D01*
X228250667Y-65113771D02*
X228298286Y-64923295D01*
X228298286Y-64923295D02*
X228345905Y-64828057D01*
X228345905Y-64828057D02*
X228393524Y-64780438D01*
X228393524Y-64780438D02*
X228488762Y-64732819D01*
X229250667Y-65732819D02*
X229250667Y-64732819D01*
X229822095Y-65732819D02*
X229393524Y-65161390D01*
X229822095Y-64732819D02*
X229250667Y-65304247D01*
D12*
%TO.C,D6*%
X226024000Y-125002000D02*
X226024000Y-125158000D01*
X226024000Y-127318000D02*
X226024000Y-127474000D01*
D10*
X229997000Y-125603000D02*
X230505000Y-125603000D01*
X230251000Y-125857000D02*
X230251000Y-125349000D01*
D12*
X229256334Y-125159392D02*
G75*
G03*
X226024001Y-125002485I-1672334J-1078608D01*
G01*
X228625129Y-125158164D02*
G75*
G03*
X226543040Y-125158001I-1041129J-1079836D01*
G01*
X226543040Y-127317999D02*
G75*
G03*
X228625129Y-127317836I1040960J1079999D01*
G01*
X226024001Y-127473515D02*
G75*
G03*
X229256334Y-127316608I1559999J1235515D01*
G01*
D10*
%TO.C,J3*%
X227104000Y-138688000D02*
X217904000Y-138688000D01*
X227104000Y-127988000D02*
X227104000Y-138688000D01*
X222504000Y-128088000D02*
X222504000Y-127127000D01*
X217904000Y-138688000D02*
X217904000Y-127988000D01*
X217904000Y-127988000D02*
X227104000Y-127988000D01*
X224504000Y-132588000D02*
G75*
G03*
X224504000Y-132588000I-2000000J0D01*
G01*
%TO.C,J1*%
X217904000Y-113788000D02*
X227104000Y-113788000D01*
X217904000Y-124488000D02*
X217904000Y-113788000D01*
X221304000Y-124488000D02*
X221304000Y-127588000D01*
X221304000Y-127588000D02*
X223704000Y-127588000D01*
X223704000Y-127588000D02*
X223704000Y-124488000D01*
X227104000Y-113788000D02*
X227104000Y-124488000D01*
X227104000Y-124488000D02*
X217904000Y-124488000D01*
X224504000Y-119888000D02*
G75*
G03*
X224504000Y-119888000I-2000000J0D01*
G01*
D12*
%TO.C,RV1*%
X222784000Y-96092000D02*
X232384000Y-96092000D01*
X222784000Y-99397000D02*
X222784000Y-96092000D01*
X222784000Y-107652000D02*
X222784000Y-103786000D01*
X222784000Y-107652000D02*
X224259000Y-107652000D01*
X225909000Y-107652000D02*
X226759000Y-107652000D01*
X228409000Y-107652000D02*
X229259000Y-107652000D01*
X230909000Y-107652000D02*
X232384000Y-107652000D01*
X232384000Y-99397000D02*
X232384000Y-96092000D01*
X232384000Y-107652000D02*
X232384000Y-103786000D01*
X230345999Y-99919000D02*
G75*
G03*
X224821569Y-99920018I-2761999J-1173000D01*
G01*
X225286000Y-103020000D02*
G75*
G03*
X229881753Y-103020295I2298000J1928000D01*
G01*
%TO.C,D8*%
X229143999Y-154212485D02*
G75*
G03*
X225911666Y-154369392I-1559999J-1235515D01*
G01*
X228624960Y-154368001D02*
G75*
G03*
X226542871Y-154368164I-1040960J-1079999D01*
G01*
X226542871Y-156527836D02*
G75*
G03*
X228624960Y-156527999I1041129J1079836D01*
G01*
X225911666Y-156526608D02*
G75*
G03*
X229143999Y-156683515I1672334J1078608D01*
G01*
D10*
X225425000Y-154432000D02*
X225425000Y-153924000D01*
X225679000Y-154178000D02*
X225171000Y-154178000D01*
D12*
X229144000Y-154368000D02*
X229144000Y-154212000D01*
X229144000Y-156684000D02*
X229144000Y-156528000D01*
D10*
%TO.C,J5*%
X217904000Y-139188000D02*
X227104000Y-139188000D01*
X217904000Y-149888000D02*
X217904000Y-139188000D01*
X221304000Y-149888000D02*
X221304000Y-152988000D01*
X221304000Y-152988000D02*
X223704000Y-152988000D01*
X223704000Y-152988000D02*
X223704000Y-149888000D01*
X227104000Y-139188000D02*
X227104000Y-149888000D01*
X227104000Y-149888000D02*
X217904000Y-149888000D01*
X224504000Y-145288000D02*
G75*
G03*
X224504000Y-145288000I-2000000J0D01*
G01*
%TO.C,J2*%
X228064000Y-113788000D02*
X237264000Y-113788000D01*
X228064000Y-124488000D02*
X228064000Y-113788000D01*
X231464000Y-124488000D02*
X231464000Y-127588000D01*
X231464000Y-127588000D02*
X233864000Y-127588000D01*
X233864000Y-127588000D02*
X233864000Y-124488000D01*
X237264000Y-113788000D02*
X237264000Y-124488000D01*
X237264000Y-124488000D02*
X228064000Y-124488000D01*
X234664000Y-119888000D02*
G75*
G03*
X234664000Y-119888000I-2000000J0D01*
G01*
%TO.C,J6*%
X228064000Y-139188000D02*
X237264000Y-139188000D01*
X228064000Y-149888000D02*
X228064000Y-139188000D01*
X231464000Y-149888000D02*
X231464000Y-152988000D01*
X231464000Y-152988000D02*
X233864000Y-152988000D01*
X233864000Y-152988000D02*
X233864000Y-149888000D01*
X237264000Y-139188000D02*
X237264000Y-149888000D01*
X237264000Y-149888000D02*
X228064000Y-149888000D01*
X234664000Y-145288000D02*
G75*
G03*
X234664000Y-145288000I-2000000J0D01*
G01*
%TO.C,J4*%
X237264000Y-138688000D02*
X228064000Y-138688000D01*
X237264000Y-127988000D02*
X237264000Y-138688000D01*
X232664000Y-128088000D02*
X232664000Y-127127000D01*
X228064000Y-138688000D02*
X228064000Y-127988000D01*
X228064000Y-127988000D02*
X237264000Y-127988000D01*
X234664000Y-132588000D02*
G75*
G03*
X234664000Y-132588000I-2000000J0D01*
G01*
D12*
%TO.C,RV2*%
X222784000Y-75772000D02*
X232384000Y-75772000D01*
X222784000Y-79077000D02*
X222784000Y-75772000D01*
X222784000Y-87332000D02*
X222784000Y-83466000D01*
X222784000Y-87332000D02*
X224259000Y-87332000D01*
X225909000Y-87332000D02*
X226759000Y-87332000D01*
X228409000Y-87332000D02*
X229259000Y-87332000D01*
X230909000Y-87332000D02*
X232384000Y-87332000D01*
X232384000Y-79077000D02*
X232384000Y-75772000D01*
X232384000Y-87332000D02*
X232384000Y-83466000D01*
X230345999Y-79599000D02*
G75*
G03*
X224821569Y-79600018I-2761999J-1173000D01*
G01*
X225286000Y-82700000D02*
G75*
G03*
X229881753Y-82700295I2298000J1928000D01*
G01*
%TO.C,D7*%
X226024000Y-150402000D02*
X226024000Y-150558000D01*
X226024000Y-152718000D02*
X226024000Y-152874000D01*
D10*
X229489000Y-152781000D02*
X229997000Y-152781000D01*
X229743000Y-152527000D02*
X229743000Y-153035000D01*
D12*
X229256334Y-150559392D02*
G75*
G03*
X226024001Y-150402485I-1672334J-1078608D01*
G01*
X228625129Y-150558164D02*
G75*
G03*
X226543040Y-150558001I-1041129J-1079836D01*
G01*
X226543040Y-152717999D02*
G75*
G03*
X228625129Y-152717836I1040960J1079999D01*
G01*
X226024001Y-152873515D02*
G75*
G03*
X229256334Y-152716608I1559999J1235515D01*
G01*
%TO.C,RV3*%
X222784000Y-55452000D02*
X232384000Y-55452000D01*
X222784000Y-58757000D02*
X222784000Y-55452000D01*
X222784000Y-67012000D02*
X222784000Y-63146000D01*
X222784000Y-67012000D02*
X224259000Y-67012000D01*
X225909000Y-67012000D02*
X226759000Y-67012000D01*
X228409000Y-67012000D02*
X229259000Y-67012000D01*
X230909000Y-67012000D02*
X232384000Y-67012000D01*
X232384000Y-58757000D02*
X232384000Y-55452000D01*
X232384000Y-67012000D02*
X232384000Y-63146000D01*
X230345999Y-59279000D02*
G75*
G03*
X224821569Y-59280018I-2761999J-1173000D01*
G01*
X225286000Y-62380000D02*
G75*
G03*
X229881753Y-62380295I2298000J1928000D01*
G01*
%TD*%
%LPC*%
D13*
%TO.C,D6*%
X226314000Y-126238000D03*
D14*
X228854000Y-126238000D03*
%TD*%
D15*
%TO.C,J7*%
X219837000Y-91694000D03*
D16*
X219837000Y-94234000D03*
X219837000Y-96774000D03*
X219837000Y-99314000D03*
X219837000Y-101854000D03*
X219837000Y-104394000D03*
X219837000Y-106934000D03*
%TD*%
D17*
%TO.C,R7*%
X222450000Y-64390000D03*
D18*
X222450000Y-72010000D03*
%TD*%
%TO.C,R29*%
X230320000Y-111720000D03*
D17*
X222700000Y-111720000D03*
%TD*%
D19*
%TO.C,J3*%
X222504000Y-132588000D03*
D20*
X222504000Y-129208000D03*
X222504000Y-137508000D03*
%TD*%
D19*
%TO.C,J1*%
X222504000Y-119888000D03*
D20*
X222504000Y-126368000D03*
X222504000Y-123268000D03*
X222504000Y-114968000D03*
%TD*%
D21*
%TO.C,RV1*%
X225084000Y-108592000D03*
X227584000Y-108592000D03*
X230084000Y-108592000D03*
D22*
X222384000Y-101092000D03*
X232784000Y-101092000D03*
%TD*%
D14*
%TO.C,D8*%
X226314000Y-155448000D03*
D13*
X228854000Y-155448000D03*
%TD*%
D19*
%TO.C,J5*%
X222504000Y-145288000D03*
D20*
X222504000Y-151768000D03*
X222504000Y-148668000D03*
X222504000Y-140368000D03*
%TD*%
D19*
%TO.C,J2*%
X232664000Y-119888000D03*
D20*
X232664000Y-126368000D03*
X232664000Y-123268000D03*
X232664000Y-114968000D03*
%TD*%
D19*
%TO.C,J6*%
X232664000Y-145288000D03*
D20*
X232664000Y-151768000D03*
X232664000Y-148668000D03*
X232664000Y-140368000D03*
%TD*%
D23*
%TO.C,H1*%
X227605001Y-92756001D03*
%TD*%
D19*
%TO.C,J4*%
X232664000Y-132588000D03*
D20*
X232664000Y-129208000D03*
X232664000Y-137508000D03*
%TD*%
D21*
%TO.C,RV2*%
X225084000Y-88272000D03*
X227584000Y-88272000D03*
X230084000Y-88272000D03*
D22*
X222384000Y-80772000D03*
X232784000Y-80772000D03*
%TD*%
D15*
%TO.C,J8*%
X235331000Y-91694000D03*
D16*
X235331000Y-94234000D03*
X235331000Y-96774000D03*
X235331000Y-99314000D03*
X235331000Y-101854000D03*
X235331000Y-104394000D03*
X235331000Y-106934000D03*
%TD*%
D13*
%TO.C,D7*%
X226314000Y-151638000D03*
D14*
X228854000Y-151638000D03*
%TD*%
D21*
%TO.C,RV3*%
X225084000Y-67952000D03*
X227584000Y-67952000D03*
X230084000Y-67952000D03*
D22*
X222384000Y-60452000D03*
X232784000Y-60452000D03*
%TD*%
D17*
%TO.C,R3*%
X234490000Y-71990000D03*
D18*
X226870000Y-71990000D03*
%TD*%
%TO.C,R1*%
X220090000Y-74510000D03*
D17*
X227710000Y-74510000D03*
%TD*%
%TO.C,R9*%
X219980000Y-64390000D03*
D18*
X219980000Y-72010000D03*
%TD*%
D17*
%TO.C,R15*%
X235280000Y-151720000D03*
D18*
X235280000Y-154260000D03*
%TD*%
%TO.C,R17*%
X220180000Y-151740000D03*
D17*
X220180000Y-154280000D03*
%TD*%
D18*
%TO.C,R21*%
X232540000Y-112480000D03*
D17*
X232540000Y-109940000D03*
%TD*%
%LPD*%
M02*
