%TF.GenerationSoftware,KiCad,Pcbnew,7.0.8*%
%TF.CreationDate,2024-02-10T19:54:04+11:00*%
%TF.ProjectId,JNTUB,4a4e5455-422e-46b6-9963-61645f706362,rev?*%
%TF.SameCoordinates,Original*%
%TF.FileFunction,Copper,L2,Bot*%
%TF.FilePolarity,Positive*%
%FSLAX46Y46*%
G04 Gerber Fmt 4.6, Leading zero omitted, Abs format (unit mm)*
G04 Created by KiCad (PCBNEW 7.0.8) date 2024-02-10 19:54:04*
%MOMM*%
%LPD*%
G01*
G04 APERTURE LIST*
%TA.AperFunction,ComponentPad*%
%ADD10R,1.800000X1.800000*%
%TD*%
%TA.AperFunction,ComponentPad*%
%ADD11C,1.800000*%
%TD*%
%TA.AperFunction,ComponentPad*%
%ADD12R,1.700000X1.700000*%
%TD*%
%TA.AperFunction,ComponentPad*%
%ADD13O,1.700000X1.700000*%
%TD*%
%TA.AperFunction,ComponentPad*%
%ADD14O,1.400000X1.400000*%
%TD*%
%TA.AperFunction,ComponentPad*%
%ADD15C,1.400000*%
%TD*%
%TA.AperFunction,ComponentPad*%
%ADD16C,2.000000*%
%TD*%
%TA.AperFunction,ComponentPad*%
%ADD17C,2.100000*%
%TD*%
%TA.AperFunction,ComponentPad*%
%ADD18O,2.500000X2.800000*%
%TD*%
%TA.AperFunction,ViaPad*%
%ADD19C,0.762000*%
%TD*%
%TA.AperFunction,Conductor*%
%ADD20C,0.609600*%
%TD*%
%TA.AperFunction,Conductor*%
%ADD21C,0.508000*%
%TD*%
%TA.AperFunction,Conductor*%
%ADD22C,0.304800*%
%TD*%
%TA.AperFunction,Conductor*%
%ADD23C,1.270000*%
%TD*%
%TA.AperFunction,Conductor*%
%ADD24C,0.762000*%
%TD*%
G04 APERTURE END LIST*
D10*
%TO.P,D6,1,K*%
%TO.N,GNDREF*%
X226314000Y-126238000D03*
D11*
%TO.P,D6,2,A*%
%TO.N,/PeripheralBoard/CLK_LED*%
X228854000Y-126238000D03*
%TD*%
D12*
%TO.P,J7,1,Pin_1*%
%TO.N,+5V*%
X219837000Y-91694000D03*
D13*
%TO.P,J7,2,Pin_2*%
%TO.N,-5V*%
X219837000Y-94234000D03*
%TO.P,J7,3,Pin_3*%
%TO.N,unconnected-(J7-Pin_3-Pad3)*%
X219837000Y-96774000D03*
%TO.P,J7,4,Pin_4*%
%TO.N,/PeripheralBoard/LED_NEG*%
X219837000Y-99314000D03*
%TO.P,J7,5,Pin_5*%
%TO.N,/PeripheralBoard/LED_POS*%
X219837000Y-101854000D03*
%TO.P,J7,6,Pin_6*%
%TO.N,/PeripheralBoard/P3_POT*%
X219837000Y-104394000D03*
%TO.P,J7,7,Pin_7*%
%TO.N,/PeripheralBoard/P2_AVG*%
X219837000Y-106934000D03*
%TD*%
D14*
%TO.P,R7,2*%
%TO.N,/PeripheralBoard/P1_AVG*%
X222450000Y-64390000D03*
D15*
%TO.P,R7,1*%
%TO.N,/PeripheralBoard/P1_POT*%
X222450000Y-72010000D03*
%TD*%
%TO.P,R29,1*%
%TO.N,GNDREF*%
X230320000Y-111720000D03*
D14*
%TO.P,R29,2*%
%TO.N,Net-(J1-Pad2)*%
X222700000Y-111720000D03*
%TD*%
D16*
%TO.P,J3,2*%
%TO.N,unconnected-(J3-Pad2)*%
X222504000Y-129208000D03*
%TO.P,J3,3*%
%TO.N,/PeripheralBoard/CLK_TRG*%
X222504000Y-137508000D03*
%TD*%
%TO.P,J1,1*%
%TO.N,GNDREF*%
X222504000Y-126368000D03*
%TO.P,J1,2*%
%TO.N,Net-(J1-Pad2)*%
X222504000Y-123268000D03*
%TO.P,J1,3*%
%TO.N,/PeripheralBoard/P1_CV*%
X222504000Y-114968000D03*
%TD*%
D17*
%TO.P,RV1,1,1*%
%TO.N,-5V*%
X225084000Y-108592000D03*
%TO.P,RV1,2,2*%
%TO.N,/PeripheralBoard/P1_POT*%
X227584000Y-108592000D03*
%TO.P,RV1,3,3*%
%TO.N,+5V*%
X230084000Y-108592000D03*
D18*
%TO.P,RV1,MP,MountPin*%
%TO.N,GNDREF*%
X222384000Y-101092000D03*
X232784000Y-101092000D03*
%TD*%
D11*
%TO.P,D8,2,A*%
%TO.N,/PeripheralBoard/LED_NEG*%
X226314000Y-155448000D03*
D10*
%TO.P,D8,1,K*%
%TO.N,/PeripheralBoard/LED_POS*%
X228854000Y-155448000D03*
%TD*%
D16*
%TO.P,J5,1*%
%TO.N,GNDREF*%
X222504000Y-151768000D03*
%TO.P,J5,2*%
%TO.N,unconnected-(J5-Pad2)*%
X222504000Y-148668000D03*
%TO.P,J5,3*%
%TO.N,/PeripheralBoard/OUT1*%
X222504000Y-140368000D03*
%TD*%
%TO.P,J2,1*%
%TO.N,GNDREF*%
X232664000Y-126368000D03*
%TO.P,J2,2*%
%TO.N,Net-(J1-Pad2)*%
X232664000Y-123268000D03*
%TO.P,J2,3*%
%TO.N,/PeripheralBoard/P2_CV*%
X232664000Y-114968000D03*
%TD*%
%TO.P,J6,1*%
%TO.N,GNDREF*%
X232664000Y-151768000D03*
%TO.P,J6,2*%
%TO.N,unconnected-(J6-Pad2)*%
X232664000Y-148668000D03*
%TO.P,J6,3*%
%TO.N,/PeripheralBoard/OUT1*%
X232664000Y-140368000D03*
%TD*%
%TO.P,J4,2*%
%TO.N,unconnected-(J4-Pad2)*%
X232664000Y-129208000D03*
%TO.P,J4,3*%
%TO.N,/PeripheralBoard/DITTO*%
X232664000Y-137508000D03*
%TD*%
D17*
%TO.P,RV2,1,1*%
%TO.N,-5V*%
X225084000Y-88272000D03*
%TO.P,RV2,2,2*%
%TO.N,/PeripheralBoard/P2_POT*%
X227584000Y-88272000D03*
%TO.P,RV2,3,3*%
%TO.N,+5V*%
X230084000Y-88272000D03*
D18*
%TO.P,RV2,MP,MountPin*%
%TO.N,GNDREF*%
X222384000Y-80772000D03*
X232784000Y-80772000D03*
%TD*%
D12*
%TO.P,J8,1,Pin_1*%
%TO.N,/PeripheralBoard/OUT*%
X235331000Y-91694000D03*
D13*
%TO.P,J8,2,Pin_2*%
%TO.N,GNDREF*%
X235331000Y-94234000D03*
%TO.P,J8,3,Pin_3*%
X235331000Y-96774000D03*
%TO.P,J8,4,Pin_4*%
X235331000Y-99314000D03*
%TO.P,J8,5,Pin_5*%
%TO.N,/PeripheralBoard/CLK_LED*%
X235331000Y-101854000D03*
%TO.P,J8,6,Pin_6*%
%TO.N,/PeripheralBoard/CLK_TRG*%
X235331000Y-104394000D03*
%TO.P,J8,7,Pin_7*%
%TO.N,/PeripheralBoard/P1_AVG*%
X235331000Y-106934000D03*
%TD*%
D10*
%TO.P,D7,1,K*%
%TO.N,/PeripheralBoard/LED_NEG*%
X226314000Y-151638000D03*
D11*
%TO.P,D7,2,A*%
%TO.N,/PeripheralBoard/LED_POS*%
X228854000Y-151638000D03*
%TD*%
D17*
%TO.P,RV3,1,1*%
%TO.N,GNDREF*%
X225084000Y-67952000D03*
%TO.P,RV3,2,2*%
%TO.N,/PeripheralBoard/P3_POT*%
X227584000Y-67952000D03*
%TO.P,RV3,3,3*%
%TO.N,+5V*%
X230084000Y-67952000D03*
D18*
%TO.P,RV3,MP,MountPin*%
%TO.N,GNDREF*%
X222384000Y-60452000D03*
X232784000Y-60452000D03*
%TD*%
D14*
%TO.P,R3,2*%
%TO.N,/PeripheralBoard/P2_CV*%
X234490000Y-71990000D03*
D15*
%TO.P,R3,1*%
%TO.N,/PeripheralBoard/P2_AVG*%
X226870000Y-71990000D03*
%TD*%
%TO.P,R1,1*%
%TO.N,/PeripheralBoard/P2_AVG*%
X220090000Y-74510000D03*
D14*
%TO.P,R1,2*%
%TO.N,/PeripheralBoard/P2_POT*%
X227710000Y-74510000D03*
%TD*%
%TO.P,R9,2*%
%TO.N,/PeripheralBoard/P1_AVG*%
X219980000Y-64390000D03*
D15*
%TO.P,R9,1*%
%TO.N,/PeripheralBoard/P1_CV*%
X219980000Y-72010000D03*
%TD*%
D14*
%TO.P,R15,2*%
%TO.N,/PeripheralBoard/DITTO*%
X235280000Y-151720000D03*
D15*
%TO.P,R15,1*%
%TO.N,/PeripheralBoard/CLK_TRG*%
X235280000Y-154260000D03*
%TD*%
%TO.P,R17,1*%
%TO.N,GNDREF*%
X220180000Y-151740000D03*
D14*
%TO.P,R17,2*%
%TO.N,/PeripheralBoard/CLK_TRG*%
X220180000Y-154280000D03*
%TD*%
D15*
%TO.P,R21,1*%
%TO.N,/PeripheralBoard/OUT1*%
X232540000Y-112480000D03*
D14*
%TO.P,R21,2*%
%TO.N,/PeripheralBoard/OUT*%
X232540000Y-109940000D03*
%TD*%
D19*
%TO.N,-5V*%
X226441000Y-104521000D03*
%TO.N,+5V*%
X228727000Y-104521000D03*
X229362000Y-96869902D03*
%TO.N,/PeripheralBoard/OUT*%
X234188000Y-84836000D03*
%TO.N,/PeripheralBoard/CLK_TRG*%
X236474000Y-111760000D03*
%TO.N,/PeripheralBoard/P2_AVG*%
X225130000Y-74440000D03*
%TO.N,/PeripheralBoard/CLK_LED*%
X229616000Y-135255000D03*
X227203000Y-135255000D03*
%TO.N,-5V*%
X228092000Y-98171000D03*
%TO.N,/PeripheralBoard/LED_POS*%
X219964000Y-108966000D03*
X227210000Y-136630000D03*
%TO.N,/PeripheralBoard/OUT1*%
X230620000Y-122440000D03*
%TO.N,/PeripheralBoard/LED_NEG*%
X220560000Y-142870000D03*
%TD*%
D20*
%TO.N,+5V*%
X229362000Y-96869902D02*
X229362000Y-98679000D01*
X227711000Y-100330000D02*
X227711000Y-103505000D01*
%TO.N,-5V*%
X227000236Y-99314000D02*
X227000236Y-99262764D01*
X226441000Y-104521000D02*
X226441000Y-99314000D01*
%TO.N,+5V*%
X227711000Y-103505000D02*
X228727000Y-104521000D01*
%TO.N,-5V*%
X227000236Y-99262764D02*
X228092000Y-98171000D01*
D21*
%TO.N,/PeripheralBoard/OUT*%
X235331000Y-91694000D02*
X235331000Y-85979000D01*
X235331000Y-85979000D02*
X234188000Y-84836000D01*
D22*
%TO.N,/PeripheralBoard/CLK_TRG*%
X236533081Y-104394000D02*
X236703790Y-104564709D01*
X236703790Y-110006210D02*
X236474000Y-110236000D01*
X236474000Y-110236000D02*
X236474000Y-111760000D01*
X235331000Y-104394000D02*
X236533081Y-104394000D01*
X236703790Y-104564709D02*
X236703790Y-110006210D01*
D20*
%TO.N,/PeripheralBoard/LED_NEG*%
X226314000Y-151638000D02*
X226314000Y-155448000D01*
%TO.N,-5V*%
X226441000Y-99314000D02*
X227000236Y-99314000D01*
D22*
%TO.N,/PeripheralBoard/LED_POS*%
X218464210Y-103226790D02*
X218464210Y-107466210D01*
X218464210Y-107466210D02*
X219964000Y-108966000D01*
X219837000Y-101854000D02*
X218464210Y-103226790D01*
D20*
X228854000Y-151638000D02*
X228854000Y-155448000D01*
%TO.N,+5V*%
X229362000Y-98679000D02*
X227711000Y-100330000D01*
%TO.N,/PeripheralBoard/P2_AVG*%
X225130000Y-74440000D02*
X225010000Y-74560000D01*
%TO.N,/PeripheralBoard/CLK_LED*%
X227203000Y-135255000D02*
X227208000Y-135260000D01*
X227208000Y-135260000D02*
X229611000Y-135260000D01*
X229611000Y-135260000D02*
X229616000Y-135255000D01*
%TO.N,+5V*%
X222885000Y-94555000D02*
X222885000Y-93345000D01*
X227742098Y-96869902D02*
X226441000Y-98171000D01*
X226441000Y-98171000D02*
X226441000Y-98111000D01*
X221234000Y-91694000D02*
X219837000Y-91694000D01*
X229362000Y-96869902D02*
X227742098Y-96869902D01*
%TO.N,-5V*%
X219837000Y-94234000D02*
X221234000Y-94234000D01*
%TO.N,+5V*%
X226441000Y-98111000D02*
X222885000Y-94555000D01*
%TO.N,-5V*%
X221234000Y-94234000D02*
X221615000Y-94615000D01*
X225674000Y-99314000D02*
X226441000Y-99314000D01*
X221615000Y-95255000D02*
X225674000Y-99314000D01*
X221615000Y-94615000D02*
X221615000Y-95255000D01*
%TO.N,+5V*%
X222885000Y-93345000D02*
X221234000Y-91694000D01*
%TO.N,/PeripheralBoard/LED_POS*%
X228854000Y-151638000D02*
X228854000Y-150495000D01*
%TO.N,/PeripheralBoard/P2_AVG*%
X225010000Y-74560000D02*
X220140000Y-74560000D01*
X220140000Y-74560000D02*
X220090000Y-74510000D01*
%TO.N,/PeripheralBoard/LED_POS*%
X227930000Y-136630000D02*
X227210000Y-136630000D01*
X228854000Y-150495000D02*
X229690000Y-149659000D01*
X229690000Y-149659000D02*
X229690000Y-138390000D01*
X229690000Y-138390000D02*
X227930000Y-136630000D01*
D23*
%TO.N,GNDREF*%
X220208000Y-151768000D02*
X222504000Y-151768000D01*
X220180000Y-151740000D02*
X220208000Y-151768000D01*
D20*
%TO.N,/PeripheralBoard/LED_NEG*%
X224785000Y-142870000D02*
X226314000Y-144399000D01*
X220560000Y-142870000D02*
X224785000Y-142870000D01*
X226314000Y-144399000D02*
X226314000Y-151638000D01*
D24*
%TO.N,/PeripheralBoard/OUT1*%
X234540000Y-116920000D02*
X235290000Y-116170000D01*
X230620000Y-122440000D02*
X229770000Y-121590000D01*
X229770000Y-121590000D02*
X229770000Y-118110000D01*
X230960000Y-116920000D02*
X234540000Y-116920000D01*
X234310000Y-112480000D02*
X232540000Y-112480000D01*
X235290000Y-113460000D02*
X234310000Y-112480000D01*
X229770000Y-118110000D02*
X230960000Y-116920000D01*
X235290000Y-116170000D02*
X235290000Y-113460000D01*
%TD*%
%TA.AperFunction,Conductor*%
%TO.N,GNDREF*%
G36*
X237046031Y-58007524D02*
G01*
X237116386Y-58063630D01*
X237155430Y-58144706D01*
X237160500Y-58189700D01*
X237160500Y-90607923D01*
X237140476Y-90695654D01*
X237084370Y-90766009D01*
X237003294Y-90805053D01*
X236913306Y-90805053D01*
X236832230Y-90766009D01*
X236776124Y-90695654D01*
X236764129Y-90664336D01*
X236757449Y-90641343D01*
X236745372Y-90599774D01*
X236666905Y-90467093D01*
X236557907Y-90358095D01*
X236557906Y-90358094D01*
X236425226Y-90279628D01*
X236340887Y-90255125D01*
X236262226Y-90211420D01*
X236210318Y-90137912D01*
X236195100Y-90060954D01*
X236195100Y-86018226D01*
X236195434Y-86010017D01*
X236199876Y-85955465D01*
X236199875Y-85955464D01*
X236199876Y-85955462D01*
X236188769Y-85873941D01*
X236179874Y-85792149D01*
X236179872Y-85792143D01*
X236177518Y-85781447D01*
X236178060Y-85781327D01*
X236177687Y-85779735D01*
X236177149Y-85779869D01*
X236174504Y-85769234D01*
X236169674Y-85756088D01*
X236146131Y-85692006D01*
X236119860Y-85614034D01*
X236119858Y-85614030D01*
X236115254Y-85604078D01*
X236115758Y-85603844D01*
X236115057Y-85602381D01*
X236114559Y-85602629D01*
X236109690Y-85592812D01*
X236109688Y-85592809D01*
X236109687Y-85592806D01*
X236065375Y-85523480D01*
X236022963Y-85452990D01*
X236016326Y-85444259D01*
X236016764Y-85443925D01*
X236015760Y-85442641D01*
X236015332Y-85442986D01*
X236008464Y-85434442D01*
X235950269Y-85376247D01*
X235893705Y-85316533D01*
X235893701Y-85316530D01*
X235893700Y-85316529D01*
X235885349Y-85309435D01*
X235885706Y-85309014D01*
X235870328Y-85296306D01*
X235178378Y-84604356D01*
X235130502Y-84528161D01*
X235127868Y-84520096D01*
X235108088Y-84454887D01*
X235108087Y-84454885D01*
X235108087Y-84454884D01*
X235059280Y-84363575D01*
X235016057Y-84282710D01*
X234892205Y-84131795D01*
X234741290Y-84007943D01*
X234730844Y-84002359D01*
X234569115Y-83915912D01*
X234569109Y-83915910D01*
X234382288Y-83859239D01*
X234188004Y-83840104D01*
X234187996Y-83840104D01*
X233993711Y-83859239D01*
X233806890Y-83915910D01*
X233806884Y-83915912D01*
X233634711Y-84007942D01*
X233483795Y-84131795D01*
X233359942Y-84282711D01*
X233267912Y-84454884D01*
X233267910Y-84454890D01*
X233211239Y-84641711D01*
X233192104Y-84835995D01*
X233192104Y-84836004D01*
X233211239Y-85030288D01*
X233267910Y-85217109D01*
X233267912Y-85217115D01*
X233317034Y-85309014D01*
X233359943Y-85389290D01*
X233483795Y-85540205D01*
X233634710Y-85664057D01*
X233686999Y-85692006D01*
X233806884Y-85756087D01*
X233806885Y-85756087D01*
X233806887Y-85756088D01*
X233872074Y-85775862D01*
X233950214Y-85820489D01*
X233956356Y-85826378D01*
X234407677Y-86277699D01*
X234455553Y-86353894D01*
X234466900Y-86420676D01*
X234466900Y-90060954D01*
X234446876Y-90148685D01*
X234390770Y-90219040D01*
X234321113Y-90255125D01*
X234236773Y-90279628D01*
X234104093Y-90358094D01*
X233995094Y-90467093D01*
X233916628Y-90599773D01*
X233873623Y-90747794D01*
X233873622Y-90747801D01*
X233870962Y-90781607D01*
X233870900Y-90782390D01*
X233870901Y-92605606D01*
X233870901Y-92605607D01*
X233873621Y-92640197D01*
X233916627Y-92788225D01*
X233949595Y-92843970D01*
X233995095Y-92920907D01*
X234104093Y-93029905D01*
X234206030Y-93090190D01*
X234271350Y-93152083D01*
X234303348Y-93236189D01*
X234295685Y-93325850D01*
X234258960Y-93388998D01*
X234260812Y-93390440D01*
X234255678Y-93397035D01*
X234132582Y-93585446D01*
X234132578Y-93585454D01*
X234042178Y-93791544D01*
X234007319Y-93929199D01*
X234007320Y-93929200D01*
X234932531Y-93929200D01*
X234871507Y-94024156D01*
X234831000Y-94162111D01*
X234831000Y-94305889D01*
X234871507Y-94443844D01*
X234932531Y-94538800D01*
X234007320Y-94538800D01*
X234042178Y-94676455D01*
X234132578Y-94882545D01*
X234132582Y-94882553D01*
X234255676Y-95070961D01*
X234408096Y-95236533D01*
X234408102Y-95236538D01*
X234546728Y-95344436D01*
X234603661Y-95414124D01*
X234624720Y-95501612D01*
X234605733Y-95589574D01*
X234550462Y-95660587D01*
X234546728Y-95663564D01*
X234408102Y-95771461D01*
X234408096Y-95771466D01*
X234255676Y-95937038D01*
X234132582Y-96125446D01*
X234132578Y-96125454D01*
X234042178Y-96331544D01*
X234007319Y-96469199D01*
X234007320Y-96469200D01*
X234932531Y-96469200D01*
X234871507Y-96564156D01*
X234831000Y-96702111D01*
X234831000Y-96845889D01*
X234871507Y-96983844D01*
X234932531Y-97078800D01*
X234007320Y-97078800D01*
X234042178Y-97216455D01*
X234132578Y-97422545D01*
X234132582Y-97422553D01*
X234255676Y-97610961D01*
X234408096Y-97776533D01*
X234408102Y-97776538D01*
X234546728Y-97884436D01*
X234603661Y-97954124D01*
X234624720Y-98041612D01*
X234605733Y-98129574D01*
X234550462Y-98200587D01*
X234546728Y-98203564D01*
X234408102Y-98311461D01*
X234408096Y-98311466D01*
X234255676Y-98477038D01*
X234132582Y-98665446D01*
X234132578Y-98665454D01*
X234042178Y-98871544D01*
X234007319Y-99009199D01*
X234007320Y-99009200D01*
X234932531Y-99009200D01*
X234871507Y-99104156D01*
X234831000Y-99242111D01*
X234831000Y-99385889D01*
X234871507Y-99523844D01*
X234932531Y-99618800D01*
X234021926Y-99618800D01*
X233934195Y-99598776D01*
X233889281Y-99568155D01*
X233889084Y-99568403D01*
X233885785Y-99565772D01*
X233884400Y-99564828D01*
X233883170Y-99563686D01*
X233665463Y-99415257D01*
X233428072Y-99300935D01*
X233176289Y-99223270D01*
X233088800Y-99210083D01*
X233088800Y-100417059D01*
X232986457Y-100368900D01*
X232825138Y-100338127D01*
X232661234Y-100348439D01*
X232505044Y-100399188D01*
X232479200Y-100415589D01*
X232479200Y-99210083D01*
X232391710Y-99223270D01*
X232391709Y-99223270D01*
X232139927Y-99300935D01*
X231902536Y-99415257D01*
X231684830Y-99563686D01*
X231491680Y-99742903D01*
X231327402Y-99948901D01*
X231327396Y-99948910D01*
X231195654Y-100177092D01*
X231099390Y-100422370D01*
X231099390Y-100422371D01*
X231040761Y-100679241D01*
X231032671Y-100787200D01*
X232165500Y-100787200D01*
X232134000Y-100909886D01*
X232134000Y-101232894D01*
X232149417Y-101354933D01*
X232165993Y-101396800D01*
X231032671Y-101396800D01*
X231040761Y-101504758D01*
X231099390Y-101761628D01*
X231099390Y-101761629D01*
X231195654Y-102006907D01*
X231327396Y-102235089D01*
X231327402Y-102235098D01*
X231491680Y-102441096D01*
X231684830Y-102620313D01*
X231902536Y-102768742D01*
X232139927Y-102883064D01*
X232391709Y-102960729D01*
X232479200Y-102973915D01*
X232479200Y-101766940D01*
X232581543Y-101815100D01*
X232742862Y-101845873D01*
X232906766Y-101835561D01*
X233062956Y-101784812D01*
X233088800Y-101768410D01*
X233088800Y-102973915D01*
X233176290Y-102960729D01*
X233428072Y-102883064D01*
X233665463Y-102768742D01*
X233854187Y-102640073D01*
X233937954Y-102607197D01*
X234027690Y-102613922D01*
X234105621Y-102658916D01*
X234137364Y-102696545D01*
X234174827Y-102753886D01*
X234338712Y-102931912D01*
X234380498Y-102964435D01*
X234380499Y-102964436D01*
X234437432Y-103034124D01*
X234458490Y-103121613D01*
X234439503Y-103209575D01*
X234384231Y-103280587D01*
X234380499Y-103283564D01*
X234338712Y-103316088D01*
X234174826Y-103494114D01*
X234042483Y-103696681D01*
X234042475Y-103696695D01*
X233945279Y-103918279D01*
X233885877Y-104152855D01*
X233865896Y-104393994D01*
X233865896Y-104394005D01*
X233885877Y-104635144D01*
X233945279Y-104869720D01*
X234035012Y-105074290D01*
X234042479Y-105091312D01*
X234042483Y-105091318D01*
X234129955Y-105225205D01*
X234174827Y-105293886D01*
X234338712Y-105471912D01*
X234380498Y-105504435D01*
X234380499Y-105504436D01*
X234437432Y-105574124D01*
X234458490Y-105661613D01*
X234439503Y-105749575D01*
X234384231Y-105820587D01*
X234380499Y-105823564D01*
X234338712Y-105856088D01*
X234174826Y-106034114D01*
X234042483Y-106236681D01*
X234042475Y-106236695D01*
X233945279Y-106458279D01*
X233885877Y-106692855D01*
X233865896Y-106933994D01*
X233865896Y-106934005D01*
X233885877Y-107175144D01*
X233945279Y-107409720D01*
X234038153Y-107621450D01*
X234042479Y-107631312D01*
X234042483Y-107631318D01*
X234172767Y-107830734D01*
X234174827Y-107833886D01*
X234338712Y-108011912D01*
X234338715Y-108011914D01*
X234338714Y-108011914D01*
X234436260Y-108087837D01*
X234516673Y-108150425D01*
X234529663Y-108160535D01*
X234529662Y-108160535D01*
X234636069Y-108218119D01*
X234723973Y-108265691D01*
X234742476Y-108275704D01*
X234742479Y-108275705D01*
X234967330Y-108352896D01*
X234971338Y-108354272D01*
X234971340Y-108354272D01*
X234971346Y-108354274D01*
X235118691Y-108378861D01*
X235210013Y-108394100D01*
X235210017Y-108394100D01*
X235451983Y-108394100D01*
X235451987Y-108394100D01*
X235572675Y-108373960D01*
X235698911Y-108352896D01*
X235699153Y-108354350D01*
X235779410Y-108352452D01*
X235861387Y-108389568D01*
X235919141Y-108458577D01*
X235941233Y-108545810D01*
X235941290Y-108550591D01*
X235941290Y-109610067D01*
X235921266Y-109697798D01*
X235897699Y-109735478D01*
X235892221Y-109742405D01*
X235882754Y-109754379D01*
X235849461Y-109794057D01*
X235832602Y-109814149D01*
X235826463Y-109823482D01*
X235820602Y-109832984D01*
X235787625Y-109903705D01*
X235752606Y-109973433D01*
X235748797Y-109983896D01*
X235745273Y-109994532D01*
X235729498Y-110070935D01*
X235711499Y-110146877D01*
X235710205Y-110157954D01*
X235709230Y-110169092D01*
X235711500Y-110247075D01*
X235711500Y-111054480D01*
X235691476Y-111142211D01*
X235665603Y-111182754D01*
X235645942Y-111206710D01*
X235553912Y-111378884D01*
X235553910Y-111378890D01*
X235497239Y-111565711D01*
X235477130Y-111769885D01*
X235475501Y-111769724D01*
X235458080Y-111846054D01*
X235401974Y-111916409D01*
X235320898Y-111955453D01*
X235230910Y-111955453D01*
X235149834Y-111916409D01*
X235132927Y-111901300D01*
X235019677Y-111788050D01*
X234958907Y-111724120D01*
X234958899Y-111724113D01*
X234910273Y-111690267D01*
X234904140Y-111685643D01*
X234858208Y-111648191D01*
X234858207Y-111648190D01*
X234830279Y-111633602D01*
X234819322Y-111626964D01*
X234814283Y-111623457D01*
X234793463Y-111608966D01*
X234793460Y-111608964D01*
X234793459Y-111608964D01*
X234793458Y-111608963D01*
X234739017Y-111585601D01*
X234732074Y-111582304D01*
X234679545Y-111554865D01*
X234665202Y-111550761D01*
X234649239Y-111546193D01*
X234637179Y-111541899D01*
X234608229Y-111529476D01*
X234608227Y-111529475D01*
X234608223Y-111529473D01*
X234550185Y-111517546D01*
X234542724Y-111515715D01*
X234485756Y-111499414D01*
X234485747Y-111499413D01*
X234454332Y-111497021D01*
X234441647Y-111495242D01*
X234424094Y-111491635D01*
X234410785Y-111488900D01*
X234410784Y-111488900D01*
X234351520Y-111488900D01*
X234343848Y-111488608D01*
X234308649Y-111485927D01*
X234284766Y-111484109D01*
X234284762Y-111484109D01*
X234253509Y-111488089D01*
X234240725Y-111488900D01*
X233472405Y-111488900D01*
X233384674Y-111468876D01*
X233356429Y-111452333D01*
X233246889Y-111375633D01*
X233186508Y-111308910D01*
X233161058Y-111222597D01*
X233175578Y-111133788D01*
X233227192Y-111060075D01*
X233246889Y-111044367D01*
X233385330Y-110947430D01*
X233385329Y-110947430D01*
X233385333Y-110947428D01*
X233547428Y-110785333D01*
X233678913Y-110597552D01*
X233775794Y-110389792D01*
X233835125Y-110168365D01*
X233855104Y-109940000D01*
X233835125Y-109711635D01*
X233775794Y-109490208D01*
X233678913Y-109282448D01*
X233619190Y-109197154D01*
X233547430Y-109094669D01*
X233385330Y-108932569D01*
X233231601Y-108824928D01*
X233197552Y-108801087D01*
X233105418Y-108758124D01*
X232989797Y-108704208D01*
X232989793Y-108704206D01*
X232989792Y-108704206D01*
X232989790Y-108704205D01*
X232989786Y-108704204D01*
X232768369Y-108644876D01*
X232768368Y-108644875D01*
X232768365Y-108644875D01*
X232540000Y-108624896D01*
X232311635Y-108644875D01*
X232311631Y-108644875D01*
X232311630Y-108644876D01*
X232090213Y-108704204D01*
X232090202Y-108704208D01*
X231945444Y-108771711D01*
X231882448Y-108801087D01*
X231882445Y-108801088D01*
X231882445Y-108801089D01*
X231751621Y-108892691D01*
X231668270Y-108926608D01*
X231578457Y-108921001D01*
X231499972Y-108876981D01*
X231448358Y-108803267D01*
X231433839Y-108714459D01*
X231434133Y-108710409D01*
X231443945Y-108592000D01*
X231443355Y-108584884D01*
X231429519Y-108417905D01*
X231425397Y-108368160D01*
X231370259Y-108150427D01*
X231280036Y-107944738D01*
X231157188Y-107756704D01*
X231157186Y-107756702D01*
X231157185Y-107756700D01*
X231157184Y-107756699D01*
X231005070Y-107591459D01*
X230943736Y-107543721D01*
X230827819Y-107453500D01*
X230827816Y-107453498D01*
X230827815Y-107453497D01*
X230630290Y-107346602D01*
X230630277Y-107346596D01*
X230417855Y-107273671D01*
X230417838Y-107273667D01*
X230196312Y-107236701D01*
X230196306Y-107236700D01*
X230196303Y-107236700D01*
X229971697Y-107236700D01*
X229971694Y-107236700D01*
X229971687Y-107236701D01*
X229750161Y-107273667D01*
X229750144Y-107273671D01*
X229537722Y-107346596D01*
X229537709Y-107346602D01*
X229340184Y-107453497D01*
X229340182Y-107453499D01*
X229162929Y-107591459D01*
X229010815Y-107756699D01*
X229010809Y-107756707D01*
X229003274Y-107768241D01*
X228938526Y-107830734D01*
X228853075Y-107858945D01*
X228763846Y-107847287D01*
X228688512Y-107798068D01*
X228664726Y-107768241D01*
X228657190Y-107756707D01*
X228657184Y-107756699D01*
X228505070Y-107591459D01*
X228443736Y-107543721D01*
X228327819Y-107453500D01*
X228327816Y-107453498D01*
X228327815Y-107453497D01*
X228130290Y-107346602D01*
X228130277Y-107346596D01*
X227917855Y-107273671D01*
X227917838Y-107273667D01*
X227696312Y-107236701D01*
X227696306Y-107236700D01*
X227696303Y-107236700D01*
X227471697Y-107236700D01*
X227471694Y-107236700D01*
X227471687Y-107236701D01*
X227250161Y-107273667D01*
X227250144Y-107273671D01*
X227037722Y-107346596D01*
X227037709Y-107346602D01*
X226840184Y-107453497D01*
X226840182Y-107453499D01*
X226662929Y-107591459D01*
X226510815Y-107756699D01*
X226510809Y-107756707D01*
X226503274Y-107768241D01*
X226438526Y-107830734D01*
X226353075Y-107858945D01*
X226263846Y-107847287D01*
X226188512Y-107798068D01*
X226164726Y-107768241D01*
X226157190Y-107756707D01*
X226157184Y-107756699D01*
X226005070Y-107591459D01*
X225943736Y-107543721D01*
X225827819Y-107453500D01*
X225827816Y-107453498D01*
X225827815Y-107453497D01*
X225630290Y-107346602D01*
X225630277Y-107346596D01*
X225417855Y-107273671D01*
X225417838Y-107273667D01*
X225196312Y-107236701D01*
X225196306Y-107236700D01*
X225196303Y-107236700D01*
X224971697Y-107236700D01*
X224971694Y-107236700D01*
X224971687Y-107236701D01*
X224750161Y-107273667D01*
X224750144Y-107273671D01*
X224537722Y-107346596D01*
X224537709Y-107346602D01*
X224340184Y-107453497D01*
X224340182Y-107453499D01*
X224162929Y-107591459D01*
X224010815Y-107756699D01*
X224010814Y-107756700D01*
X223887963Y-107944740D01*
X223887960Y-107944745D01*
X223797741Y-108150425D01*
X223797740Y-108150426D01*
X223742602Y-108368163D01*
X223724055Y-108591994D01*
X223724055Y-108592005D01*
X223742602Y-108815836D01*
X223797740Y-109033573D01*
X223797741Y-109033574D01*
X223853325Y-109160294D01*
X223887964Y-109239262D01*
X223962447Y-109353267D01*
X224010814Y-109427299D01*
X224010815Y-109427300D01*
X224162929Y-109592540D01*
X224162933Y-109592543D01*
X224162934Y-109592544D01*
X224340181Y-109730500D01*
X224340183Y-109730501D01*
X224340184Y-109730502D01*
X224384305Y-109754379D01*
X224537716Y-109837401D01*
X224750153Y-109910331D01*
X224971697Y-109947300D01*
X224971701Y-109947300D01*
X225196299Y-109947300D01*
X225196303Y-109947300D01*
X225417847Y-109910331D01*
X225630284Y-109837401D01*
X225827819Y-109730500D01*
X226005066Y-109592544D01*
X226157188Y-109427296D01*
X226164724Y-109415760D01*
X226229470Y-109353267D01*
X226314920Y-109325054D01*
X226404149Y-109336711D01*
X226479485Y-109385928D01*
X226503277Y-109415762D01*
X226510813Y-109427297D01*
X226510815Y-109427300D01*
X226662929Y-109592540D01*
X226662933Y-109592543D01*
X226662934Y-109592544D01*
X226840181Y-109730500D01*
X226840183Y-109730501D01*
X226840184Y-109730502D01*
X226884305Y-109754379D01*
X227037716Y-109837401D01*
X227250153Y-109910331D01*
X227471697Y-109947300D01*
X227471701Y-109947300D01*
X227696299Y-109947300D01*
X227696303Y-109947300D01*
X227917847Y-109910331D01*
X228130284Y-109837401D01*
X228327819Y-109730500D01*
X228505066Y-109592544D01*
X228657188Y-109427296D01*
X228664724Y-109415760D01*
X228729470Y-109353267D01*
X228814920Y-109325054D01*
X228904149Y-109336711D01*
X228979485Y-109385928D01*
X229003277Y-109415762D01*
X229010813Y-109427297D01*
X229010815Y-109427300D01*
X229162929Y-109592540D01*
X229162933Y-109592543D01*
X229162934Y-109592544D01*
X229340181Y-109730500D01*
X229340183Y-109730501D01*
X229340184Y-109730502D01*
X229384305Y-109754379D01*
X229537716Y-109837401D01*
X229750153Y-109910331D01*
X229971697Y-109947300D01*
X229971701Y-109947300D01*
X230196299Y-109947300D01*
X230196303Y-109947300D01*
X230417847Y-109910331D01*
X230630284Y-109837401D01*
X230827819Y-109730500D01*
X230907527Y-109668460D01*
X230989058Y-109630378D01*
X231079039Y-109631441D01*
X231159648Y-109671440D01*
X231214920Y-109742453D01*
X231233906Y-109830415D01*
X231233151Y-109845635D01*
X231224896Y-109940000D01*
X231244875Y-110168365D01*
X231244875Y-110168368D01*
X231244876Y-110168369D01*
X231304204Y-110389786D01*
X231304208Y-110389797D01*
X231320566Y-110424876D01*
X231401087Y-110597552D01*
X231532572Y-110785333D01*
X231532574Y-110785335D01*
X231534111Y-110787530D01*
X231568028Y-110870881D01*
X231562423Y-110960694D01*
X231518404Y-111039180D01*
X231444690Y-111090794D01*
X231367663Y-111103387D01*
X230663985Y-111807065D01*
X230673628Y-111690698D01*
X230644953Y-111577462D01*
X230581064Y-111479673D01*
X230488885Y-111407928D01*
X230378405Y-111370000D01*
X230290995Y-111370000D01*
X230204784Y-111384386D01*
X230102053Y-111439981D01*
X230022940Y-111525921D01*
X229976018Y-111632892D01*
X229966372Y-111749302D01*
X229995047Y-111862538D01*
X230058936Y-111960327D01*
X230151115Y-112032072D01*
X230261595Y-112070000D01*
X230349005Y-112070000D01*
X230411476Y-112059575D01*
X230320000Y-112151052D01*
X229706166Y-112764885D01*
X229713691Y-112770154D01*
X229905260Y-112859483D01*
X230109429Y-112914191D01*
X230320000Y-112932613D01*
X230530570Y-112914191D01*
X230734739Y-112859483D01*
X230926305Y-112770155D01*
X230971937Y-112738203D01*
X231055287Y-112704284D01*
X231145100Y-112709888D01*
X231223587Y-112753906D01*
X231275203Y-112827618D01*
X231283227Y-112851499D01*
X231293554Y-112890039D01*
X231304206Y-112929792D01*
X231304207Y-112929795D01*
X231304208Y-112929797D01*
X231324651Y-112973637D01*
X231401087Y-113137552D01*
X231401090Y-113137556D01*
X231532569Y-113325330D01*
X231643032Y-113435793D01*
X231690908Y-113511988D01*
X231700984Y-113601409D01*
X231671263Y-113686347D01*
X231631374Y-113732523D01*
X231521970Y-113825963D01*
X231357374Y-114018680D01*
X231224953Y-114234769D01*
X231127969Y-114468911D01*
X231127968Y-114468914D01*
X231068806Y-114715338D01*
X231068806Y-114715340D01*
X231068805Y-114715346D01*
X231048921Y-114968000D01*
X231068805Y-115220654D01*
X231068805Y-115220657D01*
X231068806Y-115220659D01*
X231068806Y-115220661D01*
X231127968Y-115467085D01*
X231127970Y-115467093D01*
X231203452Y-115649322D01*
X231218526Y-115738038D01*
X231193614Y-115824508D01*
X231133651Y-115891606D01*
X231050514Y-115926043D01*
X231016644Y-115928900D01*
X230972517Y-115928900D01*
X230970223Y-115928841D01*
X230884352Y-115926665D01*
X230826037Y-115937117D01*
X230818430Y-115938184D01*
X230759463Y-115944180D01*
X230733188Y-115952424D01*
X230729397Y-115953613D01*
X230716963Y-115956666D01*
X230685948Y-115962225D01*
X230630913Y-115984207D01*
X230623678Y-115986783D01*
X230567136Y-116004524D01*
X230539583Y-116019816D01*
X230528020Y-116025307D01*
X230498758Y-116036997D01*
X230449280Y-116069605D01*
X230442712Y-116073584D01*
X230390895Y-116102345D01*
X230366985Y-116122871D01*
X230356762Y-116130579D01*
X230330453Y-116147919D01*
X230288550Y-116189821D01*
X230282917Y-116195041D01*
X230237953Y-116233642D01*
X230237953Y-116233643D01*
X230218665Y-116258560D01*
X230210200Y-116268171D01*
X229078050Y-117400322D01*
X229014120Y-117461091D01*
X229014116Y-117461097D01*
X228980270Y-117509721D01*
X228975648Y-117515852D01*
X228938190Y-117561792D01*
X228923600Y-117589723D01*
X228916965Y-117600675D01*
X228898969Y-117626531D01*
X228898964Y-117626539D01*
X228875598Y-117680988D01*
X228872303Y-117687926D01*
X228844864Y-117740456D01*
X228836196Y-117770749D01*
X228831901Y-117782814D01*
X228819476Y-117811768D01*
X228819475Y-117811772D01*
X228807548Y-117869807D01*
X228805717Y-117877268D01*
X228789413Y-117934248D01*
X228787021Y-117965667D01*
X228785242Y-117978352D01*
X228778900Y-118009216D01*
X228778900Y-118068478D01*
X228778608Y-118076157D01*
X228774109Y-118135233D01*
X228774109Y-118135235D01*
X228778089Y-118166489D01*
X228778900Y-118179274D01*
X228778900Y-121577483D01*
X228776665Y-121665646D01*
X228787117Y-121723960D01*
X228788184Y-121731568D01*
X228794180Y-121790530D01*
X228794181Y-121790536D01*
X228794182Y-121790538D01*
X228803614Y-121820603D01*
X228806666Y-121833038D01*
X228812224Y-121864050D01*
X228812225Y-121864052D01*
X228834207Y-121919083D01*
X228836784Y-121926323D01*
X228854523Y-121982860D01*
X228854525Y-121982865D01*
X228869816Y-122010416D01*
X228875310Y-122021984D01*
X228886997Y-122051241D01*
X228886998Y-122051242D01*
X228919609Y-122100724D01*
X228923581Y-122107281D01*
X228933953Y-122125967D01*
X228952346Y-122159104D01*
X228970705Y-122180490D01*
X228972871Y-122183013D01*
X228980579Y-122193235D01*
X228992474Y-122211284D01*
X228997920Y-122219547D01*
X229039823Y-122261450D01*
X229045047Y-122267087D01*
X229083638Y-122312041D01*
X229083644Y-122312047D01*
X229108564Y-122331336D01*
X229118174Y-122339801D01*
X229881238Y-123102865D01*
X229887905Y-123110221D01*
X229915792Y-123144202D01*
X229915794Y-123144204D01*
X229915795Y-123144205D01*
X229950508Y-123172692D01*
X229954112Y-123175797D01*
X229954719Y-123176346D01*
X229954727Y-123176354D01*
X229992381Y-123207057D01*
X230066710Y-123268057D01*
X230066712Y-123268058D01*
X230067899Y-123269032D01*
X230070529Y-123270976D01*
X230071792Y-123271809D01*
X230156962Y-123316298D01*
X230238885Y-123360087D01*
X230243939Y-123362180D01*
X230249131Y-123364605D01*
X230250456Y-123365135D01*
X230339795Y-123390698D01*
X230425710Y-123416760D01*
X230425714Y-123416760D01*
X230438578Y-123419319D01*
X230442567Y-123420284D01*
X230444243Y-123420584D01*
X230444249Y-123420586D01*
X230501452Y-123424942D01*
X230533782Y-123427404D01*
X230620000Y-123435896D01*
X230629946Y-123435896D01*
X230629946Y-123436360D01*
X230634989Y-123436304D01*
X230634986Y-123436152D01*
X230645240Y-123435892D01*
X230731208Y-123424942D01*
X230814290Y-123416760D01*
X230814305Y-123416755D01*
X230824029Y-123414822D01*
X230824046Y-123414911D01*
X230844791Y-123410476D01*
X230845192Y-123410426D01*
X230845195Y-123410424D01*
X230855374Y-123409129D01*
X230855789Y-123412392D01*
X230926358Y-123412105D01*
X231007593Y-123450818D01*
X231063985Y-123520943D01*
X231078782Y-123562214D01*
X231127968Y-123767085D01*
X231127969Y-123767088D01*
X231224953Y-124001230D01*
X231224954Y-124001231D01*
X231357374Y-124217320D01*
X231521967Y-124410033D01*
X231714679Y-124574625D01*
X231714684Y-124574629D01*
X231928195Y-124705470D01*
X231992535Y-124768383D01*
X232023207Y-124852982D01*
X232014135Y-124942511D01*
X231967117Y-125019237D01*
X231928194Y-125050277D01*
X231834651Y-125107599D01*
X232599223Y-125872171D01*
X232521685Y-125883320D01*
X232390900Y-125943048D01*
X232282239Y-126037202D01*
X232204507Y-126158156D01*
X232164000Y-126296111D01*
X232164000Y-126299052D01*
X231403599Y-125538651D01*
X231316207Y-125681265D01*
X231225372Y-125900559D01*
X231225371Y-125900562D01*
X231169961Y-126131359D01*
X231169961Y-126131361D01*
X231151337Y-126368000D01*
X231169961Y-126604638D01*
X231169961Y-126604640D01*
X231225371Y-126835437D01*
X231225372Y-126835440D01*
X231316207Y-127054736D01*
X231316210Y-127054742D01*
X231403599Y-127197347D01*
X232164000Y-126436946D01*
X232164000Y-126439889D01*
X232204507Y-126577844D01*
X232282239Y-126698798D01*
X232390900Y-126792952D01*
X232521685Y-126852680D01*
X232599223Y-126863828D01*
X231834652Y-127628398D01*
X231841449Y-127685827D01*
X231831875Y-127775304D01*
X231784426Y-127851766D01*
X231746302Y-127881995D01*
X231714683Y-127901371D01*
X231521967Y-128065967D01*
X231357374Y-128258680D01*
X231224953Y-128474769D01*
X231127969Y-128708911D01*
X231127968Y-128708914D01*
X231068806Y-128955338D01*
X231068806Y-128955340D01*
X231068805Y-128955346D01*
X231048921Y-129208000D01*
X231068805Y-129460654D01*
X231068805Y-129460657D01*
X231068806Y-129460659D01*
X231068806Y-129460661D01*
X231127968Y-129707085D01*
X231127969Y-129707088D01*
X231224953Y-129941230D01*
X231224954Y-129941231D01*
X231357374Y-130157320D01*
X231521967Y-130350033D01*
X231714680Y-130514626D01*
X231930769Y-130647046D01*
X231930771Y-130647046D01*
X231930848Y-130647094D01*
X231995188Y-130710007D01*
X232025860Y-130794606D01*
X232016788Y-130884135D01*
X231969770Y-130960862D01*
X231908408Y-131001540D01*
X231909181Y-131003145D01*
X231902359Y-131006430D01*
X231675145Y-131137612D01*
X231675138Y-131137617D01*
X231470019Y-131301194D01*
X231291568Y-131493518D01*
X231143771Y-131710297D01*
X231029936Y-131946677D01*
X230952605Y-132197379D01*
X230952604Y-132197383D01*
X230952604Y-132197385D01*
X230913500Y-132456818D01*
X230913500Y-132719182D01*
X230946086Y-132935376D01*
X230952604Y-132978616D01*
X230952605Y-132978620D01*
X231029936Y-133229322D01*
X231143771Y-133465702D01*
X231291568Y-133682481D01*
X231470019Y-133874805D01*
X231675143Y-134038386D01*
X231675145Y-134038387D01*
X231902356Y-134169568D01*
X232001959Y-134208659D01*
X232146584Y-134265420D01*
X232402370Y-134323802D01*
X232598506Y-134338500D01*
X232598509Y-134338500D01*
X232729491Y-134338500D01*
X232729494Y-134338500D01*
X232925630Y-134323802D01*
X233181416Y-134265420D01*
X233425643Y-134169568D01*
X233652857Y-134038386D01*
X233857981Y-133874805D01*
X234036433Y-133682479D01*
X234184228Y-133465704D01*
X234298063Y-133229323D01*
X234375396Y-132978615D01*
X234414500Y-132719182D01*
X234414500Y-132456818D01*
X234375396Y-132197385D01*
X234298063Y-131946677D01*
X234184228Y-131710296D01*
X234036433Y-131493521D01*
X234036431Y-131493518D01*
X233857980Y-131301194D01*
X233652861Y-131137617D01*
X233652854Y-131137612D01*
X233425640Y-131006430D01*
X233418819Y-131003145D01*
X233419657Y-131001403D01*
X233354562Y-130957012D01*
X233309577Y-130879076D01*
X233302863Y-130789339D01*
X233335748Y-130705576D01*
X233397152Y-130647094D01*
X233397228Y-130647046D01*
X233397231Y-130647046D01*
X233613320Y-130514626D01*
X233806033Y-130350033D01*
X233970626Y-130157320D01*
X234103046Y-129941231D01*
X234200031Y-129707087D01*
X234259195Y-129460654D01*
X234279079Y-129208000D01*
X234259195Y-128955346D01*
X234200031Y-128708913D01*
X234103046Y-128474769D01*
X233970626Y-128258680D01*
X233806033Y-128065967D01*
X233613320Y-127901374D01*
X233581697Y-127881995D01*
X233517359Y-127819084D01*
X233486687Y-127734485D01*
X233486550Y-127685827D01*
X233493346Y-127628398D01*
X232728776Y-126863828D01*
X232806315Y-126852680D01*
X232937100Y-126792952D01*
X233045761Y-126698798D01*
X233123493Y-126577844D01*
X233164000Y-126439889D01*
X233164000Y-126436948D01*
X233924399Y-127197347D01*
X234011790Y-127054738D01*
X234011794Y-127054730D01*
X234102627Y-126835440D01*
X234102628Y-126835437D01*
X234158038Y-126604640D01*
X234158038Y-126604638D01*
X234176662Y-126368000D01*
X234158038Y-126131361D01*
X234158038Y-126131359D01*
X234102628Y-125900562D01*
X234102627Y-125900559D01*
X234011792Y-125681263D01*
X234011789Y-125681257D01*
X233924399Y-125538651D01*
X233164000Y-126299050D01*
X233164000Y-126296111D01*
X233123493Y-126158156D01*
X233045761Y-126037202D01*
X232937100Y-125943048D01*
X232806315Y-125883320D01*
X232728774Y-125872171D01*
X233493346Y-125107600D01*
X233399804Y-125050277D01*
X233335464Y-124987363D01*
X233304792Y-124902765D01*
X233313864Y-124813236D01*
X233360882Y-124736509D01*
X233399804Y-124705469D01*
X233613320Y-124574626D01*
X233806033Y-124410033D01*
X233970626Y-124217320D01*
X234103046Y-124001231D01*
X234200031Y-123767087D01*
X234259195Y-123520654D01*
X234279079Y-123268000D01*
X234259195Y-123015346D01*
X234200031Y-122768913D01*
X234103046Y-122534769D01*
X233970626Y-122318680D01*
X233806033Y-122125967D01*
X233613320Y-121961374D01*
X233397231Y-121828954D01*
X233397230Y-121828953D01*
X233397151Y-121828905D01*
X233332811Y-121765991D01*
X233302139Y-121681393D01*
X233311211Y-121591863D01*
X233358229Y-121515137D01*
X233419596Y-121474469D01*
X233418819Y-121472855D01*
X233425640Y-121469569D01*
X233425639Y-121469569D01*
X233425643Y-121469568D01*
X233652857Y-121338386D01*
X233857981Y-121174805D01*
X234036433Y-120982479D01*
X234184228Y-120765704D01*
X234298063Y-120529323D01*
X234375396Y-120278615D01*
X234414500Y-120019182D01*
X234414500Y-119756818D01*
X234375396Y-119497385D01*
X234298063Y-119246677D01*
X234184228Y-119010296D01*
X234036433Y-118793521D01*
X234036431Y-118793518D01*
X233857980Y-118601194D01*
X233652861Y-118437617D01*
X233652854Y-118437612D01*
X233425640Y-118306430D01*
X233425637Y-118306428D01*
X233413137Y-118301523D01*
X233338785Y-118250832D01*
X233293791Y-118172901D01*
X233287065Y-118083165D01*
X233319940Y-117999398D01*
X233385905Y-117938191D01*
X233471895Y-117911666D01*
X233487007Y-117911100D01*
X234527483Y-117911100D01*
X234540077Y-117911419D01*
X234615640Y-117913334D01*
X234615640Y-117913333D01*
X234615646Y-117913334D01*
X234673968Y-117902880D01*
X234681568Y-117901814D01*
X234693953Y-117900555D01*
X234740530Y-117895820D01*
X234740530Y-117895819D01*
X234740536Y-117895819D01*
X234770615Y-117886381D01*
X234783033Y-117883333D01*
X234814054Y-117877774D01*
X234869107Y-117855782D01*
X234876292Y-117853224D01*
X234932862Y-117835476D01*
X234960417Y-117820181D01*
X234971983Y-117814689D01*
X235001242Y-117803002D01*
X235050736Y-117770381D01*
X235057269Y-117766423D01*
X235109104Y-117737654D01*
X235133023Y-117717119D01*
X235143244Y-117709414D01*
X235169548Y-117692079D01*
X235211448Y-117650177D01*
X235217087Y-117644952D01*
X235238536Y-117626539D01*
X235262047Y-117606356D01*
X235281333Y-117581438D01*
X235289791Y-117571834D01*
X235981949Y-116879677D01*
X236045883Y-116818904D01*
X236079747Y-116770248D01*
X236084335Y-116764163D01*
X236121808Y-116718208D01*
X236136397Y-116690276D01*
X236143035Y-116679321D01*
X236161034Y-116653463D01*
X236184412Y-116598984D01*
X236187687Y-116592089D01*
X236215135Y-116539544D01*
X236223805Y-116509238D01*
X236228096Y-116497187D01*
X236240524Y-116468229D01*
X236252451Y-116410187D01*
X236254280Y-116402736D01*
X236255239Y-116399383D01*
X236270586Y-116345752D01*
X236272978Y-116314333D01*
X236274758Y-116301639D01*
X236281099Y-116270790D01*
X236281100Y-116270784D01*
X236281100Y-116211520D01*
X236281392Y-116203841D01*
X236282062Y-116195041D01*
X236285891Y-116144763D01*
X236283103Y-116122871D01*
X236281911Y-116113508D01*
X236281100Y-116100724D01*
X236281100Y-113472516D01*
X236283334Y-113384359D01*
X236283333Y-113384358D01*
X236283334Y-113384354D01*
X236272880Y-113326034D01*
X236271814Y-113318428D01*
X236265819Y-113259467D01*
X236265819Y-113259464D01*
X236256384Y-113229394D01*
X236253332Y-113216957D01*
X236247774Y-113185946D01*
X236225784Y-113130895D01*
X236223221Y-113123695D01*
X236205476Y-113067138D01*
X236194337Y-113047070D01*
X236169269Y-112960646D01*
X236184181Y-112871903D01*
X236236121Y-112798418D01*
X236314801Y-112754747D01*
X236390948Y-112747716D01*
X236428508Y-112751415D01*
X236473997Y-112755896D01*
X236474000Y-112755896D01*
X236474004Y-112755896D01*
X236603526Y-112743138D01*
X236668290Y-112736760D01*
X236855113Y-112680088D01*
X236862980Y-112675882D01*
X236949790Y-112652184D01*
X237038286Y-112668498D01*
X237110940Y-112721594D01*
X237153362Y-112800954D01*
X237160500Y-112854205D01*
X237160500Y-156694300D01*
X237140476Y-156782031D01*
X237084370Y-156852386D01*
X237003294Y-156891430D01*
X236958300Y-156896500D01*
X230492919Y-156896500D01*
X230405188Y-156876476D01*
X230334833Y-156820370D01*
X230295789Y-156739294D01*
X230295789Y-156649306D01*
X230313800Y-156604112D01*
X230313319Y-156603904D01*
X230318370Y-156592229D01*
X230318369Y-156592229D01*
X230318372Y-156592226D01*
X230361378Y-156444199D01*
X230364100Y-156409613D01*
X230364099Y-154486388D01*
X230361378Y-154451801D01*
X230318372Y-154303774D01*
X230239905Y-154171093D01*
X230130907Y-154062095D01*
X230130906Y-154062094D01*
X229998226Y-153983628D01*
X229914686Y-153959357D01*
X229836025Y-153915651D01*
X229784118Y-153842144D01*
X229768900Y-153765186D01*
X229768900Y-152935729D01*
X229788924Y-152847998D01*
X229839781Y-152781975D01*
X229925104Y-152709104D01*
X230079475Y-152528359D01*
X230203670Y-152325691D01*
X230256126Y-152199052D01*
X230294632Y-152106091D01*
X230294632Y-152106088D01*
X230296383Y-152098798D01*
X230350121Y-151874962D01*
X230368770Y-151638000D01*
X230350121Y-151401038D01*
X230294632Y-151169910D01*
X230294632Y-151169908D01*
X230203670Y-150950309D01*
X230092753Y-150769308D01*
X230063987Y-150684042D01*
X230075065Y-150594739D01*
X230122178Y-150520684D01*
X230274765Y-150368097D01*
X230298896Y-150347490D01*
X230305560Y-150342649D01*
X230352125Y-150290931D01*
X230355735Y-150287127D01*
X230370840Y-150272024D01*
X230384294Y-150255407D01*
X230387687Y-150251435D01*
X230434247Y-150199727D01*
X230438361Y-150192599D01*
X230456342Y-150166436D01*
X230461527Y-150160035D01*
X230493118Y-150098031D01*
X230495618Y-150093427D01*
X230530407Y-150033173D01*
X230532953Y-150025334D01*
X230545100Y-149996011D01*
X230548838Y-149988677D01*
X230566844Y-149921470D01*
X230568342Y-149916417D01*
X230573477Y-149900614D01*
X230589837Y-149850266D01*
X230590696Y-149842085D01*
X230596480Y-149810869D01*
X230598614Y-149802910D01*
X230602255Y-149733425D01*
X230602668Y-149728183D01*
X230604900Y-149706952D01*
X230604900Y-149685624D01*
X230605039Y-149680332D01*
X230606254Y-149657127D01*
X230608680Y-149610853D01*
X230607389Y-149602699D01*
X230604900Y-149571073D01*
X230604900Y-145892896D01*
X230624924Y-145805165D01*
X230681030Y-145734810D01*
X230762106Y-145695766D01*
X230852094Y-145695766D01*
X230933170Y-145734810D01*
X230989276Y-145805165D01*
X231000317Y-145833297D01*
X231029936Y-145929322D01*
X231143771Y-146165702D01*
X231291568Y-146382481D01*
X231470019Y-146574805D01*
X231675143Y-146738386D01*
X231675145Y-146738387D01*
X231902359Y-146869569D01*
X231909181Y-146872855D01*
X231908340Y-146874599D01*
X231973417Y-146918966D01*
X232018413Y-146996896D01*
X232025140Y-147086632D01*
X231992267Y-147170400D01*
X231930848Y-147228904D01*
X231714684Y-147361370D01*
X231521967Y-147525967D01*
X231357374Y-147718680D01*
X231224953Y-147934769D01*
X231127969Y-148168911D01*
X231127968Y-148168914D01*
X231068806Y-148415338D01*
X231068806Y-148415340D01*
X231068805Y-148415346D01*
X231048921Y-148668000D01*
X231068805Y-148920654D01*
X231068805Y-148920657D01*
X231068806Y-148920659D01*
X231068806Y-148920661D01*
X231127968Y-149167085D01*
X231127969Y-149167088D01*
X231224953Y-149401230D01*
X231224954Y-149401231D01*
X231357374Y-149617320D01*
X231521967Y-149810033D01*
X231691919Y-149955186D01*
X231714684Y-149974629D01*
X231928195Y-150105470D01*
X231992535Y-150168383D01*
X232023207Y-150252982D01*
X232014135Y-150342511D01*
X231967117Y-150419237D01*
X231928194Y-150450277D01*
X231834651Y-150507599D01*
X232599223Y-151272171D01*
X232521685Y-151283320D01*
X232390900Y-151343048D01*
X232282239Y-151437202D01*
X232204507Y-151558156D01*
X232164000Y-151696111D01*
X232164000Y-151699052D01*
X231403599Y-150938651D01*
X231316207Y-151081265D01*
X231225372Y-151300559D01*
X231225371Y-151300562D01*
X231169961Y-151531359D01*
X231169961Y-151531361D01*
X231151337Y-151768000D01*
X231169961Y-152004638D01*
X231169961Y-152004640D01*
X231225371Y-152235437D01*
X231225372Y-152235440D01*
X231316207Y-152454736D01*
X231316210Y-152454742D01*
X231403599Y-152597347D01*
X232164000Y-151836946D01*
X232164000Y-151839889D01*
X232204507Y-151977844D01*
X232282239Y-152098798D01*
X232390900Y-152192952D01*
X232521685Y-152252680D01*
X232599223Y-152263828D01*
X231834651Y-153028399D01*
X231977257Y-153115789D01*
X231977263Y-153115792D01*
X232196559Y-153206627D01*
X232196562Y-153206628D01*
X232427360Y-153262038D01*
X232664000Y-153280662D01*
X232900638Y-153262038D01*
X232900640Y-153262038D01*
X233131437Y-153206628D01*
X233131440Y-153206627D01*
X233350730Y-153115794D01*
X233350738Y-153115790D01*
X233493347Y-153028399D01*
X232728776Y-152263828D01*
X232806315Y-152252680D01*
X232937100Y-152192952D01*
X233045761Y-152098798D01*
X233123493Y-151977844D01*
X233164000Y-151839889D01*
X233164000Y-151836948D01*
X233924398Y-152597346D01*
X233936216Y-152578062D01*
X233999129Y-152513721D01*
X234083728Y-152483049D01*
X234173257Y-152492120D01*
X234249984Y-152539139D01*
X234266650Y-152558775D01*
X234266896Y-152558569D01*
X234272570Y-152565331D01*
X234434666Y-152727427D01*
X234573111Y-152824367D01*
X234633491Y-152891090D01*
X234658941Y-152977404D01*
X234644421Y-153066212D01*
X234592807Y-153139926D01*
X234573111Y-153155633D01*
X234434666Y-153252572D01*
X234272569Y-153414669D01*
X234141090Y-153602443D01*
X234141084Y-153602454D01*
X234044208Y-153810202D01*
X234044204Y-153810213D01*
X233984876Y-154031630D01*
X233984875Y-154031635D01*
X233964896Y-154260000D01*
X233984875Y-154488365D01*
X233984875Y-154488368D01*
X233984876Y-154488369D01*
X234044204Y-154709786D01*
X234044208Y-154709797D01*
X234067763Y-154760309D01*
X234141087Y-154917552D01*
X234141090Y-154917556D01*
X234272569Y-155105330D01*
X234434669Y-155267430D01*
X234537154Y-155339190D01*
X234622448Y-155398913D01*
X234830208Y-155495794D01*
X235051635Y-155555125D01*
X235280000Y-155575104D01*
X235508365Y-155555125D01*
X235729792Y-155495794D01*
X235937552Y-155398913D01*
X236125333Y-155267428D01*
X236287428Y-155105333D01*
X236418913Y-154917552D01*
X236515794Y-154709792D01*
X236575125Y-154488365D01*
X236595104Y-154260000D01*
X236575125Y-154031635D01*
X236515794Y-153810208D01*
X236418913Y-153602448D01*
X236359190Y-153517154D01*
X236287430Y-153414669D01*
X236125330Y-153252569D01*
X235986889Y-153155633D01*
X235926508Y-153088910D01*
X235901058Y-153002597D01*
X235915577Y-152913788D01*
X235967192Y-152840075D01*
X235986889Y-152824367D01*
X236125330Y-152727430D01*
X236125329Y-152727430D01*
X236125333Y-152727428D01*
X236287428Y-152565333D01*
X236418913Y-152377552D01*
X236515794Y-152169792D01*
X236575125Y-151948365D01*
X236595104Y-151720000D01*
X236575125Y-151491635D01*
X236515794Y-151270208D01*
X236418913Y-151062448D01*
X236332230Y-150938651D01*
X236287430Y-150874669D01*
X236125330Y-150712569D01*
X235937556Y-150581090D01*
X235937557Y-150581090D01*
X235937552Y-150581087D01*
X235822391Y-150527386D01*
X235729797Y-150484208D01*
X235729793Y-150484206D01*
X235729792Y-150484206D01*
X235729790Y-150484205D01*
X235729786Y-150484204D01*
X235508369Y-150424876D01*
X235508368Y-150424875D01*
X235508365Y-150424875D01*
X235280000Y-150404896D01*
X235051635Y-150424875D01*
X235051631Y-150424875D01*
X235051630Y-150424876D01*
X234830213Y-150484204D01*
X234830202Y-150484208D01*
X234622454Y-150581084D01*
X234622448Y-150581087D01*
X234622446Y-150581088D01*
X234622443Y-150581090D01*
X234434669Y-150712569D01*
X234272571Y-150874667D01*
X234242880Y-150917071D01*
X234176157Y-150977450D01*
X234089843Y-151002900D01*
X234001035Y-150988380D01*
X233931158Y-150939451D01*
X233924399Y-150938651D01*
X233164000Y-151699050D01*
X233164000Y-151696111D01*
X233123493Y-151558156D01*
X233045761Y-151437202D01*
X232937100Y-151343048D01*
X232806315Y-151283320D01*
X232728774Y-151272171D01*
X233493346Y-150507600D01*
X233399804Y-150450277D01*
X233335464Y-150387363D01*
X233304792Y-150302765D01*
X233313864Y-150213236D01*
X233360882Y-150136509D01*
X233399804Y-150105469D01*
X233613320Y-149974626D01*
X233806033Y-149810033D01*
X233970626Y-149617320D01*
X234103046Y-149401231D01*
X234200031Y-149167087D01*
X234259195Y-148920654D01*
X234279079Y-148668000D01*
X234259195Y-148415346D01*
X234200031Y-148168913D01*
X234103046Y-147934769D01*
X233970626Y-147718680D01*
X233806033Y-147525967D01*
X233613320Y-147361374D01*
X233397231Y-147228954D01*
X233397230Y-147228953D01*
X233397151Y-147228905D01*
X233332811Y-147165991D01*
X233302139Y-147081393D01*
X233311211Y-146991863D01*
X233358229Y-146915137D01*
X233419596Y-146874469D01*
X233418819Y-146872855D01*
X233425640Y-146869569D01*
X233425639Y-146869569D01*
X233425643Y-146869568D01*
X233652857Y-146738386D01*
X233857981Y-146574805D01*
X234036433Y-146382479D01*
X234184228Y-146165704D01*
X234298063Y-145929323D01*
X234375396Y-145678615D01*
X234414500Y-145419182D01*
X234414500Y-145156818D01*
X234375396Y-144897385D01*
X234298063Y-144646677D01*
X234184228Y-144410296D01*
X234036433Y-144193521D01*
X234036431Y-144193518D01*
X233857980Y-144001194D01*
X233652861Y-143837617D01*
X233652854Y-143837612D01*
X233425643Y-143706431D01*
X233181411Y-143610578D01*
X232925636Y-143552199D01*
X232925633Y-143552198D01*
X232925630Y-143552198D01*
X232729494Y-143537500D01*
X232598506Y-143537500D01*
X232402370Y-143552198D01*
X232402366Y-143552198D01*
X232402363Y-143552199D01*
X232146588Y-143610578D01*
X232146587Y-143610578D01*
X231902356Y-143706431D01*
X231675145Y-143837612D01*
X231675138Y-143837617D01*
X231470019Y-144001194D01*
X231291568Y-144193518D01*
X231143771Y-144410297D01*
X231029937Y-144646675D01*
X231000317Y-144742703D01*
X230955323Y-144820634D01*
X230880972Y-144871326D01*
X230791989Y-144884738D01*
X230706000Y-144858213D01*
X230640034Y-144797006D01*
X230607158Y-144713239D01*
X230604900Y-144683103D01*
X230604900Y-140368000D01*
X231048921Y-140368000D01*
X231068805Y-140620654D01*
X231068805Y-140620657D01*
X231068806Y-140620659D01*
X231068806Y-140620661D01*
X231127968Y-140867085D01*
X231127969Y-140867088D01*
X231224953Y-141101230D01*
X231224954Y-141101231D01*
X231357374Y-141317320D01*
X231521967Y-141510033D01*
X231714680Y-141674626D01*
X231930769Y-141807046D01*
X232164913Y-141904031D01*
X232411346Y-141963195D01*
X232664000Y-141983079D01*
X232916654Y-141963195D01*
X233163087Y-141904031D01*
X233397231Y-141807046D01*
X233613320Y-141674626D01*
X233806033Y-141510033D01*
X233970626Y-141317320D01*
X234103046Y-141101231D01*
X234200031Y-140867087D01*
X234259195Y-140620654D01*
X234279079Y-140368000D01*
X234259195Y-140115346D01*
X234200031Y-139868913D01*
X234103046Y-139634769D01*
X233970626Y-139418680D01*
X233806033Y-139225967D01*
X233806031Y-139225965D01*
X233806030Y-139225964D01*
X233648890Y-139091754D01*
X233595183Y-139019551D01*
X233578123Y-138931195D01*
X233601088Y-138844188D01*
X233648890Y-138784246D01*
X233736124Y-138709741D01*
X233806033Y-138650033D01*
X233970626Y-138457320D01*
X234103046Y-138241231D01*
X234200031Y-138007087D01*
X234259195Y-137760654D01*
X234279079Y-137508000D01*
X234259195Y-137255346D01*
X234200031Y-137008913D01*
X234103046Y-136774769D01*
X233970626Y-136558680D01*
X233806033Y-136365967D01*
X233613320Y-136201374D01*
X233409888Y-136076710D01*
X233397230Y-136068953D01*
X233163088Y-135971969D01*
X233163085Y-135971968D01*
X232916660Y-135912806D01*
X232916657Y-135912805D01*
X232916654Y-135912805D01*
X232664000Y-135892921D01*
X232411346Y-135912805D01*
X232411342Y-135912805D01*
X232411340Y-135912806D01*
X232411338Y-135912806D01*
X232164914Y-135971968D01*
X232164911Y-135971969D01*
X231930769Y-136068953D01*
X231714680Y-136201374D01*
X231521967Y-136365967D01*
X231357374Y-136558680D01*
X231224953Y-136774769D01*
X231127969Y-137008911D01*
X231127968Y-137008914D01*
X231068806Y-137255338D01*
X231068806Y-137255340D01*
X231068805Y-137255346D01*
X231048921Y-137508000D01*
X231068805Y-137760654D01*
X231068805Y-137760657D01*
X231068806Y-137760659D01*
X231068806Y-137760661D01*
X231127968Y-138007085D01*
X231127969Y-138007088D01*
X231224953Y-138241230D01*
X231270500Y-138315555D01*
X231357374Y-138457320D01*
X231521967Y-138650033D01*
X231661217Y-138768964D01*
X231679110Y-138784246D01*
X231732816Y-138856450D01*
X231749876Y-138944805D01*
X231726911Y-139031813D01*
X231679110Y-139091754D01*
X231521967Y-139225967D01*
X231357374Y-139418680D01*
X231224953Y-139634769D01*
X231127969Y-139868911D01*
X231127968Y-139868914D01*
X231068806Y-140115338D01*
X231068806Y-140115340D01*
X231068805Y-140115346D01*
X231048921Y-140368000D01*
X230604900Y-140368000D01*
X230604900Y-138477922D01*
X230607390Y-138446288D01*
X230608680Y-138438143D01*
X230605039Y-138368665D01*
X230604900Y-138363372D01*
X230604900Y-138342045D01*
X230602670Y-138320838D01*
X230602254Y-138315555D01*
X230598614Y-138246090D01*
X230596481Y-138238130D01*
X230590697Y-138206923D01*
X230589837Y-138198734D01*
X230568343Y-138132586D01*
X230566841Y-138127513D01*
X230560227Y-138102830D01*
X230548838Y-138060323D01*
X230548835Y-138060318D01*
X230548834Y-138060314D01*
X230545095Y-138052976D01*
X230532954Y-138023667D01*
X230530407Y-138015827D01*
X230495626Y-137955584D01*
X230493099Y-137950931D01*
X230461526Y-137888965D01*
X230456341Y-137882562D01*
X230438364Y-137856405D01*
X230434247Y-137849273D01*
X230387696Y-137797572D01*
X230384258Y-137793546D01*
X230370840Y-137776976D01*
X230355750Y-137761886D01*
X230352105Y-137758045D01*
X230305565Y-137706356D01*
X230305563Y-137706354D01*
X230305560Y-137706351D01*
X230298884Y-137701500D01*
X230274763Y-137680899D01*
X229136864Y-136543000D01*
X229088988Y-136466805D01*
X229078912Y-136377384D01*
X229108633Y-136292446D01*
X229172264Y-136228815D01*
X229257202Y-136199094D01*
X229338537Y-136206530D01*
X229370828Y-136216325D01*
X229421710Y-136231760D01*
X229460568Y-136235587D01*
X229615996Y-136250896D01*
X229616000Y-136250896D01*
X229616004Y-136250896D01*
X229745526Y-136238138D01*
X229810290Y-136231760D01*
X229997113Y-136175088D01*
X230169290Y-136083057D01*
X230320205Y-135959205D01*
X230444057Y-135808290D01*
X230536088Y-135636113D01*
X230592760Y-135449290D01*
X230611896Y-135255000D01*
X230592760Y-135060710D01*
X230536088Y-134873887D01*
X230536087Y-134873884D01*
X230487280Y-134782575D01*
X230444057Y-134701710D01*
X230320205Y-134550795D01*
X230169290Y-134426943D01*
X230158844Y-134421359D01*
X229997115Y-134334912D01*
X229997109Y-134334910D01*
X229810288Y-134278239D01*
X229616004Y-134259104D01*
X229615996Y-134259104D01*
X229421709Y-134278239D01*
X229230002Y-134336393D01*
X229171307Y-134345100D01*
X227647693Y-134345100D01*
X227588998Y-134336393D01*
X227397290Y-134278239D01*
X227203004Y-134259104D01*
X227202996Y-134259104D01*
X227008711Y-134278239D01*
X226821890Y-134334910D01*
X226821884Y-134334912D01*
X226649711Y-134426942D01*
X226498795Y-134550795D01*
X226374942Y-134701711D01*
X226282912Y-134873884D01*
X226282910Y-134873890D01*
X226226239Y-135060711D01*
X226207104Y-135254995D01*
X226207104Y-135255004D01*
X226226239Y-135449288D01*
X226282910Y-135636109D01*
X226282912Y-135636115D01*
X226374942Y-135808289D01*
X226383313Y-135818489D01*
X226423491Y-135899009D01*
X226424753Y-135988988D01*
X226386850Y-136070604D01*
X226383323Y-136075027D01*
X226381944Y-136076706D01*
X226381943Y-136076708D01*
X226289912Y-136248884D01*
X226289910Y-136248890D01*
X226233239Y-136435711D01*
X226214104Y-136629995D01*
X226214104Y-136630004D01*
X226233239Y-136824288D01*
X226289910Y-137011109D01*
X226289912Y-137011115D01*
X226376359Y-137172844D01*
X226381943Y-137183290D01*
X226505795Y-137334205D01*
X226656710Y-137458057D01*
X226737575Y-137501280D01*
X226828884Y-137550087D01*
X226828887Y-137550088D01*
X227015710Y-137606760D01*
X227054568Y-137610587D01*
X227209996Y-137625896D01*
X227210000Y-137625896D01*
X227210004Y-137625896D01*
X227404286Y-137606761D01*
X227404288Y-137606760D01*
X227404290Y-137606760D01*
X227448368Y-137593388D01*
X227538133Y-137587083D01*
X227621746Y-137620350D01*
X227650041Y-137643905D01*
X228715877Y-138709741D01*
X228763753Y-138785936D01*
X228775100Y-138852718D01*
X228775100Y-149196281D01*
X228755076Y-149284012D01*
X228715877Y-149339258D01*
X228269234Y-149785900D01*
X228245116Y-149806500D01*
X228238439Y-149811351D01*
X228191892Y-149863046D01*
X228188253Y-149866881D01*
X228173164Y-149881970D01*
X228159731Y-149898559D01*
X228156296Y-149902580D01*
X228109757Y-149954268D01*
X228109752Y-149954274D01*
X228105627Y-149961419D01*
X228087664Y-149987554D01*
X228082475Y-149993961D01*
X228050900Y-150055929D01*
X228048376Y-150060576D01*
X228013594Y-150120824D01*
X228013591Y-150120830D01*
X228011042Y-150128675D01*
X227998911Y-150157962D01*
X227995164Y-150165317D01*
X227995163Y-150165318D01*
X227982039Y-150214298D01*
X227939990Y-150293857D01*
X227867586Y-150347293D01*
X227779167Y-150364022D01*
X227692246Y-150340730D01*
X227643752Y-150304940D01*
X227590906Y-150252094D01*
X227458226Y-150173628D01*
X227374686Y-150149357D01*
X227296025Y-150105651D01*
X227244118Y-150032144D01*
X227228900Y-149955186D01*
X227228900Y-144486923D01*
X227231390Y-144455289D01*
X227232680Y-144447144D01*
X227229039Y-144377666D01*
X227228900Y-144372373D01*
X227228900Y-144351046D01*
X227228393Y-144346225D01*
X227226667Y-144329812D01*
X227226255Y-144324576D01*
X227222614Y-144255090D01*
X227220481Y-144247130D01*
X227214697Y-144215923D01*
X227213837Y-144207734D01*
X227192343Y-144141586D01*
X227190841Y-144136513D01*
X227184227Y-144111830D01*
X227172838Y-144069323D01*
X227172835Y-144069318D01*
X227172834Y-144069314D01*
X227169095Y-144061976D01*
X227156954Y-144032667D01*
X227154407Y-144024827D01*
X227119629Y-143964591D01*
X227117108Y-143959946D01*
X227085530Y-143897970D01*
X227085528Y-143897967D01*
X227085527Y-143897965D01*
X227080336Y-143891555D01*
X227062363Y-143865403D01*
X227058246Y-143858271D01*
X227058244Y-143858270D01*
X227011713Y-143806591D01*
X227008276Y-143802567D01*
X226994843Y-143785980D01*
X226994838Y-143785974D01*
X226979750Y-143770886D01*
X226976105Y-143767045D01*
X226929565Y-143715356D01*
X226929563Y-143715354D01*
X226929560Y-143715351D01*
X226922884Y-143710500D01*
X226898763Y-143689899D01*
X225494101Y-142285237D01*
X225473495Y-142261110D01*
X225468651Y-142254443D01*
X225468649Y-142254440D01*
X225416932Y-142207874D01*
X225413112Y-142204248D01*
X225398025Y-142189161D01*
X225381428Y-142175721D01*
X225377417Y-142172295D01*
X225325727Y-142125752D01*
X225318581Y-142121627D01*
X225292437Y-142103658D01*
X225286035Y-142098474D01*
X225286033Y-142098473D01*
X225286032Y-142098472D01*
X225286029Y-142098470D01*
X225224056Y-142066893D01*
X225219406Y-142064368D01*
X225180562Y-142041942D01*
X225159173Y-142029593D01*
X225159171Y-142029592D01*
X225159169Y-142029591D01*
X225151325Y-142027042D01*
X225122023Y-142014904D01*
X225114679Y-142011162D01*
X225047498Y-141993161D01*
X225042424Y-141991658D01*
X224976265Y-141970162D01*
X224968061Y-141969300D01*
X224936880Y-141963521D01*
X224928911Y-141961386D01*
X224928912Y-141961386D01*
X224859454Y-141957745D01*
X224854181Y-141957330D01*
X224832955Y-141955100D01*
X224832952Y-141955100D01*
X224811612Y-141955100D01*
X224806321Y-141954961D01*
X224736854Y-141951321D01*
X224736845Y-141951321D01*
X224728705Y-141952611D01*
X224697080Y-141955100D01*
X223673014Y-141955100D01*
X223585283Y-141935076D01*
X223514928Y-141878970D01*
X223475884Y-141797894D01*
X223475884Y-141707906D01*
X223514928Y-141626830D01*
X223541695Y-141599146D01*
X223646033Y-141510033D01*
X223810626Y-141317320D01*
X223943046Y-141101231D01*
X224040031Y-140867087D01*
X224099195Y-140620654D01*
X224119079Y-140368000D01*
X224099195Y-140115346D01*
X224040031Y-139868913D01*
X223943046Y-139634769D01*
X223810626Y-139418680D01*
X223646033Y-139225967D01*
X223646031Y-139225965D01*
X223646030Y-139225964D01*
X223488890Y-139091754D01*
X223435183Y-139019551D01*
X223418123Y-138931195D01*
X223441088Y-138844188D01*
X223488890Y-138784246D01*
X223576124Y-138709741D01*
X223646033Y-138650033D01*
X223810626Y-138457320D01*
X223943046Y-138241231D01*
X224040031Y-138007087D01*
X224099195Y-137760654D01*
X224119079Y-137508000D01*
X224099195Y-137255346D01*
X224040031Y-137008913D01*
X223943046Y-136774769D01*
X223810626Y-136558680D01*
X223646033Y-136365967D01*
X223453320Y-136201374D01*
X223249888Y-136076710D01*
X223237230Y-136068953D01*
X223003088Y-135971969D01*
X223003085Y-135971968D01*
X222756660Y-135912806D01*
X222756657Y-135912805D01*
X222756654Y-135912805D01*
X222504000Y-135892921D01*
X222251346Y-135912805D01*
X222251342Y-135912805D01*
X222251340Y-135912806D01*
X222251338Y-135912806D01*
X222004914Y-135971968D01*
X222004911Y-135971969D01*
X221770769Y-136068953D01*
X221554680Y-136201374D01*
X221361967Y-136365967D01*
X221197374Y-136558680D01*
X221064953Y-136774769D01*
X220967969Y-137008911D01*
X220967968Y-137008914D01*
X220908806Y-137255338D01*
X220908806Y-137255340D01*
X220908805Y-137255346D01*
X220888921Y-137508000D01*
X220908805Y-137760654D01*
X220908805Y-137760657D01*
X220908806Y-137760659D01*
X220908806Y-137760661D01*
X220967968Y-138007085D01*
X220967969Y-138007088D01*
X221064953Y-138241230D01*
X221110500Y-138315555D01*
X221197374Y-138457320D01*
X221361967Y-138650033D01*
X221501217Y-138768964D01*
X221519110Y-138784246D01*
X221572816Y-138856450D01*
X221589876Y-138944805D01*
X221566911Y-139031813D01*
X221519110Y-139091754D01*
X221361967Y-139225967D01*
X221197374Y-139418680D01*
X221064953Y-139634769D01*
X220967969Y-139868911D01*
X220967968Y-139868914D01*
X220908806Y-140115338D01*
X220908806Y-140115340D01*
X220908805Y-140115346D01*
X220888921Y-140368000D01*
X220908805Y-140620654D01*
X220908805Y-140620657D01*
X220908806Y-140620659D01*
X220908806Y-140620661D01*
X220967968Y-140867085D01*
X220967969Y-140867088D01*
X221064953Y-141101230D01*
X221064954Y-141101231D01*
X221197374Y-141317320D01*
X221361967Y-141510033D01*
X221466305Y-141599146D01*
X221520011Y-141671350D01*
X221537071Y-141759705D01*
X221514106Y-141846713D01*
X221455664Y-141915140D01*
X221373320Y-141951433D01*
X221334986Y-141955100D01*
X220988209Y-141955100D01*
X220929513Y-141946393D01*
X220754288Y-141893239D01*
X220560004Y-141874104D01*
X220559996Y-141874104D01*
X220365711Y-141893239D01*
X220178890Y-141949910D01*
X220178884Y-141949912D01*
X220006711Y-142041942D01*
X219855795Y-142165795D01*
X219731942Y-142316711D01*
X219639912Y-142488884D01*
X219639910Y-142488890D01*
X219583239Y-142675711D01*
X219564104Y-142869995D01*
X219564104Y-142870004D01*
X219583239Y-143064288D01*
X219639910Y-143251109D01*
X219639912Y-143251115D01*
X219726359Y-143412844D01*
X219731943Y-143423290D01*
X219855795Y-143574205D01*
X220006710Y-143698057D01*
X220087575Y-143741280D01*
X220178884Y-143790087D01*
X220178890Y-143790089D01*
X220220025Y-143802567D01*
X220365710Y-143846760D01*
X220404568Y-143850587D01*
X220559996Y-143865896D01*
X220560000Y-143865896D01*
X220560004Y-143865896D01*
X220689526Y-143853138D01*
X220754290Y-143846760D01*
X220899975Y-143802567D01*
X220929513Y-143793607D01*
X220988209Y-143784900D01*
X221047264Y-143784900D01*
X221134995Y-143804924D01*
X221205350Y-143861030D01*
X221244394Y-143942106D01*
X221244394Y-144032094D01*
X221205350Y-144113170D01*
X221195488Y-144124630D01*
X221131568Y-144193519D01*
X220983771Y-144410297D01*
X220869936Y-144646677D01*
X220792605Y-144897379D01*
X220792604Y-144897383D01*
X220792604Y-144897385D01*
X220753500Y-145156818D01*
X220753500Y-145419182D01*
X220786086Y-145635376D01*
X220792604Y-145678616D01*
X220792605Y-145678620D01*
X220869936Y-145929322D01*
X220983771Y-146165702D01*
X221131568Y-146382481D01*
X221310019Y-146574805D01*
X221515143Y-146738386D01*
X221515145Y-146738387D01*
X221742359Y-146869569D01*
X221749181Y-146872855D01*
X221748340Y-146874599D01*
X221813417Y-146918966D01*
X221858413Y-146996896D01*
X221865140Y-147086632D01*
X221832267Y-147170400D01*
X221770848Y-147228904D01*
X221554684Y-147361370D01*
X221361967Y-147525967D01*
X221197374Y-147718680D01*
X221064953Y-147934769D01*
X220967969Y-148168911D01*
X220967968Y-148168914D01*
X220908806Y-148415338D01*
X220908806Y-148415340D01*
X220908805Y-148415346D01*
X220888921Y-148668000D01*
X220908805Y-148920654D01*
X220908805Y-148920657D01*
X220908806Y-148920659D01*
X220908806Y-148920661D01*
X220967968Y-149167085D01*
X220967969Y-149167088D01*
X221064953Y-149401230D01*
X221064954Y-149401231D01*
X221197374Y-149617320D01*
X221361967Y-149810033D01*
X221531919Y-149955186D01*
X221554684Y-149974629D01*
X221768195Y-150105470D01*
X221832535Y-150168383D01*
X221863207Y-150252982D01*
X221854135Y-150342511D01*
X221807117Y-150419237D01*
X221768194Y-150450277D01*
X221674651Y-150507599D01*
X222439223Y-151272171D01*
X222361685Y-151283320D01*
X222230900Y-151343048D01*
X222122239Y-151437202D01*
X222044507Y-151558156D01*
X222004000Y-151696111D01*
X222004000Y-151699052D01*
X221243599Y-150938651D01*
X221205599Y-151000661D01*
X221209396Y-151032735D01*
X221199822Y-151122211D01*
X221152373Y-151198673D01*
X221151574Y-151199477D01*
X220611052Y-151739999D01*
X220611052Y-151740000D01*
X221135017Y-152263965D01*
X221182893Y-152340160D01*
X221192969Y-152429581D01*
X221192481Y-152430973D01*
X221192563Y-152430983D01*
X221184321Y-152500614D01*
X221243599Y-152597347D01*
X222004000Y-151836946D01*
X222004000Y-151839889D01*
X222044507Y-151977844D01*
X222122239Y-152098798D01*
X222230900Y-152192952D01*
X222361685Y-152252680D01*
X222439223Y-152263828D01*
X221674651Y-153028399D01*
X221817257Y-153115789D01*
X221817263Y-153115792D01*
X222036559Y-153206627D01*
X222036562Y-153206628D01*
X222267360Y-153262038D01*
X222504000Y-153280662D01*
X222740638Y-153262038D01*
X222740640Y-153262038D01*
X222971437Y-153206628D01*
X222971440Y-153206627D01*
X223190730Y-153115794D01*
X223190738Y-153115790D01*
X223333347Y-153028399D01*
X222568776Y-152263828D01*
X222646315Y-152252680D01*
X222777100Y-152192952D01*
X222885761Y-152098798D01*
X222963493Y-151977844D01*
X223004000Y-151839889D01*
X223004000Y-151836948D01*
X223764399Y-152597347D01*
X223851790Y-152454738D01*
X223851794Y-152454730D01*
X223942627Y-152235440D01*
X223942628Y-152235437D01*
X223998038Y-152004640D01*
X223998038Y-152004638D01*
X224016662Y-151768000D01*
X223998038Y-151531361D01*
X223998038Y-151531359D01*
X223942628Y-151300562D01*
X223942627Y-151300559D01*
X223851792Y-151081263D01*
X223851789Y-151081257D01*
X223764399Y-150938651D01*
X223004000Y-151699050D01*
X223004000Y-151696111D01*
X222963493Y-151558156D01*
X222885761Y-151437202D01*
X222777100Y-151343048D01*
X222646315Y-151283320D01*
X222568774Y-151272171D01*
X223333346Y-150507600D01*
X223239804Y-150450277D01*
X223175464Y-150387363D01*
X223144792Y-150302765D01*
X223153864Y-150213236D01*
X223200882Y-150136509D01*
X223239804Y-150105469D01*
X223453320Y-149974626D01*
X223646033Y-149810033D01*
X223810626Y-149617320D01*
X223943046Y-149401231D01*
X224040031Y-149167087D01*
X224099195Y-148920654D01*
X224119079Y-148668000D01*
X224099195Y-148415346D01*
X224040031Y-148168913D01*
X223943046Y-147934769D01*
X223810626Y-147718680D01*
X223646033Y-147525967D01*
X223453320Y-147361374D01*
X223237231Y-147228954D01*
X223237230Y-147228953D01*
X223237151Y-147228905D01*
X223172811Y-147165991D01*
X223142139Y-147081393D01*
X223151211Y-146991863D01*
X223198229Y-146915137D01*
X223259596Y-146874469D01*
X223258819Y-146872855D01*
X223265640Y-146869569D01*
X223265639Y-146869569D01*
X223265643Y-146869568D01*
X223492857Y-146738386D01*
X223697981Y-146574805D01*
X223876433Y-146382479D01*
X224024228Y-146165704D01*
X224138063Y-145929323D01*
X224215396Y-145678615D01*
X224254500Y-145419182D01*
X224254500Y-145156818D01*
X224215396Y-144897385D01*
X224138063Y-144646677D01*
X224024228Y-144410296D01*
X223876433Y-144193521D01*
X223825907Y-144139067D01*
X223812512Y-144124630D01*
X223767519Y-144046699D01*
X223760795Y-143956963D01*
X223793671Y-143873196D01*
X223859637Y-143811989D01*
X223945626Y-143785465D01*
X223960736Y-143784900D01*
X224322282Y-143784900D01*
X224410013Y-143804924D01*
X224465259Y-143844123D01*
X225339877Y-144718741D01*
X225387753Y-144794936D01*
X225399100Y-144861718D01*
X225399100Y-149955186D01*
X225379076Y-150042917D01*
X225322970Y-150113272D01*
X225253314Y-150149357D01*
X225169773Y-150173628D01*
X225037093Y-150252094D01*
X224928094Y-150361093D01*
X224849628Y-150493773D01*
X224806623Y-150641794D01*
X224806622Y-150641801D01*
X224803900Y-150676390D01*
X224803901Y-152599606D01*
X224803901Y-152599607D01*
X224806621Y-152634197D01*
X224849627Y-152782225D01*
X224914010Y-152891090D01*
X224928095Y-152914907D01*
X225037093Y-153023905D01*
X225169774Y-153102372D01*
X225234191Y-153121087D01*
X225253312Y-153126642D01*
X225331973Y-153170347D01*
X225383882Y-153243854D01*
X225399100Y-153320813D01*
X225399100Y-154150269D01*
X225379076Y-154238000D01*
X225328219Y-154304023D01*
X225242893Y-154376898D01*
X225242892Y-154376899D01*
X225088525Y-154557639D01*
X224964329Y-154760309D01*
X224873367Y-154979908D01*
X224873367Y-154979911D01*
X224817880Y-155211030D01*
X224817880Y-155211032D01*
X224817879Y-155211038D01*
X224799230Y-155448000D01*
X224817879Y-155684962D01*
X224817879Y-155684965D01*
X224817880Y-155684967D01*
X224817880Y-155684969D01*
X224873367Y-155916088D01*
X224873367Y-155916091D01*
X224964329Y-156135690D01*
X225088525Y-156338360D01*
X225242892Y-156519100D01*
X225242894Y-156519101D01*
X225242896Y-156519104D01*
X225268002Y-156540546D01*
X225321708Y-156612749D01*
X225338768Y-156701104D01*
X225315804Y-156788112D01*
X225257362Y-156856539D01*
X225175018Y-156892833D01*
X225136683Y-156896500D01*
X218209700Y-156896500D01*
X218121969Y-156876476D01*
X218051614Y-156820370D01*
X218012570Y-156739294D01*
X218007500Y-156694300D01*
X218007500Y-154280000D01*
X218864896Y-154280000D01*
X218884875Y-154508365D01*
X218944206Y-154729792D01*
X219041087Y-154937552D01*
X219041090Y-154937556D01*
X219172569Y-155125330D01*
X219334669Y-155287430D01*
X219437154Y-155359190D01*
X219522448Y-155418913D01*
X219730208Y-155515794D01*
X219951635Y-155575125D01*
X220180000Y-155595104D01*
X220408365Y-155575125D01*
X220629792Y-155515794D01*
X220837552Y-155418913D01*
X221025333Y-155287428D01*
X221187428Y-155125333D01*
X221318913Y-154937552D01*
X221415794Y-154729792D01*
X221475125Y-154508365D01*
X221495104Y-154280000D01*
X221475125Y-154051635D01*
X221415794Y-153830208D01*
X221318913Y-153622448D01*
X221259190Y-153537154D01*
X221187430Y-153434669D01*
X221025330Y-153272569D01*
X220858326Y-153155633D01*
X220837552Y-153141087D01*
X220837545Y-153141083D01*
X220837542Y-153141082D01*
X220823357Y-153134467D01*
X220752309Y-153079241D01*
X220712260Y-152998657D01*
X220711140Y-152908676D01*
X220749173Y-152827121D01*
X220792834Y-152785584D01*
X220793832Y-152784884D01*
X220180000Y-152171052D01*
X219566166Y-152784885D01*
X219567154Y-152785577D01*
X219627537Y-152852298D01*
X219652991Y-152938610D01*
X219638474Y-153027419D01*
X219586863Y-153101134D01*
X219536645Y-153134466D01*
X219522455Y-153141083D01*
X219522443Y-153141090D01*
X219334669Y-153272569D01*
X219172569Y-153434669D01*
X219041090Y-153622443D01*
X219041084Y-153622454D01*
X218944208Y-153830202D01*
X218944204Y-153830213D01*
X218903097Y-153983628D01*
X218884875Y-154051635D01*
X218864896Y-154280000D01*
X218007500Y-154280000D01*
X218007500Y-151740000D01*
X218967386Y-151740000D01*
X218985808Y-151950570D01*
X219040516Y-152154739D01*
X219129846Y-152346309D01*
X219135113Y-152353833D01*
X219135114Y-152353833D01*
X219719644Y-151769302D01*
X219826372Y-151769302D01*
X219855047Y-151882538D01*
X219918936Y-151980327D01*
X220011115Y-152052072D01*
X220121595Y-152090000D01*
X220209005Y-152090000D01*
X220295216Y-152075614D01*
X220397947Y-152020019D01*
X220477060Y-151934079D01*
X220523982Y-151827108D01*
X220533628Y-151710698D01*
X220504953Y-151597462D01*
X220441064Y-151499673D01*
X220348885Y-151427928D01*
X220238405Y-151390000D01*
X220150995Y-151390000D01*
X220064784Y-151404386D01*
X219962053Y-151459981D01*
X219882940Y-151545921D01*
X219836018Y-151652892D01*
X219826372Y-151769302D01*
X219719644Y-151769302D01*
X219748947Y-151739999D01*
X219135114Y-151126166D01*
X219129843Y-151133696D01*
X219040516Y-151325260D01*
X218985808Y-151529429D01*
X218967386Y-151740000D01*
X218007500Y-151740000D01*
X218007500Y-150695114D01*
X219566166Y-150695114D01*
X220179999Y-151308947D01*
X220793833Y-150695114D01*
X220793833Y-150695113D01*
X220786309Y-150689846D01*
X220594739Y-150600516D01*
X220390570Y-150545808D01*
X220180000Y-150527386D01*
X219969429Y-150545808D01*
X219765260Y-150600516D01*
X219573696Y-150689843D01*
X219566166Y-150695114D01*
X218007500Y-150695114D01*
X218007500Y-132719182D01*
X220753500Y-132719182D01*
X220786086Y-132935376D01*
X220792604Y-132978616D01*
X220792605Y-132978620D01*
X220869936Y-133229322D01*
X220983771Y-133465702D01*
X221131568Y-133682481D01*
X221310019Y-133874805D01*
X221515143Y-134038386D01*
X221515145Y-134038387D01*
X221742356Y-134169568D01*
X221841959Y-134208659D01*
X221986584Y-134265420D01*
X222242370Y-134323802D01*
X222438506Y-134338500D01*
X222438509Y-134338500D01*
X222569491Y-134338500D01*
X222569494Y-134338500D01*
X222765630Y-134323802D01*
X223021416Y-134265420D01*
X223265643Y-134169568D01*
X223492857Y-134038386D01*
X223697981Y-133874805D01*
X223876433Y-133682479D01*
X224024228Y-133465704D01*
X224138063Y-133229323D01*
X224215396Y-132978615D01*
X224254500Y-132719182D01*
X224254500Y-132456818D01*
X224215396Y-132197385D01*
X224138063Y-131946677D01*
X224024228Y-131710296D01*
X223876433Y-131493521D01*
X223876431Y-131493518D01*
X223697980Y-131301194D01*
X223492861Y-131137617D01*
X223492854Y-131137612D01*
X223265640Y-131006430D01*
X223258819Y-131003145D01*
X223259657Y-131001403D01*
X223194562Y-130957012D01*
X223149577Y-130879076D01*
X223142863Y-130789339D01*
X223175748Y-130705576D01*
X223237152Y-130647094D01*
X223237228Y-130647046D01*
X223237231Y-130647046D01*
X223453320Y-130514626D01*
X223646033Y-130350033D01*
X223810626Y-130157320D01*
X223943046Y-129941231D01*
X224040031Y-129707087D01*
X224099195Y-129460654D01*
X224119079Y-129208000D01*
X224099195Y-128955346D01*
X224040031Y-128708913D01*
X223943046Y-128474769D01*
X223810626Y-128258680D01*
X223646033Y-128065967D01*
X223453320Y-127901374D01*
X223421697Y-127881995D01*
X223357359Y-127819084D01*
X223326687Y-127734485D01*
X223326550Y-127685827D01*
X223333346Y-127628398D01*
X222568776Y-126863828D01*
X222646315Y-126852680D01*
X222777100Y-126792952D01*
X222885761Y-126698798D01*
X222963493Y-126577844D01*
X223004000Y-126439889D01*
X223004000Y-126436948D01*
X223764399Y-127197347D01*
X223770987Y-127186596D01*
X224906000Y-127186596D01*
X224912504Y-127247089D01*
X224912506Y-127247099D01*
X224963554Y-127383962D01*
X224963556Y-127383966D01*
X225051094Y-127500902D01*
X225051097Y-127500905D01*
X225168033Y-127588443D01*
X225168037Y-127588445D01*
X225304900Y-127639493D01*
X225304910Y-127639495D01*
X225365403Y-127645999D01*
X225365415Y-127646000D01*
X226009200Y-127646000D01*
X226009200Y-126574827D01*
X226116547Y-126648016D01*
X226246173Y-126688000D01*
X226347724Y-126688000D01*
X226448138Y-126672865D01*
X226570357Y-126614007D01*
X226618800Y-126569058D01*
X226618800Y-127646000D01*
X227262585Y-127646000D01*
X227262596Y-127645999D01*
X227323089Y-127639495D01*
X227323099Y-127639493D01*
X227459962Y-127588445D01*
X227459966Y-127588443D01*
X227576902Y-127500905D01*
X227576904Y-127500903D01*
X227615602Y-127449209D01*
X227684207Y-127390976D01*
X227771284Y-127368277D01*
X227859587Y-127385607D01*
X227908788Y-127416626D01*
X227963641Y-127463475D01*
X228166309Y-127587670D01*
X228385909Y-127678632D01*
X228415879Y-127685827D01*
X228617038Y-127734121D01*
X228854000Y-127752770D01*
X229090962Y-127734121D01*
X229322090Y-127678632D01*
X229322091Y-127678632D01*
X229443365Y-127628398D01*
X229541691Y-127587670D01*
X229744359Y-127463475D01*
X229925104Y-127309104D01*
X230079475Y-127128359D01*
X230203670Y-126925691D01*
X230256126Y-126799052D01*
X230294632Y-126706091D01*
X230294632Y-126706088D01*
X230296383Y-126698798D01*
X230350121Y-126474962D01*
X230368770Y-126238000D01*
X230350121Y-126001038D01*
X230294632Y-125769910D01*
X230294632Y-125769908D01*
X230203670Y-125550309D01*
X230079474Y-125347639D01*
X229925107Y-125166899D01*
X229925100Y-125166892D01*
X229744360Y-125012525D01*
X229541690Y-124888329D01*
X229322090Y-124797367D01*
X229090968Y-124741880D01*
X229090965Y-124741879D01*
X229090962Y-124741879D01*
X228854000Y-124723230D01*
X228617038Y-124741879D01*
X228617034Y-124741879D01*
X228617032Y-124741880D01*
X228617030Y-124741880D01*
X228385911Y-124797367D01*
X228385908Y-124797367D01*
X228166309Y-124888329D01*
X227963639Y-125012525D01*
X227908789Y-125059372D01*
X227829073Y-125101122D01*
X227739137Y-125104150D01*
X227656793Y-125067856D01*
X227615603Y-125026791D01*
X227576905Y-124975097D01*
X227576902Y-124975094D01*
X227459966Y-124887556D01*
X227459962Y-124887554D01*
X227323099Y-124836506D01*
X227323089Y-124836504D01*
X227262596Y-124830000D01*
X226618800Y-124830000D01*
X226618800Y-125901172D01*
X226511453Y-125827984D01*
X226381827Y-125788000D01*
X226280276Y-125788000D01*
X226179862Y-125803135D01*
X226057643Y-125861993D01*
X226009200Y-125906941D01*
X226009200Y-124830000D01*
X225365403Y-124830000D01*
X225304910Y-124836504D01*
X225304900Y-124836506D01*
X225168037Y-124887554D01*
X225168033Y-124887556D01*
X225051097Y-124975094D01*
X225051094Y-124975097D01*
X224963556Y-125092033D01*
X224963554Y-125092037D01*
X224912506Y-125228900D01*
X224912504Y-125228910D01*
X224906000Y-125289403D01*
X224906000Y-125933200D01*
X225980899Y-125933200D01*
X225958202Y-125954260D01*
X225890375Y-126071740D01*
X225860190Y-126203992D01*
X225870327Y-126339265D01*
X225919887Y-126465541D01*
X225981499Y-126542800D01*
X224906000Y-126542800D01*
X224906000Y-127186596D01*
X223770987Y-127186596D01*
X223851790Y-127054738D01*
X223851794Y-127054730D01*
X223942627Y-126835440D01*
X223942628Y-126835437D01*
X223998038Y-126604640D01*
X223998038Y-126604638D01*
X224016662Y-126368000D01*
X223998038Y-126131361D01*
X223998038Y-126131359D01*
X223942628Y-125900562D01*
X223942627Y-125900559D01*
X223851792Y-125681263D01*
X223851789Y-125681257D01*
X223764399Y-125538651D01*
X223004000Y-126299050D01*
X223004000Y-126296111D01*
X222963493Y-126158156D01*
X222885761Y-126037202D01*
X222777100Y-125943048D01*
X222646315Y-125883320D01*
X222568774Y-125872171D01*
X223333346Y-125107600D01*
X223239804Y-125050277D01*
X223175464Y-124987363D01*
X223144792Y-124902765D01*
X223153864Y-124813236D01*
X223200882Y-124736509D01*
X223239804Y-124705469D01*
X223453320Y-124574626D01*
X223646033Y-124410033D01*
X223810626Y-124217320D01*
X223943046Y-124001231D01*
X224040031Y-123767087D01*
X224099195Y-123520654D01*
X224119079Y-123268000D01*
X224099195Y-123015346D01*
X224040031Y-122768913D01*
X223943046Y-122534769D01*
X223810626Y-122318680D01*
X223646033Y-122125967D01*
X223453320Y-121961374D01*
X223237231Y-121828954D01*
X223237230Y-121828953D01*
X223237151Y-121828905D01*
X223172811Y-121765991D01*
X223142139Y-121681393D01*
X223151211Y-121591863D01*
X223198229Y-121515137D01*
X223259596Y-121474469D01*
X223258819Y-121472855D01*
X223265640Y-121469569D01*
X223265639Y-121469569D01*
X223265643Y-121469568D01*
X223492857Y-121338386D01*
X223697981Y-121174805D01*
X223876433Y-120982479D01*
X224024228Y-120765704D01*
X224138063Y-120529323D01*
X224215396Y-120278615D01*
X224254500Y-120019182D01*
X224254500Y-119756818D01*
X224215396Y-119497385D01*
X224138063Y-119246677D01*
X224024228Y-119010296D01*
X223876433Y-118793521D01*
X223876431Y-118793518D01*
X223697980Y-118601194D01*
X223492861Y-118437617D01*
X223492854Y-118437612D01*
X223265643Y-118306431D01*
X223021411Y-118210578D01*
X222765636Y-118152199D01*
X222765633Y-118152198D01*
X222765630Y-118152198D01*
X222569494Y-118137500D01*
X222438506Y-118137500D01*
X222242370Y-118152198D01*
X222242366Y-118152198D01*
X222242363Y-118152199D01*
X221986588Y-118210578D01*
X221986587Y-118210578D01*
X221742356Y-118306431D01*
X221515145Y-118437612D01*
X221515138Y-118437617D01*
X221310019Y-118601194D01*
X221131568Y-118793518D01*
X220983771Y-119010297D01*
X220869936Y-119246677D01*
X220792605Y-119497379D01*
X220792604Y-119497383D01*
X220792604Y-119497385D01*
X220753500Y-119756818D01*
X220753500Y-120019182D01*
X220786086Y-120235376D01*
X220792604Y-120278616D01*
X220792605Y-120278620D01*
X220869936Y-120529322D01*
X220980615Y-120759148D01*
X220983772Y-120765704D01*
X221045998Y-120856973D01*
X221131568Y-120982481D01*
X221236638Y-121095719D01*
X221310019Y-121174805D01*
X221515143Y-121338386D01*
X221515145Y-121338387D01*
X221742359Y-121469569D01*
X221749181Y-121472855D01*
X221748340Y-121474599D01*
X221813417Y-121518966D01*
X221858413Y-121596896D01*
X221865140Y-121686632D01*
X221832267Y-121770400D01*
X221770848Y-121828904D01*
X221554684Y-121961370D01*
X221361967Y-122125967D01*
X221197374Y-122318680D01*
X221064953Y-122534769D01*
X220967969Y-122768911D01*
X220967968Y-122768914D01*
X220908806Y-123015338D01*
X220908806Y-123015340D01*
X220908805Y-123015346D01*
X220888921Y-123268000D01*
X220908805Y-123520654D01*
X220908805Y-123520657D01*
X220908806Y-123520659D01*
X220908806Y-123520661D01*
X220967968Y-123767085D01*
X220967969Y-123767088D01*
X221064953Y-124001230D01*
X221064954Y-124001231D01*
X221197374Y-124217320D01*
X221361967Y-124410033D01*
X221554679Y-124574625D01*
X221554684Y-124574629D01*
X221768195Y-124705470D01*
X221832535Y-124768383D01*
X221863207Y-124852982D01*
X221854135Y-124942511D01*
X221807117Y-125019237D01*
X221768194Y-125050277D01*
X221674651Y-125107599D01*
X222439223Y-125872171D01*
X222361685Y-125883320D01*
X222230900Y-125943048D01*
X222122239Y-126037202D01*
X222044507Y-126158156D01*
X222004000Y-126296111D01*
X222004000Y-126299052D01*
X221243599Y-125538651D01*
X221156207Y-125681265D01*
X221065372Y-125900559D01*
X221065371Y-125900562D01*
X221009961Y-126131359D01*
X221009961Y-126131361D01*
X220991337Y-126368000D01*
X221009961Y-126604638D01*
X221009961Y-126604640D01*
X221065371Y-126835437D01*
X221065372Y-126835440D01*
X221156207Y-127054736D01*
X221156210Y-127054742D01*
X221243599Y-127197347D01*
X222004000Y-126436946D01*
X222004000Y-126439889D01*
X222044507Y-126577844D01*
X222122239Y-126698798D01*
X222230900Y-126792952D01*
X222361685Y-126852680D01*
X222439223Y-126863828D01*
X221674652Y-127628398D01*
X221681449Y-127685827D01*
X221671875Y-127775304D01*
X221624426Y-127851766D01*
X221586302Y-127881995D01*
X221554683Y-127901371D01*
X221361967Y-128065967D01*
X221197374Y-128258680D01*
X221064953Y-128474769D01*
X220967969Y-128708911D01*
X220967968Y-128708914D01*
X220908806Y-128955338D01*
X220908806Y-128955340D01*
X220908805Y-128955346D01*
X220888921Y-129208000D01*
X220908805Y-129460654D01*
X220908805Y-129460657D01*
X220908806Y-129460659D01*
X220908806Y-129460661D01*
X220967968Y-129707085D01*
X220967969Y-129707088D01*
X221064953Y-129941230D01*
X221064954Y-129941231D01*
X221197374Y-130157320D01*
X221361967Y-130350033D01*
X221554680Y-130514626D01*
X221770769Y-130647046D01*
X221770771Y-130647046D01*
X221770848Y-130647094D01*
X221835188Y-130710007D01*
X221865860Y-130794606D01*
X221856788Y-130884135D01*
X221809770Y-130960862D01*
X221748408Y-131001540D01*
X221749181Y-131003145D01*
X221742359Y-131006430D01*
X221515145Y-131137612D01*
X221515138Y-131137617D01*
X221310019Y-131301194D01*
X221131568Y-131493518D01*
X220983771Y-131710297D01*
X220869936Y-131946677D01*
X220792605Y-132197379D01*
X220792604Y-132197383D01*
X220792604Y-132197385D01*
X220753500Y-132456818D01*
X220753500Y-132719182D01*
X218007500Y-132719182D01*
X218007500Y-114968000D01*
X220888921Y-114968000D01*
X220908805Y-115220654D01*
X220908805Y-115220657D01*
X220908806Y-115220659D01*
X220908806Y-115220661D01*
X220967968Y-115467085D01*
X220967969Y-115467088D01*
X221064953Y-115701230D01*
X221064954Y-115701231D01*
X221197374Y-115917320D01*
X221361967Y-116110033D01*
X221554680Y-116274626D01*
X221770769Y-116407046D01*
X222004913Y-116504031D01*
X222251346Y-116563195D01*
X222504000Y-116583079D01*
X222756654Y-116563195D01*
X223003087Y-116504031D01*
X223237231Y-116407046D01*
X223453320Y-116274626D01*
X223646033Y-116110033D01*
X223810626Y-115917320D01*
X223943046Y-115701231D01*
X224040031Y-115467087D01*
X224099195Y-115220654D01*
X224119079Y-114968000D01*
X224099195Y-114715346D01*
X224040031Y-114468913D01*
X223943046Y-114234769D01*
X223810626Y-114018680D01*
X223646033Y-113825967D01*
X223453320Y-113661374D01*
X223320899Y-113580226D01*
X223237230Y-113528953D01*
X223003088Y-113431969D01*
X223003085Y-113431968D01*
X222915648Y-113410976D01*
X222835015Y-113371025D01*
X222779702Y-113300045D01*
X222760664Y-113212094D01*
X222781671Y-113124593D01*
X222838563Y-113054872D01*
X222920072Y-113016740D01*
X222927747Y-113015234D01*
X222928355Y-113015125D01*
X222928365Y-113015125D01*
X223149792Y-112955794D01*
X223357552Y-112858913D01*
X223545333Y-112727428D01*
X223707428Y-112565333D01*
X223838913Y-112377552D01*
X223935794Y-112169792D01*
X223995125Y-111948365D01*
X224015104Y-111720000D01*
X229107386Y-111720000D01*
X229125808Y-111930570D01*
X229180516Y-112134739D01*
X229269846Y-112326309D01*
X229275113Y-112333833D01*
X229275114Y-112333833D01*
X229888947Y-111719999D01*
X229275114Y-111106166D01*
X229269843Y-111113696D01*
X229180516Y-111305260D01*
X229125808Y-111509429D01*
X229107386Y-111720000D01*
X224015104Y-111720000D01*
X223995125Y-111491635D01*
X223935794Y-111270208D01*
X223838913Y-111062448D01*
X223779190Y-110977154D01*
X223707430Y-110874669D01*
X223545330Y-110712569D01*
X223491838Y-110675114D01*
X229706166Y-110675114D01*
X230319999Y-111288947D01*
X230933833Y-110675114D01*
X230933833Y-110675113D01*
X230926309Y-110669846D01*
X230734739Y-110580516D01*
X230530570Y-110525808D01*
X230320000Y-110507386D01*
X230109429Y-110525808D01*
X229905260Y-110580516D01*
X229713696Y-110669843D01*
X229706166Y-110675114D01*
X223491838Y-110675114D01*
X223381072Y-110597556D01*
X223357552Y-110581087D01*
X223239007Y-110525808D01*
X223149797Y-110484208D01*
X223149793Y-110484206D01*
X223149792Y-110484206D01*
X223149790Y-110484205D01*
X223149786Y-110484204D01*
X222928369Y-110424876D01*
X222928368Y-110424875D01*
X222928365Y-110424875D01*
X222700000Y-110404896D01*
X222471635Y-110424875D01*
X222471631Y-110424875D01*
X222471630Y-110424876D01*
X222250213Y-110484204D01*
X222250202Y-110484208D01*
X222042454Y-110581084D01*
X222042448Y-110581087D01*
X222042446Y-110581088D01*
X222042443Y-110581090D01*
X221854669Y-110712569D01*
X221692569Y-110874669D01*
X221561090Y-111062443D01*
X221561084Y-111062454D01*
X221464208Y-111270202D01*
X221464204Y-111270213D01*
X221404876Y-111491630D01*
X221404875Y-111491635D01*
X221384896Y-111720000D01*
X221404875Y-111948365D01*
X221404875Y-111948368D01*
X221404876Y-111948369D01*
X221459184Y-112151052D01*
X221464206Y-112169792D01*
X221561087Y-112377552D01*
X221561090Y-112377556D01*
X221692569Y-112565330D01*
X221854669Y-112727430D01*
X221938077Y-112785832D01*
X222042448Y-112858913D01*
X222250208Y-112955794D01*
X222268316Y-112960646D01*
X222316799Y-112973637D01*
X222396359Y-113015685D01*
X222449796Y-113088088D01*
X222466526Y-113176507D01*
X222443236Y-113263428D01*
X222384538Y-113331636D01*
X222302059Y-113367622D01*
X222280334Y-113370523D01*
X222251351Y-113372804D01*
X222251338Y-113372806D01*
X222004914Y-113431968D01*
X222004911Y-113431969D01*
X221770769Y-113528953D01*
X221554680Y-113661374D01*
X221361967Y-113825967D01*
X221197374Y-114018680D01*
X221064953Y-114234769D01*
X220967969Y-114468911D01*
X220967968Y-114468914D01*
X220908806Y-114715338D01*
X220908806Y-114715340D01*
X220908805Y-114715346D01*
X220888921Y-114968000D01*
X218007500Y-114968000D01*
X218007500Y-108575991D01*
X218027524Y-108488260D01*
X218083630Y-108417905D01*
X218164706Y-108378861D01*
X218254694Y-108378861D01*
X218335770Y-108417905D01*
X218352673Y-108433011D01*
X218691372Y-108771710D01*
X218925953Y-109006291D01*
X218973829Y-109082486D01*
X218984202Y-109129446D01*
X218987240Y-109160292D01*
X218987241Y-109160294D01*
X219043910Y-109347109D01*
X219043912Y-109347115D01*
X219086773Y-109427300D01*
X219135943Y-109519290D01*
X219259795Y-109670205D01*
X219410710Y-109794057D01*
X219483537Y-109832984D01*
X219582884Y-109886087D01*
X219582887Y-109886088D01*
X219769710Y-109942760D01*
X219808568Y-109946587D01*
X219963996Y-109961896D01*
X219964000Y-109961896D01*
X219964004Y-109961896D01*
X220093526Y-109949138D01*
X220158290Y-109942760D01*
X220345113Y-109886088D01*
X220517290Y-109794057D01*
X220668205Y-109670205D01*
X220792057Y-109519290D01*
X220884088Y-109347113D01*
X220940760Y-109160290D01*
X220959896Y-108966000D01*
X220956603Y-108932569D01*
X220940760Y-108771711D01*
X220920283Y-108704208D01*
X220884088Y-108584887D01*
X220884087Y-108584884D01*
X220792057Y-108412710D01*
X220737484Y-108346212D01*
X220697307Y-108265691D01*
X220696045Y-108175713D01*
X220733949Y-108094097D01*
X220769590Y-108058376D01*
X220829288Y-108011912D01*
X220993173Y-107833886D01*
X221125521Y-107631312D01*
X221222721Y-107409718D01*
X221282122Y-107175148D01*
X221302104Y-106934000D01*
X221282122Y-106692852D01*
X221222721Y-106458282D01*
X221125521Y-106236688D01*
X220993173Y-106034114D01*
X220829288Y-105856088D01*
X220787501Y-105823563D01*
X220730568Y-105753877D01*
X220709509Y-105666389D01*
X220728495Y-105578427D01*
X220783766Y-105507414D01*
X220787502Y-105504435D01*
X220829288Y-105471912D01*
X220993173Y-105293886D01*
X221125521Y-105091312D01*
X221222721Y-104869718D01*
X221282122Y-104635148D01*
X221294382Y-104487197D01*
X221302104Y-104394005D01*
X221302104Y-104393994D01*
X221287700Y-104220170D01*
X221282122Y-104152852D01*
X221222721Y-103918282D01*
X221184562Y-103831289D01*
X221137933Y-103724984D01*
X221125521Y-103696688D01*
X220993173Y-103494114D01*
X220829288Y-103316088D01*
X220787501Y-103283563D01*
X220730568Y-103213877D01*
X220709509Y-103126389D01*
X220728495Y-103038427D01*
X220783766Y-102967414D01*
X220787502Y-102964435D01*
X220829288Y-102931912D01*
X220993173Y-102753886D01*
X221030635Y-102696545D01*
X221095383Y-102634053D01*
X221180834Y-102605841D01*
X221270063Y-102617499D01*
X221313813Y-102640073D01*
X221502536Y-102768742D01*
X221739927Y-102883064D01*
X221991709Y-102960729D01*
X222079200Y-102973915D01*
X222079200Y-101766940D01*
X222181543Y-101815100D01*
X222342862Y-101845873D01*
X222506766Y-101835561D01*
X222662956Y-101784812D01*
X222688800Y-101768410D01*
X222688800Y-102973915D01*
X222776290Y-102960729D01*
X223028072Y-102883064D01*
X223265463Y-102768742D01*
X223483169Y-102620313D01*
X223676319Y-102441096D01*
X223840597Y-102235098D01*
X223840603Y-102235089D01*
X223972345Y-102006907D01*
X224068609Y-101761629D01*
X224068609Y-101761628D01*
X224127238Y-101504758D01*
X224135329Y-101396800D01*
X223002500Y-101396800D01*
X223034000Y-101274114D01*
X223034000Y-100951106D01*
X223018583Y-100829067D01*
X223002007Y-100787200D01*
X224135329Y-100787200D01*
X224127238Y-100679241D01*
X224068609Y-100422371D01*
X224068609Y-100422370D01*
X223972345Y-100177092D01*
X223840603Y-99948910D01*
X223840597Y-99948901D01*
X223676319Y-99742903D01*
X223483169Y-99563686D01*
X223265463Y-99415257D01*
X223028072Y-99300935D01*
X222776289Y-99223270D01*
X222688800Y-99210083D01*
X222688800Y-100417059D01*
X222586457Y-100368900D01*
X222425138Y-100338127D01*
X222261234Y-100348439D01*
X222105044Y-100399188D01*
X222079200Y-100415589D01*
X222079200Y-99210083D01*
X221991710Y-99223270D01*
X221991709Y-99223270D01*
X221739924Y-99300936D01*
X221582819Y-99376594D01*
X221495087Y-99396618D01*
X221407356Y-99376594D01*
X221337001Y-99320487D01*
X221297957Y-99239411D01*
X221293579Y-99211115D01*
X221282122Y-99072855D01*
X221282122Y-99072852D01*
X221222721Y-98838282D01*
X221219462Y-98830853D01*
X221125524Y-98616695D01*
X221125521Y-98616688D01*
X220993173Y-98414114D01*
X220829288Y-98236088D01*
X220787501Y-98203563D01*
X220730568Y-98133877D01*
X220709509Y-98046389D01*
X220728495Y-97958427D01*
X220783766Y-97887414D01*
X220787502Y-97884435D01*
X220829288Y-97851912D01*
X220993173Y-97673886D01*
X221125521Y-97471312D01*
X221222721Y-97249718D01*
X221282122Y-97015148D01*
X221302104Y-96774000D01*
X221299044Y-96737069D01*
X221311754Y-96647984D01*
X221361859Y-96573236D01*
X221439433Y-96527630D01*
X221529113Y-96520198D01*
X221613137Y-96552413D01*
X221643530Y-96577394D01*
X224964899Y-99898763D01*
X224985500Y-99922884D01*
X224990351Y-99929560D01*
X224990354Y-99929563D01*
X224990356Y-99929565D01*
X225042045Y-99976105D01*
X225045886Y-99979750D01*
X225060976Y-99994840D01*
X225077546Y-100008258D01*
X225081572Y-100011696D01*
X225133273Y-100058247D01*
X225140408Y-100062366D01*
X225166562Y-100080341D01*
X225172965Y-100085526D01*
X225234945Y-100117106D01*
X225239584Y-100119626D01*
X225270963Y-100137742D01*
X225293858Y-100150961D01*
X225299824Y-100154405D01*
X225299827Y-100154407D01*
X225307667Y-100156954D01*
X225336976Y-100169095D01*
X225344314Y-100172834D01*
X225344316Y-100172834D01*
X225344323Y-100172838D01*
X225376232Y-100181387D01*
X225455791Y-100223435D01*
X225509228Y-100295838D01*
X225526100Y-100376698D01*
X225526100Y-104092792D01*
X225517393Y-104151488D01*
X225464239Y-104326711D01*
X225445104Y-104520995D01*
X225445104Y-104521004D01*
X225464239Y-104715288D01*
X225520910Y-104902109D01*
X225520912Y-104902115D01*
X225607359Y-105063844D01*
X225612943Y-105074290D01*
X225736795Y-105225205D01*
X225887710Y-105349057D01*
X225968575Y-105392280D01*
X226059884Y-105441087D01*
X226059887Y-105441088D01*
X226246710Y-105497760D01*
X226285568Y-105501587D01*
X226440996Y-105516896D01*
X226441000Y-105516896D01*
X226441004Y-105516896D01*
X226570526Y-105504138D01*
X226635290Y-105497760D01*
X226822113Y-105441088D01*
X226994290Y-105349057D01*
X227145205Y-105225205D01*
X227269057Y-105074290D01*
X227361088Y-104902113D01*
X227368630Y-104877249D01*
X227413257Y-104799108D01*
X227487370Y-104748068D01*
X227576288Y-104734239D01*
X227662401Y-104760359D01*
X227705101Y-104792965D01*
X227777277Y-104865141D01*
X227812624Y-104912801D01*
X227892693Y-105062598D01*
X227898943Y-105074290D01*
X228022795Y-105225205D01*
X228173710Y-105349057D01*
X228254575Y-105392280D01*
X228345884Y-105441087D01*
X228345887Y-105441088D01*
X228532710Y-105497760D01*
X228571568Y-105501587D01*
X228726996Y-105516896D01*
X228727000Y-105516896D01*
X228727004Y-105516896D01*
X228856526Y-105504138D01*
X228921290Y-105497760D01*
X229108113Y-105441088D01*
X229280290Y-105349057D01*
X229431205Y-105225205D01*
X229555057Y-105074290D01*
X229647088Y-104902113D01*
X229703760Y-104715290D01*
X229722896Y-104521000D01*
X229703760Y-104326710D01*
X229647088Y-104139887D01*
X229647087Y-104139884D01*
X229598280Y-104048575D01*
X229555057Y-103967710D01*
X229431205Y-103816795D01*
X229280290Y-103692943D01*
X229267188Y-103685940D01*
X229118801Y-103606624D01*
X229071141Y-103571277D01*
X228685123Y-103185259D01*
X228637247Y-103109064D01*
X228625900Y-103042282D01*
X228625900Y-100792717D01*
X228645924Y-100704986D01*
X228685120Y-100649743D01*
X229946765Y-99388097D01*
X229970896Y-99367490D01*
X229977560Y-99362649D01*
X230024125Y-99310931D01*
X230027735Y-99307127D01*
X230042839Y-99292025D01*
X230056278Y-99275427D01*
X230059680Y-99271443D01*
X230106247Y-99219727D01*
X230110361Y-99212599D01*
X230128342Y-99186436D01*
X230133527Y-99180035D01*
X230165118Y-99118031D01*
X230167618Y-99113427D01*
X230202407Y-99053173D01*
X230204953Y-99045334D01*
X230217100Y-99016011D01*
X230220838Y-99008677D01*
X230238844Y-98941470D01*
X230240342Y-98936417D01*
X230261837Y-98870266D01*
X230262696Y-98862085D01*
X230268480Y-98830869D01*
X230270614Y-98822910D01*
X230274255Y-98753430D01*
X230274670Y-98748161D01*
X230276900Y-98726954D01*
X230276900Y-98705625D01*
X230277039Y-98700333D01*
X230278254Y-98677128D01*
X230280680Y-98630854D01*
X230279389Y-98622700D01*
X230276900Y-98591074D01*
X230276900Y-97298111D01*
X230285607Y-97239415D01*
X230326442Y-97104798D01*
X230338760Y-97064192D01*
X230348891Y-96961332D01*
X230357896Y-96869906D01*
X230357896Y-96869897D01*
X230338760Y-96675613D01*
X230319699Y-96612778D01*
X230282088Y-96488789D01*
X230282087Y-96488786D01*
X230198038Y-96331544D01*
X230190057Y-96316612D01*
X230066205Y-96165697D01*
X229915290Y-96041845D01*
X229892185Y-96029495D01*
X229743115Y-95949814D01*
X229743109Y-95949812D01*
X229556288Y-95893141D01*
X229362004Y-95874006D01*
X229361996Y-95874006D01*
X229167711Y-95893141D01*
X228992487Y-95946295D01*
X228933791Y-95955002D01*
X227830015Y-95955002D01*
X227798383Y-95952512D01*
X227790246Y-95951223D01*
X227790244Y-95951223D01*
X227779010Y-95951811D01*
X227720776Y-95954863D01*
X227715485Y-95955002D01*
X227694140Y-95955002D01*
X227672915Y-95957232D01*
X227667643Y-95957647D01*
X227598187Y-95961288D01*
X227598174Y-95961290D01*
X227590210Y-95963424D01*
X227559036Y-95969202D01*
X227550840Y-95970063D01*
X227550828Y-95970066D01*
X227484670Y-95991561D01*
X227479598Y-95993063D01*
X227412421Y-96011064D01*
X227412413Y-96011067D01*
X227405072Y-96014808D01*
X227375767Y-96026946D01*
X227367931Y-96029491D01*
X227367923Y-96029495D01*
X227307693Y-96064269D01*
X227303043Y-96066794D01*
X227241073Y-96098369D01*
X227241065Y-96098374D01*
X227241062Y-96098376D01*
X227234644Y-96103572D01*
X227208523Y-96121525D01*
X227201371Y-96125654D01*
X227201370Y-96125655D01*
X227149678Y-96172197D01*
X227145659Y-96175630D01*
X227129079Y-96189056D01*
X227113980Y-96204154D01*
X227110145Y-96207794D01*
X227058448Y-96254342D01*
X227053598Y-96261018D01*
X227032998Y-96285136D01*
X226613976Y-96704158D01*
X226537781Y-96752034D01*
X226448360Y-96762110D01*
X226363422Y-96732389D01*
X226328022Y-96704158D01*
X223859123Y-94235259D01*
X223811247Y-94159064D01*
X223799900Y-94092282D01*
X223799900Y-93432922D01*
X223802390Y-93401288D01*
X223803680Y-93393143D01*
X223800039Y-93323665D01*
X223799900Y-93318372D01*
X223799900Y-93297045D01*
X223797670Y-93275838D01*
X223797254Y-93270555D01*
X223795453Y-93236189D01*
X223793614Y-93201090D01*
X223791481Y-93193130D01*
X223785697Y-93161923D01*
X223784875Y-93154100D01*
X223784837Y-93153734D01*
X223763343Y-93087586D01*
X223761841Y-93082513D01*
X223755227Y-93057830D01*
X223743838Y-93015323D01*
X223743835Y-93015318D01*
X223743834Y-93015314D01*
X223740095Y-93007976D01*
X223727954Y-92978667D01*
X223725407Y-92970827D01*
X223690629Y-92910591D01*
X223688108Y-92905946D01*
X223656530Y-92843970D01*
X223656528Y-92843967D01*
X223656527Y-92843965D01*
X223651336Y-92837555D01*
X223641859Y-92823765D01*
X225750789Y-92823765D01*
X225780414Y-93093017D01*
X225848927Y-93355083D01*
X225848929Y-93355090D01*
X225954867Y-93604384D01*
X225954875Y-93604400D01*
X226095978Y-93835604D01*
X226095982Y-93835611D01*
X226269255Y-94043820D01*
X226269256Y-94043821D01*
X226470999Y-94224583D01*
X226696911Y-94374045D01*
X226942177Y-94489021D01*
X227201570Y-94567061D01*
X227469562Y-94606501D01*
X227672629Y-94606501D01*
X227672632Y-94606501D01*
X227875157Y-94591678D01*
X228139554Y-94532781D01*
X228392559Y-94436015D01*
X228628778Y-94303442D01*
X228843178Y-94137889D01*
X229031187Y-93942882D01*
X229188800Y-93722580D01*
X229312657Y-93481676D01*
X229400119Y-93225306D01*
X229449320Y-92958934D01*
X229459213Y-92688236D01*
X229429587Y-92418983D01*
X229361073Y-92156913D01*
X229307279Y-92030326D01*
X229255134Y-91907617D01*
X229255126Y-91907601D01*
X229114023Y-91676397D01*
X229114019Y-91676390D01*
X228940746Y-91468181D01*
X228739003Y-91287419D01*
X228513091Y-91137957D01*
X228267825Y-91022981D01*
X228235185Y-91013161D01*
X228008431Y-90944940D01*
X227740440Y-90905501D01*
X227537370Y-90905501D01*
X227385476Y-90916618D01*
X227334844Y-90920324D01*
X227070446Y-90979221D01*
X227070443Y-90979222D01*
X226817447Y-91075985D01*
X226817432Y-91075992D01*
X226581228Y-91208556D01*
X226366825Y-91374112D01*
X226178815Y-91569119D01*
X226021203Y-91789419D01*
X226021202Y-91789421D01*
X225897345Y-92030324D01*
X225897344Y-92030327D01*
X225809884Y-92286691D01*
X225760682Y-92553066D01*
X225760682Y-92553071D01*
X225750789Y-92823762D01*
X225750789Y-92823765D01*
X223641859Y-92823765D01*
X223633363Y-92811403D01*
X223629246Y-92804271D01*
X223629245Y-92804270D01*
X223582712Y-92752590D01*
X223579275Y-92748567D01*
X223565841Y-92731977D01*
X223550750Y-92716886D01*
X223547105Y-92713045D01*
X223500565Y-92661356D01*
X223500563Y-92661354D01*
X223500560Y-92661351D01*
X223493884Y-92656500D01*
X223469763Y-92635899D01*
X221943101Y-91109237D01*
X221922495Y-91085110D01*
X221917651Y-91078443D01*
X221917649Y-91078440D01*
X221865932Y-91031874D01*
X221862112Y-91028248D01*
X221847025Y-91013161D01*
X221830428Y-90999721D01*
X221826417Y-90996295D01*
X221774727Y-90949752D01*
X221767581Y-90945627D01*
X221741437Y-90927658D01*
X221735035Y-90922474D01*
X221735033Y-90922473D01*
X221735032Y-90922472D01*
X221735029Y-90922470D01*
X221673056Y-90890893D01*
X221668406Y-90888368D01*
X221652529Y-90879201D01*
X221608173Y-90853593D01*
X221608171Y-90853592D01*
X221608169Y-90853591D01*
X221600325Y-90851042D01*
X221571023Y-90838904D01*
X221563679Y-90835162D01*
X221496498Y-90817161D01*
X221491424Y-90815658D01*
X221425265Y-90794162D01*
X221418476Y-90792719D01*
X221336827Y-90754887D01*
X221279679Y-90685375D01*
X221266357Y-90651352D01*
X221251372Y-90599774D01*
X221172905Y-90467093D01*
X221063906Y-90358094D01*
X220931226Y-90279628D01*
X220783205Y-90236623D01*
X220783199Y-90236622D01*
X220748613Y-90233900D01*
X220748610Y-90233900D01*
X220140871Y-90233900D01*
X218925388Y-90233901D01*
X218915043Y-90234714D01*
X218890802Y-90236621D01*
X218742774Y-90279627D01*
X218610093Y-90358094D01*
X218501094Y-90467093D01*
X218422628Y-90599774D01*
X218403871Y-90664335D01*
X218360165Y-90742996D01*
X218286658Y-90794904D01*
X218197908Y-90809778D01*
X218111494Y-90784672D01*
X218044531Y-90724558D01*
X218010281Y-90641343D01*
X218007500Y-90607922D01*
X218007500Y-88272005D01*
X223724055Y-88272005D01*
X223742602Y-88495836D01*
X223797740Y-88713573D01*
X223797741Y-88713574D01*
X223833999Y-88796235D01*
X223887964Y-88919262D01*
X223962447Y-89033267D01*
X224010814Y-89107299D01*
X224010815Y-89107300D01*
X224162929Y-89272540D01*
X224162933Y-89272543D01*
X224162934Y-89272544D01*
X224340181Y-89410500D01*
X224340183Y-89410501D01*
X224340184Y-89410502D01*
X224466598Y-89478913D01*
X224537716Y-89517401D01*
X224750153Y-89590331D01*
X224971697Y-89627300D01*
X224971701Y-89627300D01*
X225196299Y-89627300D01*
X225196303Y-89627300D01*
X225417847Y-89590331D01*
X225630284Y-89517401D01*
X225827819Y-89410500D01*
X226005066Y-89272544D01*
X226157188Y-89107296D01*
X226164724Y-89095760D01*
X226229470Y-89033267D01*
X226314920Y-89005054D01*
X226404149Y-89016711D01*
X226479485Y-89065928D01*
X226503277Y-89095762D01*
X226510813Y-89107297D01*
X226510815Y-89107300D01*
X226662929Y-89272540D01*
X226662933Y-89272543D01*
X226662934Y-89272544D01*
X226840181Y-89410500D01*
X226840183Y-89410501D01*
X226840184Y-89410502D01*
X226966598Y-89478913D01*
X227037716Y-89517401D01*
X227250153Y-89590331D01*
X227471697Y-89627300D01*
X227471701Y-89627300D01*
X227696299Y-89627300D01*
X227696303Y-89627300D01*
X227917847Y-89590331D01*
X228130284Y-89517401D01*
X228327819Y-89410500D01*
X228505066Y-89272544D01*
X228657188Y-89107296D01*
X228664724Y-89095760D01*
X228729470Y-89033267D01*
X228814920Y-89005054D01*
X228904149Y-89016711D01*
X228979485Y-89065928D01*
X229003277Y-89095762D01*
X229010813Y-89107297D01*
X229010815Y-89107300D01*
X229162929Y-89272540D01*
X229162933Y-89272543D01*
X229162934Y-89272544D01*
X229340181Y-89410500D01*
X229340183Y-89410501D01*
X229340184Y-89410502D01*
X229466598Y-89478913D01*
X229537716Y-89517401D01*
X229750153Y-89590331D01*
X229971697Y-89627300D01*
X229971701Y-89627300D01*
X230196299Y-89627300D01*
X230196303Y-89627300D01*
X230417847Y-89590331D01*
X230630284Y-89517401D01*
X230827819Y-89410500D01*
X231005066Y-89272544D01*
X231157188Y-89107296D01*
X231280036Y-88919262D01*
X231370259Y-88713573D01*
X231425397Y-88495840D01*
X231443945Y-88272000D01*
X231425397Y-88048160D01*
X231370259Y-87830427D01*
X231280036Y-87624738D01*
X231157188Y-87436704D01*
X231157186Y-87436702D01*
X231157185Y-87436700D01*
X231157184Y-87436699D01*
X231005070Y-87271459D01*
X230975092Y-87248126D01*
X230827819Y-87133500D01*
X230827816Y-87133498D01*
X230827815Y-87133497D01*
X230630290Y-87026602D01*
X230630277Y-87026596D01*
X230417855Y-86953671D01*
X230417838Y-86953667D01*
X230196312Y-86916701D01*
X230196306Y-86916700D01*
X230196303Y-86916700D01*
X229971697Y-86916700D01*
X229971694Y-86916700D01*
X229971687Y-86916701D01*
X229750161Y-86953667D01*
X229750144Y-86953671D01*
X229537722Y-87026596D01*
X229537709Y-87026602D01*
X229340184Y-87133497D01*
X229340182Y-87133499D01*
X229162929Y-87271459D01*
X229010815Y-87436699D01*
X229010809Y-87436707D01*
X229003274Y-87448241D01*
X228938526Y-87510734D01*
X228853075Y-87538945D01*
X228763846Y-87527287D01*
X228688512Y-87478068D01*
X228664726Y-87448241D01*
X228657190Y-87436707D01*
X228657184Y-87436699D01*
X228505070Y-87271459D01*
X228475092Y-87248126D01*
X228327819Y-87133500D01*
X228327816Y-87133498D01*
X228327815Y-87133497D01*
X228130290Y-87026602D01*
X228130277Y-87026596D01*
X227917855Y-86953671D01*
X227917838Y-86953667D01*
X227696312Y-86916701D01*
X227696306Y-86916700D01*
X227696303Y-86916700D01*
X227471697Y-86916700D01*
X227471694Y-86916700D01*
X227471687Y-86916701D01*
X227250161Y-86953667D01*
X227250144Y-86953671D01*
X227037722Y-87026596D01*
X227037709Y-87026602D01*
X226840184Y-87133497D01*
X226840182Y-87133499D01*
X226662929Y-87271459D01*
X226510815Y-87436699D01*
X226510809Y-87436707D01*
X226503274Y-87448241D01*
X226438526Y-87510734D01*
X226353075Y-87538945D01*
X226263846Y-87527287D01*
X226188512Y-87478068D01*
X226164726Y-87448241D01*
X226157190Y-87436707D01*
X226157184Y-87436699D01*
X226005070Y-87271459D01*
X225975092Y-87248126D01*
X225827819Y-87133500D01*
X225827816Y-87133498D01*
X225827815Y-87133497D01*
X225630290Y-87026602D01*
X225630277Y-87026596D01*
X225417855Y-86953671D01*
X225417838Y-86953667D01*
X225196312Y-86916701D01*
X225196306Y-86916700D01*
X225196303Y-86916700D01*
X224971697Y-86916700D01*
X224971694Y-86916700D01*
X224971687Y-86916701D01*
X224750161Y-86953667D01*
X224750144Y-86953671D01*
X224537722Y-87026596D01*
X224537709Y-87026602D01*
X224340184Y-87133497D01*
X224340182Y-87133499D01*
X224162929Y-87271459D01*
X224010815Y-87436699D01*
X224010814Y-87436700D01*
X223887963Y-87624740D01*
X223887960Y-87624745D01*
X223797741Y-87830425D01*
X223797740Y-87830426D01*
X223742602Y-88048163D01*
X223724055Y-88271994D01*
X223724055Y-88272005D01*
X218007500Y-88272005D01*
X218007500Y-81076800D01*
X220632671Y-81076800D01*
X220640761Y-81184758D01*
X220699390Y-81441628D01*
X220699390Y-81441629D01*
X220795654Y-81686907D01*
X220927396Y-81915089D01*
X220927402Y-81915098D01*
X221091680Y-82121096D01*
X221284830Y-82300313D01*
X221502536Y-82448742D01*
X221739927Y-82563064D01*
X221991709Y-82640729D01*
X222079200Y-82653915D01*
X222079200Y-81446940D01*
X222181543Y-81495100D01*
X222342862Y-81525873D01*
X222506766Y-81515561D01*
X222662956Y-81464812D01*
X222688800Y-81448410D01*
X222688800Y-82653915D01*
X222776290Y-82640729D01*
X223028072Y-82563064D01*
X223265463Y-82448742D01*
X223483169Y-82300313D01*
X223676319Y-82121096D01*
X223840597Y-81915098D01*
X223840603Y-81915089D01*
X223972345Y-81686907D01*
X224068609Y-81441629D01*
X224068609Y-81441628D01*
X224127238Y-81184758D01*
X224135329Y-81076800D01*
X231032671Y-81076800D01*
X231040761Y-81184758D01*
X231099390Y-81441628D01*
X231099390Y-81441629D01*
X231195654Y-81686907D01*
X231327396Y-81915089D01*
X231327402Y-81915098D01*
X231491680Y-82121096D01*
X231684830Y-82300313D01*
X231902536Y-82448742D01*
X232139927Y-82563064D01*
X232391709Y-82640729D01*
X232479200Y-82653915D01*
X232479200Y-81446940D01*
X232581543Y-81495100D01*
X232742862Y-81525873D01*
X232906766Y-81515561D01*
X233062956Y-81464812D01*
X233088800Y-81448410D01*
X233088800Y-82653915D01*
X233176290Y-82640729D01*
X233428072Y-82563064D01*
X233665463Y-82448742D01*
X233883169Y-82300313D01*
X234076319Y-82121096D01*
X234240597Y-81915098D01*
X234240603Y-81915089D01*
X234372345Y-81686907D01*
X234468609Y-81441629D01*
X234468609Y-81441628D01*
X234527238Y-81184758D01*
X234535329Y-81076800D01*
X233402500Y-81076800D01*
X233434000Y-80954114D01*
X233434000Y-80631106D01*
X233418583Y-80509067D01*
X233402007Y-80467200D01*
X234535329Y-80467200D01*
X234527238Y-80359241D01*
X234468609Y-80102371D01*
X234468609Y-80102370D01*
X234372345Y-79857092D01*
X234240603Y-79628910D01*
X234240597Y-79628901D01*
X234076319Y-79422903D01*
X233883169Y-79243686D01*
X233665463Y-79095257D01*
X233428072Y-78980935D01*
X233176289Y-78903270D01*
X233088800Y-78890083D01*
X233088800Y-80097059D01*
X232986457Y-80048900D01*
X232825138Y-80018127D01*
X232661234Y-80028439D01*
X232505044Y-80079188D01*
X232479200Y-80095589D01*
X232479200Y-78890083D01*
X232391710Y-78903270D01*
X232391709Y-78903270D01*
X232139927Y-78980935D01*
X231902536Y-79095257D01*
X231684830Y-79243686D01*
X231491680Y-79422903D01*
X231327402Y-79628901D01*
X231327396Y-79628910D01*
X231195654Y-79857092D01*
X231099390Y-80102370D01*
X231099390Y-80102371D01*
X231040761Y-80359241D01*
X231032671Y-80467200D01*
X232165500Y-80467200D01*
X232134000Y-80589886D01*
X232134000Y-80912894D01*
X232149417Y-81034933D01*
X232165993Y-81076800D01*
X231032671Y-81076800D01*
X224135329Y-81076800D01*
X223002500Y-81076800D01*
X223034000Y-80954114D01*
X223034000Y-80631106D01*
X223018583Y-80509067D01*
X223002007Y-80467200D01*
X224135329Y-80467200D01*
X224127238Y-80359241D01*
X224068609Y-80102371D01*
X224068609Y-80102370D01*
X223972345Y-79857092D01*
X223840603Y-79628910D01*
X223840597Y-79628901D01*
X223676319Y-79422903D01*
X223483169Y-79243686D01*
X223265463Y-79095257D01*
X223028072Y-78980935D01*
X222776289Y-78903270D01*
X222688800Y-78890083D01*
X222688800Y-80097059D01*
X222586457Y-80048900D01*
X222425138Y-80018127D01*
X222261234Y-80028439D01*
X222105044Y-80079188D01*
X222079200Y-80095589D01*
X222079200Y-78890083D01*
X221991710Y-78903270D01*
X221991709Y-78903270D01*
X221739927Y-78980935D01*
X221502536Y-79095257D01*
X221284830Y-79243686D01*
X221091680Y-79422903D01*
X220927402Y-79628901D01*
X220927396Y-79628910D01*
X220795654Y-79857092D01*
X220699390Y-80102370D01*
X220699390Y-80102371D01*
X220640761Y-80359241D01*
X220632671Y-80467200D01*
X221765500Y-80467200D01*
X221734000Y-80589886D01*
X221734000Y-80912894D01*
X221749417Y-81034933D01*
X221765993Y-81076800D01*
X220632671Y-81076800D01*
X218007500Y-81076800D01*
X218007500Y-72010000D01*
X218664896Y-72010000D01*
X218684875Y-72238365D01*
X218684875Y-72238368D01*
X218684876Y-72238369D01*
X218744204Y-72459786D01*
X218744208Y-72459797D01*
X218798124Y-72575418D01*
X218841087Y-72667552D01*
X218860700Y-72695562D01*
X218972569Y-72855330D01*
X218972572Y-72855333D01*
X219134667Y-73017428D01*
X219293879Y-73128909D01*
X219299548Y-73132878D01*
X219359928Y-73199601D01*
X219385378Y-73285915D01*
X219370858Y-73374723D01*
X219319244Y-73448437D01*
X219299548Y-73464144D01*
X219244666Y-73502572D01*
X219082569Y-73664669D01*
X218951090Y-73852443D01*
X218951084Y-73852454D01*
X218854208Y-74060202D01*
X218854204Y-74060213D01*
X218794876Y-74281630D01*
X218794875Y-74281635D01*
X218774896Y-74510000D01*
X218794875Y-74738365D01*
X218794875Y-74738368D01*
X218794876Y-74738369D01*
X218854204Y-74959786D01*
X218854208Y-74959797D01*
X218908124Y-75075418D01*
X218951087Y-75167552D01*
X218951090Y-75167556D01*
X219082569Y-75355330D01*
X219244669Y-75517430D01*
X219347154Y-75589190D01*
X219432448Y-75648913D01*
X219640208Y-75745794D01*
X219861635Y-75805125D01*
X220090000Y-75825104D01*
X220318365Y-75805125D01*
X220539792Y-75745794D01*
X220747552Y-75648913D01*
X220879346Y-75556630D01*
X220942566Y-75512364D01*
X220944222Y-75514729D01*
X221009716Y-75481153D01*
X221059611Y-75474900D01*
X224922080Y-75474900D01*
X224953705Y-75477389D01*
X224958932Y-75478216D01*
X224961854Y-75478679D01*
X225009843Y-75476164D01*
X225031321Y-75475039D01*
X225036612Y-75474900D01*
X225057946Y-75474900D01*
X225057952Y-75474900D01*
X225079198Y-75472666D01*
X225084454Y-75472253D01*
X225153910Y-75468614D01*
X225161869Y-75466480D01*
X225193085Y-75460696D01*
X225201266Y-75459837D01*
X225267424Y-75438339D01*
X225272470Y-75436844D01*
X225339677Y-75418838D01*
X225347016Y-75415097D01*
X225376340Y-75402952D01*
X225376614Y-75402862D01*
X225384173Y-75400407D01*
X225384188Y-75400398D01*
X225391175Y-75397288D01*
X225402959Y-75392895D01*
X225511113Y-75360088D01*
X225683290Y-75268057D01*
X225834205Y-75144205D01*
X225958057Y-74993290D01*
X226050088Y-74821113D01*
X226050088Y-74821111D01*
X226053890Y-74811934D01*
X226055109Y-74812438D01*
X226094635Y-74743224D01*
X226168745Y-74692181D01*
X226257663Y-74678348D01*
X226343777Y-74704465D01*
X226410031Y-74765359D01*
X226438817Y-74827719D01*
X226474204Y-74959786D01*
X226474208Y-74959797D01*
X226528124Y-75075418D01*
X226571087Y-75167552D01*
X226571090Y-75167556D01*
X226702569Y-75355330D01*
X226864669Y-75517430D01*
X226967154Y-75589190D01*
X227052448Y-75648913D01*
X227260208Y-75745794D01*
X227481635Y-75805125D01*
X227710000Y-75825104D01*
X227938365Y-75805125D01*
X228159792Y-75745794D01*
X228367552Y-75648913D01*
X228555333Y-75517428D01*
X228717428Y-75355333D01*
X228848913Y-75167552D01*
X228945794Y-74959792D01*
X229005125Y-74738365D01*
X229025104Y-74510000D01*
X229005125Y-74281635D01*
X228945794Y-74060208D01*
X228848913Y-73852448D01*
X228767232Y-73735795D01*
X228717430Y-73664669D01*
X228555330Y-73502569D01*
X228367556Y-73371090D01*
X228367557Y-73371090D01*
X228367552Y-73371087D01*
X228251199Y-73316830D01*
X228159797Y-73274208D01*
X228159793Y-73274206D01*
X228159792Y-73274206D01*
X228159790Y-73274205D01*
X228159786Y-73274204D01*
X227929838Y-73212590D01*
X227930622Y-73209661D01*
X227863355Y-73181230D01*
X227803876Y-73113702D01*
X227779587Y-73027054D01*
X227795298Y-72938449D01*
X227838567Y-72874193D01*
X227877428Y-72835333D01*
X228008913Y-72647552D01*
X228105794Y-72439792D01*
X228165125Y-72218365D01*
X228185104Y-71990000D01*
X233174896Y-71990000D01*
X233194875Y-72218365D01*
X233194875Y-72218368D01*
X233194876Y-72218369D01*
X233254204Y-72439786D01*
X233254208Y-72439797D01*
X233264326Y-72461494D01*
X233351087Y-72647552D01*
X233351090Y-72647556D01*
X233482569Y-72835330D01*
X233644669Y-72997430D01*
X233728107Y-73055853D01*
X233832448Y-73128913D01*
X234040208Y-73225794D01*
X234261635Y-73285125D01*
X234490000Y-73305104D01*
X234718365Y-73285125D01*
X234939792Y-73225794D01*
X235147552Y-73128913D01*
X235335333Y-72997428D01*
X235497428Y-72835333D01*
X235628913Y-72647552D01*
X235725794Y-72439792D01*
X235785125Y-72218365D01*
X235805104Y-71990000D01*
X235785125Y-71761635D01*
X235725794Y-71540208D01*
X235628913Y-71332448D01*
X235569190Y-71247154D01*
X235497430Y-71144669D01*
X235335330Y-70982569D01*
X235147556Y-70851090D01*
X235147557Y-70851090D01*
X235147552Y-70851087D01*
X234982682Y-70774206D01*
X234939797Y-70754208D01*
X234939793Y-70754206D01*
X234939792Y-70754206D01*
X234939790Y-70754205D01*
X234939786Y-70754204D01*
X234718369Y-70694876D01*
X234718368Y-70694875D01*
X234718365Y-70694875D01*
X234490000Y-70674896D01*
X234261635Y-70694875D01*
X234261631Y-70694875D01*
X234261630Y-70694876D01*
X234040213Y-70754204D01*
X234040202Y-70754208D01*
X233832454Y-70851084D01*
X233832448Y-70851087D01*
X233832446Y-70851088D01*
X233832443Y-70851090D01*
X233644669Y-70982569D01*
X233482569Y-71144669D01*
X233351090Y-71332443D01*
X233351084Y-71332454D01*
X233254208Y-71540202D01*
X233254204Y-71540213D01*
X233194876Y-71761630D01*
X233194875Y-71761635D01*
X233174896Y-71990000D01*
X228185104Y-71990000D01*
X228165125Y-71761635D01*
X228105794Y-71540208D01*
X228008913Y-71332448D01*
X227949190Y-71247154D01*
X227877430Y-71144669D01*
X227715330Y-70982569D01*
X227527556Y-70851090D01*
X227527557Y-70851090D01*
X227527552Y-70851087D01*
X227362682Y-70774206D01*
X227319797Y-70754208D01*
X227319793Y-70754206D01*
X227319792Y-70754206D01*
X227319790Y-70754205D01*
X227319786Y-70754204D01*
X227098369Y-70694876D01*
X227098368Y-70694875D01*
X227098365Y-70694875D01*
X226870000Y-70674896D01*
X226641635Y-70694875D01*
X226641631Y-70694875D01*
X226641630Y-70694876D01*
X226420213Y-70754204D01*
X226420202Y-70754208D01*
X226212454Y-70851084D01*
X226212448Y-70851087D01*
X226212446Y-70851088D01*
X226212443Y-70851090D01*
X226024669Y-70982569D01*
X225862569Y-71144669D01*
X225731090Y-71332443D01*
X225731084Y-71332454D01*
X225634208Y-71540202D01*
X225634204Y-71540213D01*
X225574876Y-71761630D01*
X225574875Y-71761635D01*
X225554896Y-71990000D01*
X225574875Y-72218365D01*
X225574875Y-72218368D01*
X225574876Y-72218369D01*
X225634204Y-72439786D01*
X225634208Y-72439797D01*
X225644326Y-72461494D01*
X225731087Y-72647552D01*
X225731090Y-72647556D01*
X225862569Y-72835330D01*
X226024669Y-72997430D01*
X226108107Y-73055853D01*
X226212448Y-73128913D01*
X226420208Y-73225794D01*
X226550569Y-73260724D01*
X226650162Y-73287410D01*
X226649368Y-73290372D01*
X226716435Y-73318619D01*
X226776000Y-73386071D01*
X226800399Y-73472687D01*
X226784801Y-73561312D01*
X226741433Y-73625805D01*
X226702569Y-73664669D01*
X226571090Y-73852443D01*
X226571084Y-73852454D01*
X226474208Y-74060202D01*
X226474203Y-74060217D01*
X226458734Y-74117945D01*
X226416685Y-74197504D01*
X226344280Y-74250939D01*
X226255861Y-74267667D01*
X226168940Y-74244376D01*
X226100733Y-74185677D01*
X226069932Y-74124306D01*
X226050088Y-74058887D01*
X226050087Y-74058885D01*
X226050087Y-74058884D01*
X226001280Y-73967575D01*
X225958057Y-73886710D01*
X225834205Y-73735795D01*
X225683290Y-73611943D01*
X225671403Y-73605589D01*
X225511115Y-73519912D01*
X225511109Y-73519910D01*
X225324288Y-73463239D01*
X225130004Y-73444104D01*
X225129996Y-73444104D01*
X224935711Y-73463239D01*
X224748890Y-73519910D01*
X224748884Y-73519912D01*
X224567950Y-73616625D01*
X224567180Y-73615186D01*
X224494014Y-73643115D01*
X224465750Y-73645100D01*
X222945422Y-73645100D01*
X222857691Y-73625076D01*
X222787336Y-73568970D01*
X222748292Y-73487894D01*
X222748292Y-73397906D01*
X222787336Y-73316830D01*
X222857691Y-73260724D01*
X222893082Y-73247591D01*
X222899792Y-73245794D01*
X223107552Y-73148913D01*
X223295333Y-73017428D01*
X223457428Y-72855333D01*
X223588913Y-72667552D01*
X223685794Y-72459792D01*
X223745125Y-72238365D01*
X223765104Y-72010000D01*
X223745125Y-71781635D01*
X223685794Y-71560208D01*
X223588913Y-71352448D01*
X223519367Y-71253126D01*
X223457430Y-71164669D01*
X223295330Y-71002569D01*
X223107556Y-70871090D01*
X223107557Y-70871090D01*
X223107552Y-70871087D01*
X223015418Y-70828124D01*
X222899797Y-70774208D01*
X222899793Y-70774206D01*
X222899792Y-70774206D01*
X222899790Y-70774205D01*
X222899786Y-70774204D01*
X222678369Y-70714876D01*
X222678368Y-70714875D01*
X222678365Y-70714875D01*
X222450000Y-70694896D01*
X222221635Y-70714875D01*
X222221631Y-70714875D01*
X222221630Y-70714876D01*
X222000213Y-70774204D01*
X222000202Y-70774208D01*
X221835331Y-70851090D01*
X221792448Y-70871087D01*
X221792446Y-70871088D01*
X221792443Y-70871090D01*
X221604669Y-71002569D01*
X221442572Y-71164666D01*
X221380633Y-71253126D01*
X221313910Y-71313506D01*
X221227596Y-71338956D01*
X221138788Y-71324436D01*
X221065074Y-71272822D01*
X221049367Y-71253126D01*
X220987427Y-71164666D01*
X220825330Y-71002569D01*
X220637556Y-70871090D01*
X220637557Y-70871090D01*
X220637552Y-70871087D01*
X220545418Y-70828124D01*
X220429797Y-70774208D01*
X220429793Y-70774206D01*
X220429792Y-70774206D01*
X220429790Y-70774205D01*
X220429786Y-70774204D01*
X220208369Y-70714876D01*
X220208368Y-70714875D01*
X220208365Y-70714875D01*
X219980000Y-70694896D01*
X219751635Y-70714875D01*
X219751631Y-70714875D01*
X219751630Y-70714876D01*
X219530213Y-70774204D01*
X219530202Y-70774208D01*
X219365331Y-70851090D01*
X219322448Y-70871087D01*
X219322446Y-70871088D01*
X219322443Y-70871090D01*
X219134669Y-71002569D01*
X218972569Y-71164669D01*
X218841090Y-71352443D01*
X218841084Y-71352454D01*
X218744208Y-71560202D01*
X218744204Y-71560213D01*
X218690235Y-71761630D01*
X218684875Y-71781635D01*
X218664896Y-72010000D01*
X218007500Y-72010000D01*
X218007500Y-67952000D01*
X223521182Y-67952000D01*
X223540423Y-68196481D01*
X223540425Y-68196489D01*
X223597671Y-68434935D01*
X223597672Y-68434938D01*
X223691519Y-68661506D01*
X223691522Y-68661512D01*
X223787239Y-68817706D01*
X224584000Y-68020945D01*
X224584000Y-68023889D01*
X224624507Y-68161844D01*
X224702239Y-68282798D01*
X224810900Y-68376952D01*
X224941685Y-68436680D01*
X225019223Y-68447828D01*
X224218293Y-69248758D01*
X224374491Y-69344478D01*
X224374499Y-69344482D01*
X224601061Y-69438327D01*
X224601064Y-69438328D01*
X224839510Y-69495574D01*
X224839518Y-69495576D01*
X225084000Y-69514817D01*
X225328481Y-69495576D01*
X225328489Y-69495574D01*
X225566935Y-69438328D01*
X225566938Y-69438327D01*
X225793504Y-69344481D01*
X225949705Y-69248759D01*
X225148776Y-68447828D01*
X225226315Y-68436680D01*
X225357100Y-68376952D01*
X225465761Y-68282798D01*
X225543493Y-68161844D01*
X225584000Y-68023889D01*
X225584000Y-68020947D01*
X226380758Y-68817705D01*
X226420703Y-68812978D01*
X226510180Y-68822551D01*
X226586642Y-68869998D01*
X226593233Y-68876829D01*
X226662932Y-68952543D01*
X226736840Y-69010067D01*
X226840181Y-69090500D01*
X226840183Y-69090501D01*
X226840184Y-69090502D01*
X226966598Y-69158913D01*
X227037716Y-69197401D01*
X227250153Y-69270331D01*
X227471697Y-69307300D01*
X227471701Y-69307300D01*
X227696299Y-69307300D01*
X227696303Y-69307300D01*
X227917847Y-69270331D01*
X228130284Y-69197401D01*
X228327819Y-69090500D01*
X228505066Y-68952544D01*
X228657188Y-68787296D01*
X228664724Y-68775760D01*
X228729470Y-68713267D01*
X228814920Y-68685054D01*
X228904149Y-68696711D01*
X228979485Y-68745928D01*
X229003277Y-68775762D01*
X229010813Y-68787297D01*
X229010815Y-68787300D01*
X229162929Y-68952540D01*
X229162933Y-68952543D01*
X229162934Y-68952544D01*
X229340181Y-69090500D01*
X229340183Y-69090501D01*
X229340184Y-69090502D01*
X229466598Y-69158913D01*
X229537716Y-69197401D01*
X229750153Y-69270331D01*
X229971697Y-69307300D01*
X229971701Y-69307300D01*
X230196299Y-69307300D01*
X230196303Y-69307300D01*
X230417847Y-69270331D01*
X230630284Y-69197401D01*
X230827819Y-69090500D01*
X231005066Y-68952544D01*
X231157188Y-68787296D01*
X231280036Y-68599262D01*
X231370259Y-68393573D01*
X231425397Y-68175840D01*
X231443945Y-67952000D01*
X231425397Y-67728160D01*
X231370259Y-67510427D01*
X231280036Y-67304738D01*
X231157188Y-67116704D01*
X231157186Y-67116702D01*
X231157185Y-67116700D01*
X231157184Y-67116699D01*
X231005070Y-66951459D01*
X230975092Y-66928126D01*
X230827819Y-66813500D01*
X230827816Y-66813498D01*
X230827815Y-66813497D01*
X230630290Y-66706602D01*
X230630277Y-66706596D01*
X230417855Y-66633671D01*
X230417838Y-66633667D01*
X230196312Y-66596701D01*
X230196306Y-66596700D01*
X230196303Y-66596700D01*
X229971697Y-66596700D01*
X229971694Y-66596700D01*
X229971687Y-66596701D01*
X229750161Y-66633667D01*
X229750144Y-66633671D01*
X229537722Y-66706596D01*
X229537709Y-66706602D01*
X229340184Y-66813497D01*
X229340182Y-66813499D01*
X229162929Y-66951459D01*
X229010815Y-67116699D01*
X229010809Y-67116707D01*
X229003274Y-67128241D01*
X228938526Y-67190734D01*
X228853075Y-67218945D01*
X228763846Y-67207287D01*
X228688512Y-67158068D01*
X228664726Y-67128241D01*
X228657190Y-67116707D01*
X228657184Y-67116699D01*
X228505070Y-66951459D01*
X228475092Y-66928126D01*
X228327819Y-66813500D01*
X228327816Y-66813498D01*
X228327815Y-66813497D01*
X228130290Y-66706602D01*
X228130277Y-66706596D01*
X227917855Y-66633671D01*
X227917838Y-66633667D01*
X227696312Y-66596701D01*
X227696306Y-66596700D01*
X227696303Y-66596700D01*
X227471697Y-66596700D01*
X227471694Y-66596700D01*
X227471687Y-66596701D01*
X227250161Y-66633667D01*
X227250144Y-66633671D01*
X227037722Y-66706596D01*
X227037709Y-66706602D01*
X226840184Y-66813497D01*
X226840182Y-66813499D01*
X226662929Y-66951459D01*
X226593233Y-67027169D01*
X226519082Y-67078153D01*
X226430153Y-67091914D01*
X226420705Y-67091020D01*
X226380759Y-67086292D01*
X225584000Y-67883051D01*
X225584000Y-67880111D01*
X225543493Y-67742156D01*
X225465761Y-67621202D01*
X225357100Y-67527048D01*
X225226315Y-67467320D01*
X225148773Y-67456171D01*
X225949706Y-66655239D01*
X225793512Y-66559522D01*
X225793506Y-66559519D01*
X225566938Y-66465672D01*
X225566935Y-66465671D01*
X225328489Y-66408425D01*
X225328481Y-66408423D01*
X225084000Y-66389182D01*
X224839518Y-66408423D01*
X224839510Y-66408425D01*
X224601064Y-66465671D01*
X224601061Y-66465672D01*
X224374493Y-66559519D01*
X224374487Y-66559522D01*
X224218292Y-66655239D01*
X225019224Y-67456171D01*
X224941685Y-67467320D01*
X224810900Y-67527048D01*
X224702239Y-67621202D01*
X224624507Y-67742156D01*
X224584000Y-67880111D01*
X224584000Y-67883053D01*
X223787239Y-67086292D01*
X223691522Y-67242487D01*
X223691519Y-67242493D01*
X223597672Y-67469061D01*
X223597671Y-67469064D01*
X223540425Y-67707510D01*
X223540423Y-67707518D01*
X223521182Y-67952000D01*
X218007500Y-67952000D01*
X218007500Y-64390000D01*
X218664896Y-64390000D01*
X218684875Y-64618365D01*
X218684875Y-64618368D01*
X218684876Y-64618369D01*
X218744204Y-64839786D01*
X218744208Y-64839797D01*
X218798124Y-64955418D01*
X218841087Y-65047552D01*
X218860700Y-65075562D01*
X218972569Y-65235330D01*
X219134669Y-65397430D01*
X219237154Y-65469190D01*
X219322448Y-65528913D01*
X219530208Y-65625794D01*
X219751635Y-65685125D01*
X219980000Y-65705104D01*
X220208365Y-65685125D01*
X220429792Y-65625794D01*
X220637552Y-65528913D01*
X220825333Y-65397428D01*
X220987428Y-65235333D01*
X221049369Y-65146870D01*
X221116089Y-65086494D01*
X221202403Y-65061043D01*
X221291211Y-65075562D01*
X221364925Y-65127176D01*
X221380622Y-65146860D01*
X221442570Y-65235330D01*
X221442573Y-65235334D01*
X221604669Y-65397430D01*
X221707154Y-65469190D01*
X221792448Y-65528913D01*
X222000208Y-65625794D01*
X222221635Y-65685125D01*
X222450000Y-65705104D01*
X222678365Y-65685125D01*
X222899792Y-65625794D01*
X223107552Y-65528913D01*
X223295333Y-65397428D01*
X223457428Y-65235333D01*
X223588913Y-65047552D01*
X223685794Y-64839792D01*
X223745125Y-64618365D01*
X223765104Y-64390000D01*
X223745125Y-64161635D01*
X223685794Y-63940208D01*
X223588913Y-63732448D01*
X223519367Y-63633126D01*
X223457430Y-63544669D01*
X223295330Y-63382569D01*
X223107556Y-63251090D01*
X223107557Y-63251090D01*
X223107552Y-63251087D01*
X223015418Y-63208124D01*
X222899797Y-63154208D01*
X222899793Y-63154206D01*
X222899792Y-63154206D01*
X222899790Y-63154205D01*
X222899786Y-63154204D01*
X222678369Y-63094876D01*
X222678368Y-63094875D01*
X222678365Y-63094875D01*
X222450000Y-63074896D01*
X222221635Y-63094875D01*
X222221631Y-63094875D01*
X222221630Y-63094876D01*
X222000213Y-63154204D01*
X222000202Y-63154208D01*
X221792454Y-63251084D01*
X221792448Y-63251087D01*
X221792446Y-63251088D01*
X221792443Y-63251090D01*
X221604669Y-63382569D01*
X221442572Y-63544666D01*
X221380633Y-63633126D01*
X221313910Y-63693506D01*
X221227596Y-63718956D01*
X221138788Y-63704436D01*
X221065074Y-63652822D01*
X221049367Y-63633126D01*
X220987427Y-63544666D01*
X220825330Y-63382569D01*
X220637556Y-63251090D01*
X220637557Y-63251090D01*
X220637552Y-63251087D01*
X220545418Y-63208124D01*
X220429797Y-63154208D01*
X220429793Y-63154206D01*
X220429792Y-63154206D01*
X220429790Y-63154205D01*
X220429786Y-63154204D01*
X220208369Y-63094876D01*
X220208368Y-63094875D01*
X220208365Y-63094875D01*
X219980000Y-63074896D01*
X219751635Y-63094875D01*
X219751631Y-63094875D01*
X219751630Y-63094876D01*
X219530213Y-63154204D01*
X219530202Y-63154208D01*
X219322454Y-63251084D01*
X219322448Y-63251087D01*
X219322446Y-63251088D01*
X219322443Y-63251090D01*
X219134669Y-63382569D01*
X218972569Y-63544669D01*
X218841090Y-63732443D01*
X218841084Y-63732454D01*
X218744208Y-63940202D01*
X218744204Y-63940213D01*
X218684876Y-64161630D01*
X218684875Y-64161635D01*
X218664896Y-64390000D01*
X218007500Y-64390000D01*
X218007500Y-60756800D01*
X220632671Y-60756800D01*
X220640761Y-60864758D01*
X220699390Y-61121628D01*
X220699390Y-61121629D01*
X220795654Y-61366907D01*
X220927396Y-61595089D01*
X220927402Y-61595098D01*
X221091680Y-61801096D01*
X221284830Y-61980313D01*
X221502536Y-62128742D01*
X221739927Y-62243064D01*
X221991709Y-62320729D01*
X222079200Y-62333915D01*
X222079200Y-61126940D01*
X222181543Y-61175100D01*
X222342862Y-61205873D01*
X222506766Y-61195561D01*
X222662956Y-61144812D01*
X222688800Y-61128410D01*
X222688800Y-62333915D01*
X222776290Y-62320729D01*
X223028072Y-62243064D01*
X223265463Y-62128742D01*
X223483169Y-61980313D01*
X223676319Y-61801096D01*
X223840597Y-61595098D01*
X223840603Y-61595089D01*
X223972345Y-61366907D01*
X224068609Y-61121629D01*
X224068609Y-61121628D01*
X224127238Y-60864758D01*
X224135329Y-60756800D01*
X231032671Y-60756800D01*
X231040761Y-60864758D01*
X231099390Y-61121628D01*
X231099390Y-61121629D01*
X231195654Y-61366907D01*
X231327396Y-61595089D01*
X231327402Y-61595098D01*
X231491680Y-61801096D01*
X231684830Y-61980313D01*
X231902536Y-62128742D01*
X232139927Y-62243064D01*
X232391709Y-62320729D01*
X232479200Y-62333915D01*
X232479200Y-61126940D01*
X232581543Y-61175100D01*
X232742862Y-61205873D01*
X232906766Y-61195561D01*
X233062956Y-61144812D01*
X233088800Y-61128410D01*
X233088800Y-62333915D01*
X233176290Y-62320729D01*
X233428072Y-62243064D01*
X233665463Y-62128742D01*
X233883169Y-61980313D01*
X234076319Y-61801096D01*
X234240597Y-61595098D01*
X234240603Y-61595089D01*
X234372345Y-61366907D01*
X234468609Y-61121629D01*
X234468609Y-61121628D01*
X234527238Y-60864758D01*
X234535329Y-60756800D01*
X233402500Y-60756800D01*
X233434000Y-60634114D01*
X233434000Y-60311106D01*
X233418583Y-60189067D01*
X233402007Y-60147200D01*
X234535329Y-60147200D01*
X234527238Y-60039241D01*
X234468609Y-59782371D01*
X234468609Y-59782370D01*
X234372345Y-59537092D01*
X234240603Y-59308910D01*
X234240597Y-59308901D01*
X234076319Y-59102903D01*
X233883169Y-58923686D01*
X233665463Y-58775257D01*
X233428072Y-58660935D01*
X233176289Y-58583270D01*
X233088800Y-58570083D01*
X233088800Y-59777059D01*
X232986457Y-59728900D01*
X232825138Y-59698127D01*
X232661234Y-59708439D01*
X232505044Y-59759188D01*
X232479200Y-59775589D01*
X232479200Y-58570083D01*
X232391710Y-58583270D01*
X232391709Y-58583270D01*
X232139927Y-58660935D01*
X231902536Y-58775257D01*
X231684830Y-58923686D01*
X231491680Y-59102903D01*
X231327402Y-59308901D01*
X231327396Y-59308910D01*
X231195654Y-59537092D01*
X231099390Y-59782370D01*
X231099390Y-59782371D01*
X231040761Y-60039241D01*
X231032671Y-60147200D01*
X232165500Y-60147200D01*
X232134000Y-60269886D01*
X232134000Y-60592894D01*
X232149417Y-60714933D01*
X232165993Y-60756800D01*
X231032671Y-60756800D01*
X224135329Y-60756800D01*
X223002500Y-60756800D01*
X223034000Y-60634114D01*
X223034000Y-60311106D01*
X223018583Y-60189067D01*
X223002007Y-60147200D01*
X224135329Y-60147200D01*
X224127238Y-60039241D01*
X224068609Y-59782371D01*
X224068609Y-59782370D01*
X223972345Y-59537092D01*
X223840603Y-59308910D01*
X223840597Y-59308901D01*
X223676319Y-59102903D01*
X223483169Y-58923686D01*
X223265463Y-58775257D01*
X223028072Y-58660935D01*
X222776289Y-58583270D01*
X222688800Y-58570083D01*
X222688800Y-59777059D01*
X222586457Y-59728900D01*
X222425138Y-59698127D01*
X222261234Y-59708439D01*
X222105044Y-59759188D01*
X222079200Y-59775589D01*
X222079200Y-58570083D01*
X221991710Y-58583270D01*
X221991709Y-58583270D01*
X221739927Y-58660935D01*
X221502536Y-58775257D01*
X221284830Y-58923686D01*
X221091680Y-59102903D01*
X220927402Y-59308901D01*
X220927396Y-59308910D01*
X220795654Y-59537092D01*
X220699390Y-59782370D01*
X220699390Y-59782371D01*
X220640761Y-60039241D01*
X220632671Y-60147200D01*
X221765500Y-60147200D01*
X221734000Y-60269886D01*
X221734000Y-60592894D01*
X221749417Y-60714933D01*
X221765993Y-60756800D01*
X220632671Y-60756800D01*
X218007500Y-60756800D01*
X218007500Y-58189700D01*
X218027524Y-58101969D01*
X218083630Y-58031614D01*
X218164706Y-57992570D01*
X218209700Y-57987500D01*
X236958300Y-57987500D01*
X237046031Y-58007524D01*
G37*
%TD.AperFunction*%
%TA.AperFunction,Conductor*%
G36*
X237056505Y-92603327D02*
G01*
X237123469Y-92663440D01*
X237157719Y-92746655D01*
X237160500Y-92780077D01*
X237160500Y-101508581D01*
X237140476Y-101596312D01*
X237084370Y-101666667D01*
X237003294Y-101705711D01*
X236913306Y-101705711D01*
X236832230Y-101666667D01*
X236776124Y-101596312D01*
X236762287Y-101558218D01*
X236716720Y-101378279D01*
X236619524Y-101156695D01*
X236619521Y-101156688D01*
X236487173Y-100954114D01*
X236323288Y-100776088D01*
X236323284Y-100776085D01*
X236323285Y-100776085D01*
X236198386Y-100678873D01*
X236141453Y-100609186D01*
X236120394Y-100521697D01*
X236139381Y-100433736D01*
X236194652Y-100362723D01*
X236198387Y-100359744D01*
X236253899Y-100316536D01*
X236253903Y-100316533D01*
X236406323Y-100150961D01*
X236529417Y-99962553D01*
X236529421Y-99962545D01*
X236619821Y-99756455D01*
X236654680Y-99618800D01*
X235729469Y-99618800D01*
X235790493Y-99523844D01*
X235831000Y-99385889D01*
X235831000Y-99242111D01*
X235790493Y-99104156D01*
X235729469Y-99009200D01*
X236654680Y-99009200D01*
X236654680Y-99009199D01*
X236619821Y-98871544D01*
X236529421Y-98665454D01*
X236529417Y-98665446D01*
X236406323Y-98477038D01*
X236253903Y-98311466D01*
X236253898Y-98311461D01*
X236115271Y-98203564D01*
X236058338Y-98133877D01*
X236037279Y-98046388D01*
X236056266Y-97958427D01*
X236111537Y-97887414D01*
X236115271Y-97884436D01*
X236253898Y-97776538D01*
X236253903Y-97776533D01*
X236406323Y-97610961D01*
X236529417Y-97422553D01*
X236529421Y-97422545D01*
X236619821Y-97216455D01*
X236654680Y-97078800D01*
X235729469Y-97078800D01*
X235790493Y-96983844D01*
X235831000Y-96845889D01*
X235831000Y-96702111D01*
X235790493Y-96564156D01*
X235729469Y-96469200D01*
X236654680Y-96469200D01*
X236654680Y-96469199D01*
X236619821Y-96331544D01*
X236529421Y-96125454D01*
X236529417Y-96125446D01*
X236406323Y-95937038D01*
X236253903Y-95771466D01*
X236253898Y-95771461D01*
X236115271Y-95663564D01*
X236058338Y-95593877D01*
X236037279Y-95506388D01*
X236056266Y-95418427D01*
X236111537Y-95347414D01*
X236115271Y-95344436D01*
X236253898Y-95236538D01*
X236253903Y-95236533D01*
X236406323Y-95070961D01*
X236529417Y-94882553D01*
X236529421Y-94882545D01*
X236619821Y-94676455D01*
X236654680Y-94538800D01*
X235729469Y-94538800D01*
X235790493Y-94443844D01*
X235831000Y-94305889D01*
X235831000Y-94162111D01*
X235790493Y-94024156D01*
X235729469Y-93929200D01*
X236654680Y-93929200D01*
X236654680Y-93929199D01*
X236619821Y-93791544D01*
X236529421Y-93585454D01*
X236529417Y-93585446D01*
X236406321Y-93397035D01*
X236401188Y-93390440D01*
X236403127Y-93388930D01*
X236365449Y-93323078D01*
X236359074Y-93233316D01*
X236392277Y-93149678D01*
X236455969Y-93090190D01*
X236557907Y-93029905D01*
X236666905Y-92920907D01*
X236745372Y-92788226D01*
X236764129Y-92723663D01*
X236807834Y-92645003D01*
X236881341Y-92593095D01*
X236970091Y-92578221D01*
X237056505Y-92603327D01*
G37*
%TD.AperFunction*%
%TA.AperFunction,Conductor*%
G36*
X235635800Y-98916515D02*
G01*
X235604100Y-98889048D01*
X235473315Y-98829320D01*
X235366763Y-98814000D01*
X235295237Y-98814000D01*
X235188685Y-98829320D01*
X235057900Y-98889048D01*
X235026200Y-98916515D01*
X235026200Y-97171484D01*
X235057900Y-97198952D01*
X235188685Y-97258680D01*
X235295237Y-97274000D01*
X235366763Y-97274000D01*
X235473315Y-97258680D01*
X235604100Y-97198952D01*
X235635800Y-97171484D01*
X235635800Y-98916515D01*
G37*
%TD.AperFunction*%
%TA.AperFunction,Conductor*%
G36*
X235635800Y-96376515D02*
G01*
X235604100Y-96349048D01*
X235473315Y-96289320D01*
X235366763Y-96274000D01*
X235295237Y-96274000D01*
X235188685Y-96289320D01*
X235057900Y-96349048D01*
X235026200Y-96376515D01*
X235026200Y-94631484D01*
X235057900Y-94658952D01*
X235188685Y-94718680D01*
X235295237Y-94734000D01*
X235366763Y-94734000D01*
X235473315Y-94718680D01*
X235604100Y-94658952D01*
X235635800Y-94631484D01*
X235635800Y-96376515D01*
G37*
%TD.AperFunction*%
%TD*%
M02*
