M48
INCH
T1C0.0160
T2C0.0276
T3C0.0354
T4C0.0394
T5C0.0512
%
G90
G05
T1
X8.66Y-4.29
X8.6835Y-5.6248
X8.8634Y-2.9307
X8.915Y-4.115
X8.945Y-5.325
X8.9453Y-5.3791
X8.98Y-3.865
X9.005Y-4.115
X9.03Y-3.8138
X9.04Y-5.325
X9.0795Y-4.8205
X9.22Y-3.34
X9.31Y-4.4
T2
X8.6606Y-2.535
X8.6606Y-2.835
X8.665Y-2.9335
X8.6685Y-5.974
X8.6685Y-6.074
X8.7579Y-2.535
X8.7579Y-2.835
X8.7677Y-4.3984
X8.9319Y-2.8343
X8.965Y-2.9335
X9.0677Y-4.3984
X9.1551Y-4.3283
X9.1551Y-4.4283
X9.2319Y-2.8343
X9.263Y-5.9732
X9.263Y-6.0732
T3
X8.91Y-4.97
X8.91Y-5.97
X8.91Y-6.12
X9.01Y-4.97
X9.01Y-5.97
X9.01Y-6.12
T4
X8.655Y-3.61
X8.655Y-3.71
X8.655Y-3.81
X8.655Y-3.91
X8.655Y-4.01
X8.655Y-4.11
X8.655Y-4.21
X8.76Y-4.5263
X8.76Y-4.8531
X8.76Y-4.9751
X8.76Y-5.0869
X8.76Y-5.4137
X8.76Y-5.5263
X8.76Y-5.8531
X8.76Y-5.9751
X8.8616Y-2.6753
X8.8616Y-3.4753
X8.8616Y-4.2753
X8.96Y-2.6753
X8.96Y-3.4753
X8.96Y-4.2753
X9.0584Y-2.6753
X9.0584Y-3.4753
X9.0584Y-4.2753
X9.16Y-4.5263
X9.16Y-4.8531
X9.16Y-4.9751
X9.16Y-5.0869
X9.16Y-5.4137
X9.16Y-5.5263
X9.16Y-5.8531
X9.16Y-5.9751
X9.265Y-3.61
X9.265Y-3.71
X9.265Y-3.81
X9.265Y-3.91
X9.265Y-4.01
X9.265Y-4.11
X9.265Y-4.21
T5
G00X8.7553Y-2.3839
M15
G01X8.7553Y-2.3761
M16
G05
G00X8.7553Y-3.1839
M15
G01X8.7553Y-3.1761
M16
G05
G00X8.7553Y-3.9839
M15
G01X8.7553Y-3.9761
M16
G05
G00X9.1647Y-2.3839
M15
G01X9.1647Y-2.3761
M16
G05
G00X9.1647Y-3.1839
M15
G01X9.1647Y-3.1761
M16
G05
G00X9.1647Y-3.9839
M15
G01X9.1647Y-3.9761
M16
G05
T0
M30
