%TF.GenerationSoftware,KiCad,Pcbnew,7.0.8*%
%TF.CreationDate,2024-02-10T19:54:04+11:00*%
%TF.ProjectId,JNTUB,4a4e5455-422e-46b6-9963-61645f706362,rev?*%
%TF.SameCoordinates,Original*%
%TF.FileFunction,Copper,L1,Top*%
%TF.FilePolarity,Positive*%
%FSLAX46Y46*%
G04 Gerber Fmt 4.6, Leading zero omitted, Abs format (unit mm)*
G04 Created by KiCad (PCBNEW 7.0.8) date 2024-02-10 19:54:04*
%MOMM*%
%LPD*%
G01*
G04 APERTURE LIST*
%TA.AperFunction,ComponentPad*%
%ADD10R,1.800000X1.800000*%
%TD*%
%TA.AperFunction,ComponentPad*%
%ADD11C,1.800000*%
%TD*%
%TA.AperFunction,ComponentPad*%
%ADD12R,1.700000X1.700000*%
%TD*%
%TA.AperFunction,ComponentPad*%
%ADD13O,1.700000X1.700000*%
%TD*%
%TA.AperFunction,ComponentPad*%
%ADD14O,1.400000X1.400000*%
%TD*%
%TA.AperFunction,ComponentPad*%
%ADD15C,1.400000*%
%TD*%
%TA.AperFunction,ComponentPad*%
%ADD16C,2.000000*%
%TD*%
%TA.AperFunction,ComponentPad*%
%ADD17C,2.100000*%
%TD*%
%TA.AperFunction,ComponentPad*%
%ADD18O,2.500000X2.800000*%
%TD*%
%TA.AperFunction,ViaPad*%
%ADD19C,0.762000*%
%TD*%
%TA.AperFunction,Conductor*%
%ADD20C,0.609600*%
%TD*%
%TA.AperFunction,Conductor*%
%ADD21C,0.508000*%
%TD*%
%TA.AperFunction,Conductor*%
%ADD22C,0.304800*%
%TD*%
%TA.AperFunction,Conductor*%
%ADD23C,0.406400*%
%TD*%
%TA.AperFunction,Conductor*%
%ADD24C,0.762000*%
%TD*%
G04 APERTURE END LIST*
D10*
%TO.P,D6,1,K*%
%TO.N,GNDREF*%
X226314000Y-126238000D03*
D11*
%TO.P,D6,2,A*%
%TO.N,/PeripheralBoard/CLK_LED*%
X228854000Y-126238000D03*
%TD*%
D12*
%TO.P,J7,1,Pin_1*%
%TO.N,+5V*%
X219837000Y-91694000D03*
D13*
%TO.P,J7,2,Pin_2*%
%TO.N,-5V*%
X219837000Y-94234000D03*
%TO.P,J7,3,Pin_3*%
%TO.N,unconnected-(J7-Pin_3-Pad3)*%
X219837000Y-96774000D03*
%TO.P,J7,4,Pin_4*%
%TO.N,/PeripheralBoard/LED_NEG*%
X219837000Y-99314000D03*
%TO.P,J7,5,Pin_5*%
%TO.N,/PeripheralBoard/LED_POS*%
X219837000Y-101854000D03*
%TO.P,J7,6,Pin_6*%
%TO.N,/PeripheralBoard/P3_POT*%
X219837000Y-104394000D03*
%TO.P,J7,7,Pin_7*%
%TO.N,/PeripheralBoard/P2_AVG*%
X219837000Y-106934000D03*
%TD*%
D14*
%TO.P,R7,2*%
%TO.N,/PeripheralBoard/P1_AVG*%
X222450000Y-64390000D03*
D15*
%TO.P,R7,1*%
%TO.N,/PeripheralBoard/P1_POT*%
X222450000Y-72010000D03*
%TD*%
%TO.P,R29,1*%
%TO.N,GNDREF*%
X230320000Y-111720000D03*
D14*
%TO.P,R29,2*%
%TO.N,Net-(J1-Pad2)*%
X222700000Y-111720000D03*
%TD*%
D16*
%TO.P,J3,2*%
%TO.N,unconnected-(J3-Pad2)*%
X222504000Y-129208000D03*
%TO.P,J3,3*%
%TO.N,/PeripheralBoard/CLK_TRG*%
X222504000Y-137508000D03*
%TD*%
%TO.P,J1,1*%
%TO.N,GNDREF*%
X222504000Y-126368000D03*
%TO.P,J1,2*%
%TO.N,Net-(J1-Pad2)*%
X222504000Y-123268000D03*
%TO.P,J1,3*%
%TO.N,/PeripheralBoard/P1_CV*%
X222504000Y-114968000D03*
%TD*%
D17*
%TO.P,RV1,1,1*%
%TO.N,-5V*%
X225084000Y-108592000D03*
%TO.P,RV1,2,2*%
%TO.N,/PeripheralBoard/P1_POT*%
X227584000Y-108592000D03*
%TO.P,RV1,3,3*%
%TO.N,+5V*%
X230084000Y-108592000D03*
D18*
%TO.P,RV1,MP,MountPin*%
%TO.N,GNDREF*%
X222384000Y-101092000D03*
X232784000Y-101092000D03*
%TD*%
D11*
%TO.P,D8,2,A*%
%TO.N,/PeripheralBoard/LED_NEG*%
X226314000Y-155448000D03*
D10*
%TO.P,D8,1,K*%
%TO.N,/PeripheralBoard/LED_POS*%
X228854000Y-155448000D03*
%TD*%
D16*
%TO.P,J5,1*%
%TO.N,GNDREF*%
X222504000Y-151768000D03*
%TO.P,J5,2*%
%TO.N,unconnected-(J5-Pad2)*%
X222504000Y-148668000D03*
%TO.P,J5,3*%
%TO.N,/PeripheralBoard/OUT1*%
X222504000Y-140368000D03*
%TD*%
%TO.P,J2,1*%
%TO.N,GNDREF*%
X232664000Y-126368000D03*
%TO.P,J2,2*%
%TO.N,Net-(J1-Pad2)*%
X232664000Y-123268000D03*
%TO.P,J2,3*%
%TO.N,/PeripheralBoard/P2_CV*%
X232664000Y-114968000D03*
%TD*%
%TO.P,J6,1*%
%TO.N,GNDREF*%
X232664000Y-151768000D03*
%TO.P,J6,2*%
%TO.N,unconnected-(J6-Pad2)*%
X232664000Y-148668000D03*
%TO.P,J6,3*%
%TO.N,/PeripheralBoard/OUT1*%
X232664000Y-140368000D03*
%TD*%
%TO.P,J4,2*%
%TO.N,unconnected-(J4-Pad2)*%
X232664000Y-129208000D03*
%TO.P,J4,3*%
%TO.N,/PeripheralBoard/DITTO*%
X232664000Y-137508000D03*
%TD*%
D17*
%TO.P,RV2,1,1*%
%TO.N,-5V*%
X225084000Y-88272000D03*
%TO.P,RV2,2,2*%
%TO.N,/PeripheralBoard/P2_POT*%
X227584000Y-88272000D03*
%TO.P,RV2,3,3*%
%TO.N,+5V*%
X230084000Y-88272000D03*
D18*
%TO.P,RV2,MP,MountPin*%
%TO.N,GNDREF*%
X222384000Y-80772000D03*
X232784000Y-80772000D03*
%TD*%
D12*
%TO.P,J8,1,Pin_1*%
%TO.N,/PeripheralBoard/OUT*%
X235331000Y-91694000D03*
D13*
%TO.P,J8,2,Pin_2*%
%TO.N,GNDREF*%
X235331000Y-94234000D03*
%TO.P,J8,3,Pin_3*%
X235331000Y-96774000D03*
%TO.P,J8,4,Pin_4*%
X235331000Y-99314000D03*
%TO.P,J8,5,Pin_5*%
%TO.N,/PeripheralBoard/CLK_LED*%
X235331000Y-101854000D03*
%TO.P,J8,6,Pin_6*%
%TO.N,/PeripheralBoard/CLK_TRG*%
X235331000Y-104394000D03*
%TO.P,J8,7,Pin_7*%
%TO.N,/PeripheralBoard/P1_AVG*%
X235331000Y-106934000D03*
%TD*%
D10*
%TO.P,D7,1,K*%
%TO.N,/PeripheralBoard/LED_NEG*%
X226314000Y-151638000D03*
D11*
%TO.P,D7,2,A*%
%TO.N,/PeripheralBoard/LED_POS*%
X228854000Y-151638000D03*
%TD*%
D17*
%TO.P,RV3,1,1*%
%TO.N,GNDREF*%
X225084000Y-67952000D03*
%TO.P,RV3,2,2*%
%TO.N,/PeripheralBoard/P3_POT*%
X227584000Y-67952000D03*
%TO.P,RV3,3,3*%
%TO.N,+5V*%
X230084000Y-67952000D03*
D18*
%TO.P,RV3,MP,MountPin*%
%TO.N,GNDREF*%
X222384000Y-60452000D03*
X232784000Y-60452000D03*
%TD*%
D14*
%TO.P,R3,2*%
%TO.N,/PeripheralBoard/P2_CV*%
X234490000Y-71990000D03*
D15*
%TO.P,R3,1*%
%TO.N,/PeripheralBoard/P2_AVG*%
X226870000Y-71990000D03*
%TD*%
%TO.P,R1,1*%
%TO.N,/PeripheralBoard/P2_AVG*%
X220090000Y-74510000D03*
D14*
%TO.P,R1,2*%
%TO.N,/PeripheralBoard/P2_POT*%
X227710000Y-74510000D03*
%TD*%
%TO.P,R9,2*%
%TO.N,/PeripheralBoard/P1_AVG*%
X219980000Y-64390000D03*
D15*
%TO.P,R9,1*%
%TO.N,/PeripheralBoard/P1_CV*%
X219980000Y-72010000D03*
%TD*%
D14*
%TO.P,R15,2*%
%TO.N,/PeripheralBoard/DITTO*%
X235280000Y-151720000D03*
D15*
%TO.P,R15,1*%
%TO.N,/PeripheralBoard/CLK_TRG*%
X235280000Y-154260000D03*
%TD*%
%TO.P,R17,1*%
%TO.N,GNDREF*%
X220180000Y-151740000D03*
D14*
%TO.P,R17,2*%
%TO.N,/PeripheralBoard/CLK_TRG*%
X220180000Y-154280000D03*
%TD*%
D15*
%TO.P,R21,1*%
%TO.N,/PeripheralBoard/OUT1*%
X232540000Y-112480000D03*
D14*
%TO.P,R21,2*%
%TO.N,/PeripheralBoard/OUT*%
X232540000Y-109940000D03*
%TD*%
D19*
%TO.N,-5V*%
X226441000Y-104521000D03*
%TO.N,+5V*%
X228727000Y-104521000D03*
X229362000Y-96869902D03*
%TO.N,/PeripheralBoard/OUT*%
X234188000Y-84836000D03*
%TO.N,/PeripheralBoard/CLK_TRG*%
X236474000Y-111760000D03*
%TO.N,/PeripheralBoard/P2_AVG*%
X225130000Y-74440000D03*
%TO.N,/PeripheralBoard/CLK_LED*%
X229616000Y-135255000D03*
X227203000Y-135255000D03*
%TO.N,-5V*%
X228092000Y-98171000D03*
%TO.N,/PeripheralBoard/LED_POS*%
X219964000Y-108966000D03*
X227210000Y-136630000D03*
%TO.N,/PeripheralBoard/OUT1*%
X230620000Y-122440000D03*
%TO.N,/PeripheralBoard/LED_NEG*%
X220560000Y-142870000D03*
%TD*%
D20*
%TO.N,+5V*%
X230084000Y-78399000D02*
X232537000Y-75946000D01*
X230084000Y-105878000D02*
X228727000Y-104521000D01*
X230084000Y-108592000D02*
X230084000Y-105878000D01*
X230084000Y-85685000D02*
X230084000Y-88272000D01*
D21*
%TO.N,Net-(J1-Pad2)*%
X222504000Y-123268000D02*
X224487000Y-121285000D01*
D20*
%TO.N,-5V*%
X225084000Y-108592000D02*
X225084000Y-105878000D01*
D21*
%TO.N,/PeripheralBoard/P1_AVG*%
X236347000Y-65151000D02*
X236347000Y-87503000D01*
D20*
%TO.N,+5V*%
X230084000Y-85685000D02*
X230084000Y-78399000D01*
D21*
%TO.N,/PeripheralBoard/P3_POT*%
X227076000Y-65786000D02*
X227584000Y-66294000D01*
X227584000Y-66294000D02*
X227584000Y-67952000D01*
X219202000Y-65786000D02*
X227076000Y-65786000D01*
X224536000Y-102235000D02*
X224536000Y-99949000D01*
X218694000Y-87884000D02*
X218694000Y-66294000D01*
X219837000Y-104394000D02*
X222377000Y-104394000D01*
X222377000Y-104394000D02*
X224536000Y-102235000D01*
X224536000Y-99949000D02*
X221488000Y-96901000D01*
X218694000Y-66294000D02*
X219202000Y-65786000D01*
X221488000Y-90678000D02*
X218694000Y-87884000D01*
X221488000Y-96901000D02*
X221488000Y-90678000D01*
D22*
%TO.N,/PeripheralBoard/CLK_LED*%
X235331000Y-108868658D02*
X235331000Y-109220000D01*
D20*
X234950000Y-135255000D02*
X235331000Y-134874000D01*
X227203000Y-129413000D02*
X228854000Y-127762000D01*
D23*
X228854000Y-125476000D02*
X228854000Y-126238000D01*
D20*
X235331000Y-134874000D02*
X235331000Y-109220000D01*
D22*
X236703790Y-107495868D02*
X235331000Y-108868658D01*
D20*
X229616000Y-135255000D02*
X234950000Y-135255000D01*
D22*
X235331000Y-101854000D02*
X236703790Y-103226790D01*
X236703790Y-103226790D02*
X236703790Y-107495868D01*
D20*
X228854000Y-127762000D02*
X228854000Y-126238000D01*
X227203000Y-135255000D02*
X227203000Y-129413000D01*
%TO.N,+5V*%
X230084000Y-96147902D02*
X229362000Y-96869902D01*
D21*
%TO.N,Net-(J1-Pad2)*%
X224487000Y-121285000D02*
X225806000Y-121285000D01*
D20*
%TO.N,-5V*%
X225084000Y-88272000D02*
X225084000Y-95163000D01*
X225084000Y-105878000D02*
X226441000Y-104521000D01*
X225084000Y-95163000D02*
X228092000Y-98171000D01*
%TO.N,+5V*%
X230084000Y-88272000D02*
X230084000Y-96147902D01*
%TO.N,-5V*%
X225044000Y-108552000D02*
X225084000Y-108592000D01*
D24*
%TO.N,/PeripheralBoard/OUT1*%
X222504000Y-140368000D02*
X228694000Y-140368000D01*
X228694000Y-140368000D02*
X232664000Y-140368000D01*
D20*
%TO.N,/PeripheralBoard/LED_POS*%
X220853000Y-135382000D02*
X219964000Y-134493000D01*
D21*
%TO.N,/PeripheralBoard/P1_POT*%
X225806000Y-84709000D02*
X223266000Y-87249000D01*
X222450000Y-72010000D02*
X222450000Y-72547604D01*
X227584000Y-99187000D02*
X227584000Y-108592000D01*
X225806000Y-79248000D02*
X225806000Y-84709000D01*
X222450000Y-72547604D02*
X223600000Y-73697604D01*
X224078810Y-89579324D02*
X224078810Y-95681810D01*
X223600000Y-73697604D02*
X223600000Y-77042000D01*
X223600000Y-77042000D02*
X225806000Y-79248000D01*
X223266000Y-87249000D02*
X223266000Y-88766514D01*
X224078810Y-95681810D02*
X227584000Y-99187000D01*
X223266000Y-88766514D02*
X224078810Y-89579324D01*
%TO.N,/PeripheralBoard/P1_AVG*%
X236347000Y-87503000D02*
X233680000Y-90170000D01*
X233680000Y-90170000D02*
X233680000Y-96901000D01*
X230632000Y-99949000D02*
X230632000Y-102235000D01*
X233680000Y-96901000D02*
X230632000Y-99949000D01*
X230632000Y-102235000D02*
X235331000Y-106934000D01*
X235036000Y-63840000D02*
X236347000Y-65151000D01*
X223000000Y-63840000D02*
X235036000Y-63840000D01*
X222450000Y-64390000D02*
X223000000Y-63840000D01*
X222450000Y-64390000D02*
X219980000Y-64390000D01*
D20*
%TO.N,+5V*%
X232537000Y-75946000D02*
X232537000Y-70405000D01*
X232537000Y-70405000D02*
X230084000Y-67952000D01*
D21*
%TO.N,/PeripheralBoard/P1_CV*%
X224536000Y-84455000D02*
X224536000Y-79375000D01*
D20*
%TO.N,/PeripheralBoard/LED_POS*%
X224155000Y-135382000D02*
X220853000Y-135382000D01*
X225403000Y-136630000D02*
X224155000Y-135382000D01*
X219964000Y-134493000D02*
X219964000Y-108966000D01*
X227210000Y-136630000D02*
X225403000Y-136630000D01*
%TO.N,/PeripheralBoard/P2_AVG*%
X225130000Y-74440000D02*
X226940000Y-72630000D01*
D21*
X221107000Y-106934000D02*
X225425000Y-102616000D01*
X222377000Y-90297000D02*
X219970000Y-87890000D01*
X219837000Y-106934000D02*
X221107000Y-106934000D01*
X225425000Y-102616000D02*
X225425000Y-99568000D01*
D20*
%TO.N,/PeripheralBoard/P2_POT*%
X227590000Y-88266000D02*
X227590000Y-74630000D01*
D21*
%TO.N,/PeripheralBoard/P2_AVG*%
X222377000Y-96520000D02*
X222377000Y-90297000D01*
X219970000Y-74630000D02*
X220090000Y-74510000D01*
D20*
%TO.N,/PeripheralBoard/P2_POT*%
X227590000Y-74630000D02*
X227710000Y-74510000D01*
D21*
%TO.N,/PeripheralBoard/P2_AVG*%
X219970000Y-87890000D02*
X219970000Y-74630000D01*
X225425000Y-99568000D02*
X222377000Y-96520000D01*
D20*
%TO.N,/PeripheralBoard/P2_POT*%
X227584000Y-88272000D02*
X227590000Y-88266000D01*
%TO.N,/PeripheralBoard/P2_AVG*%
X226940000Y-72630000D02*
X226940000Y-72060000D01*
X226940000Y-72060000D02*
X226870000Y-71990000D01*
%TO.N,/PeripheralBoard/DITTO*%
X235331000Y-151669000D02*
X235280000Y-151720000D01*
X234409000Y-137508000D02*
X235331000Y-138430000D01*
X235331000Y-138430000D02*
X235331000Y-151669000D01*
%TO.N,/PeripheralBoard/CLK_TRG*%
X235280000Y-154260000D02*
X236549600Y-152990400D01*
X236549600Y-152990400D02*
X236549600Y-111835600D01*
X236549600Y-111835600D02*
X236474000Y-111760000D01*
%TO.N,/PeripheralBoard/DITTO*%
X232664000Y-137508000D02*
X234409000Y-137508000D01*
D24*
%TO.N,/PeripheralBoard/OUT1*%
X230620000Y-125083000D02*
X230759000Y-125222000D01*
X230620000Y-122440000D02*
X230620000Y-125083000D01*
X230759000Y-127762000D02*
X228510000Y-130011000D01*
X229310000Y-136710000D02*
X229310000Y-139531000D01*
X228510000Y-135910000D02*
X229310000Y-136710000D01*
X228510000Y-130011000D02*
X228510000Y-135910000D01*
X230759000Y-125222000D02*
X230759000Y-127762000D01*
X229310000Y-139531000D02*
X228473000Y-140368000D01*
D20*
%TO.N,/PeripheralBoard/CLK_TRG*%
X225570000Y-148770000D02*
X225570000Y-144318302D01*
X235280000Y-154260000D02*
X235040000Y-154500000D01*
D21*
%TO.N,/PeripheralBoard/P1_CV*%
X222681801Y-77520801D02*
X222681801Y-74711801D01*
X222250000Y-86741000D02*
X224536000Y-84455000D01*
X223266000Y-96139000D02*
X223266000Y-89916000D01*
%TO.N,Net-(J1-Pad2)*%
X225806000Y-114612000D02*
X222914000Y-111720000D01*
D20*
%TO.N,/PeripheralBoard/LED_NEG*%
X220560000Y-142870000D02*
X218940000Y-141250000D01*
X218940000Y-141250000D02*
X218940000Y-109420000D01*
X218940000Y-109420000D02*
X218950000Y-109410000D01*
D21*
%TO.N,Net-(J1-Pad2)*%
X222914000Y-111720000D02*
X222700000Y-111720000D01*
D20*
%TO.N,/PeripheralBoard/LED_NEG*%
X219837000Y-99380159D02*
X219837000Y-99314000D01*
D23*
X218477400Y-100739759D02*
X219837000Y-99380159D01*
X218950000Y-109410000D02*
X218477400Y-108937400D01*
D20*
%TO.N,/PeripheralBoard/CLK_TRG*%
X230830000Y-153800000D02*
X224780000Y-153800000D01*
X235040000Y-154500000D02*
X231530000Y-154500000D01*
X231530000Y-154500000D02*
X230830000Y-153800000D01*
X220550000Y-138630000D02*
X221672000Y-137508000D01*
X223601698Y-142350000D02*
X221700000Y-142350000D01*
X220550000Y-141200000D02*
X220550000Y-138630000D01*
X225570000Y-144318302D02*
X223601698Y-142350000D01*
X224780000Y-153800000D02*
X224490000Y-153510000D01*
X221672000Y-137508000D02*
X222504000Y-137508000D01*
X221700000Y-142350000D02*
X220550000Y-141200000D01*
X224490000Y-149850000D02*
X225570000Y-148770000D01*
X224490000Y-153510000D02*
X224490000Y-149850000D01*
D21*
%TO.N,Net-(J1-Pad2)*%
X225806000Y-121285000D02*
X230945000Y-121285000D01*
X230945000Y-121285000D02*
X232664000Y-123004000D01*
X232664000Y-123004000D02*
X232664000Y-123268000D01*
D23*
%TO.N,/PeripheralBoard/LED_NEG*%
X218477400Y-108937400D02*
X218477400Y-100739759D01*
D20*
%TO.N,/PeripheralBoard/CLK_TRG*%
X220650000Y-153810000D02*
X220180000Y-154280000D01*
X224780000Y-153800000D02*
X224770000Y-153810000D01*
X224770000Y-153810000D02*
X220650000Y-153810000D01*
D21*
%TO.N,/PeripheralBoard/OUT*%
X234188000Y-86741000D02*
X234188000Y-84836000D01*
X232540000Y-109940000D02*
X232100000Y-109500000D01*
X228727000Y-102997000D02*
X228727000Y-99060000D01*
X232100000Y-109500000D02*
X232100000Y-106370000D01*
X228727000Y-99060000D02*
X231648000Y-96139000D01*
X231648000Y-89281000D02*
X234188000Y-86741000D01*
X231648000Y-96139000D02*
X231648000Y-89281000D01*
X232100000Y-106370000D02*
X228727000Y-102997000D01*
%TO.N,/PeripheralBoard/P2_CV*%
X233480000Y-107370000D02*
X234290000Y-108180000D01*
%TO.N,/PeripheralBoard/P1_CV*%
X224536000Y-79375000D02*
X222681801Y-77520801D01*
X226314000Y-102997000D02*
X226314000Y-99187000D01*
X222681801Y-74711801D02*
X219980000Y-72010000D01*
X222250000Y-88900000D02*
X222250000Y-86741000D01*
X222504000Y-114968000D02*
X221110000Y-113574000D01*
X226314000Y-99187000D02*
X223266000Y-96139000D01*
X221110000Y-108201000D02*
X226314000Y-102997000D01*
X221110000Y-113574000D02*
X221110000Y-108201000D01*
X223266000Y-89916000D02*
X222250000Y-88900000D01*
%TO.N,Net-(J1-Pad2)*%
X225806000Y-121285000D02*
X225806000Y-114612000D01*
%TO.N,/PeripheralBoard/P2_CV*%
X234290000Y-113342000D02*
X232664000Y-114968000D01*
X232664000Y-96520000D02*
X229616000Y-99568000D01*
X233480000Y-106480000D02*
X233480000Y-107370000D01*
X229616000Y-99568000D02*
X229616000Y-102616000D01*
X229616000Y-102616000D02*
X233480000Y-106480000D01*
X234290000Y-108180000D02*
X234290000Y-113342000D01*
X234510000Y-78554000D02*
X235331000Y-79375000D01*
X232664000Y-89789000D02*
X232664000Y-96520000D01*
X235331000Y-79375000D02*
X235331000Y-87122000D01*
X235331000Y-87122000D02*
X232664000Y-89789000D01*
X234510000Y-72010000D02*
X234510000Y-78554000D01*
X234490000Y-71990000D02*
X234510000Y-72010000D01*
%TD*%
M02*
